<?xml version="1.0" encoding="UTF-8" standalone="no"?>
<svg
   version="1.1"
   id="Contours"
   x="0px"
   y="0px"
   width="667.306519px"
   height="667.306519px"
   viewBox="0.000000 -0.000001 667.306519 646.119019"
   enable-background="new 0 0 667.306519 667.306519"
   xml:space="preserve"
   stroke="black"
   fill="none"
   stroke-linecap="round"
   stroke-linejoin="round"
   sodipodi:docname="balcon.svg"
   inkscape:version="1.3 (0e150ed6c4, 2023-07-21)"
   xmlns:inkscape="http://www.inkscape.org/namespaces/inkscape"
   xmlns:sodipodi="http://sodipodi.sourceforge.net/DTD/sodipodi-0.dtd"
   xmlns="http://www.w3.org/2000/svg"
   xmlns:svg="http://www.w3.org/2000/svg"><defs
     id="defs9" /><sodipodi:namedview
     id="namedview9"
     pagecolor="#ffffff"
     bordercolor="#000000"
     borderopacity="0.25"
     inkscape:showpageshadow="2"
     inkscape:pageopacity="0.0"
     inkscape:pagecheckerboard="0"
     inkscape:deskcolor="#d1d1d1"
     inkscape:zoom="1.2183307"
     inkscape:cx="333.24286"
     inkscape:cy="259.78169"
     inkscape:window-width="1920"
     inkscape:window-height="1009"
     inkscape:window-x="-8"
     inkscape:window-y="-8"
     inkscape:window-maximized="1"
     inkscape:current-layer="Contours" /><path
     class="selected"
     fill="#000000"
     opacity="1.000000"
     stroke="none"
     d=" M613.000000 9.119020 C614.296265 6.322740 615.280212 3.759233 616.962280 1.793016 C619.461792 -1.128707 622.863403 -0.383315 623.920715 3.327150 C624.952148 6.946901 625.158264 10.794008 626.040833 14.465806 C627.382935 20.049195 628.645325 25.692811 630.573120 31.085069 C633.785706 40.070893 637.839050 48.762574 640.896423 57.795411 C643.529236 65.573884 640.643921 72.396913 633.260986 77.065797 C627.363647 80.795228 621.154968 84.030793 615.112122 87.533204 C613.887268 88.243135 612.745911 89.117036 611.643921 90.011323 C611.056641 90.487947 610.635864 91.169770 610.139954 91.759004 C610.952148 92.212342 611.747192 93.016053 612.579590 93.056764 C615.738525 93.211335 618.933594 93.372194 622.071899 93.074800 C635.029053 91.846986 647.956482 90.286744 660.924194 89.198121 C666.336792 88.743745 668.500183 91.711793 666.665955 96.865876 C663.723877 105.132875 660.231750 113.203157 657.237671 121.452943 C655.550415 126.102143 654.714661 131.069062 652.920715 135.668733 C650.573669 141.686555 648.276123 141.878053 644.342346 136.970094 C638.100830 129.182954 630.080688 123.506013 621.823853 118.123597 C616.841980 114.876008 611.892517 111.569825 606.789307 108.523072 C605.486084 107.745027 603.653809 107.853334 602.064575 107.554445 C602.043030 109.102632 601.695801 110.731691 602.056641 112.184938 C603.590027 118.360719 606.205933 124.399598 606.812744 130.645265 C607.965759 142.512910 601.693787 152.551759 597.708740 163.266023 C592.545715 177.147371 582.046692 184.615602 569.816467 190.597108 C566.964294 191.992006 563.213074 191.424958 559.968994 192.168458 C553.629639 193.621370 546.438782 193.428773 541.834290 198.933717 C537.140198 204.545808 533.551758 210.629121 534.791077 218.770997 C535.354736 222.474061 533.564697 226.505738 533.022034 230.413331 C532.012878 237.680482 535.163635 243.986421 537.772034 250.432405 C539.332031 254.287568 540.864624 258.192842 541.896423 262.207429 C542.472717 264.449739 542.172058 266.976533 541.967102 269.349244 C541.394958 275.971498 540.599426 282.574952 540.077454 289.200441 C540.005005 290.120179 540.978210 291.122377 541.467346 292.086366 C542.272034 291.636781 543.281067 291.363954 543.848083 290.708680 C547.332275 286.682161 550.409424 282.254182 554.202698 278.555452 C560.629517 272.288911 567.846375 266.811891 574.078857 260.371736 C583.026245 251.126100 591.664978 241.544709 599.904419 231.663789 C605.559143 224.882478 610.219727 217.279847 615.532959 210.200685 C616.841553 208.457154 618.786011 206.934633 620.767090 206.035066 C622.284180 205.346254 625.172913 205.056703 625.921753 205.918641 C627.016052 207.178224 627.613037 210.071840 626.891907 211.492036 C624.219482 216.754823 621.210327 221.905488 617.790710 226.716615 C612.077881 234.754091 606.177246 242.682679 599.927795 250.306337 C595.044983 256.263002 589.330444 261.531404 584.319092 267.390931 C578.800842 273.843232 573.627502 280.593751 568.458923 287.333284 C568.173889 287.704957 569.526245 290.042787 569.749634 289.987367 C573.045532 289.169313 576.590027 288.640931 579.467102 286.985963 C586.910400 282.704255 593.930420 277.687135 601.369568 273.397401 C604.840515 271.395906 608.653931 268.964906 613.068970 271.144563 C614.455994 271.829377 615.693848 272.816255 617.000000 273.664857 C616.164246 274.818635 615.563843 276.319062 614.455627 277.071321 C605.630127 283.061952 596.714844 288.920442 587.813110 294.798280 C584.023315 297.300721 580.164062 299.700074 576.424622 302.274598 C575.739075 302.746583 575.478760 303.836488 575.022156 304.641175 C575.984741 305.133790 576.963257 306.070070 577.906860 306.036134 C580.777344 305.932618 583.636902 305.184449 586.495850 305.211000 C588.638000 305.230897 590.923828 305.742311 592.849915 306.657411 C593.887695 307.150514 594.971619 309.049562 594.813721 310.136964 C594.653015 311.244264 593.156555 312.567079 591.953247 313.019227 C590.065979 313.728456 587.943909 313.877320 585.903564 314.104005 C573.626404 315.467469 561.344482 316.788636 549.063538 318.117860 C542.840698 318.791383 536.578918 319.213258 530.403137 320.183961 C523.744019 321.230531 517.162781 322.775941 510.554352 324.136842 C510.009644 324.248964 509.516907 324.613771 509.000000 324.861146 C509.508240 325.288697 509.973206 326.013612 510.531799 326.094728 C513.793335 326.568849 517.105225 327.360109 520.346497 327.163148 C526.072205 326.815370 531.766113 325.884340 537.461304 325.109132 C551.020996 323.263490 564.566467 321.310548 578.137390 319.553285 C580.055359 319.304933 582.093201 320.148805 584.059143 320.071290 C588.760071 319.885865 593.447815 319.328004 598.148438 319.201234 C599.418457 319.166993 600.715393 320.135499 602.000000 320.643739 C600.953796 321.681703 600.075745 323.274965 598.829468 323.652406 C595.246033 324.737916 591.378174 324.971070 587.899719 326.278016 C586.270569 326.890138 583.978699 329.446046 584.214661 330.702943 C585.578430 337.970033 585.582458 345.072633 585.323608 352.510865 C584.676147 371.118898 585.790527 389.782960 585.936890 408.426576 C585.992493 415.509034 584.398865 422.709352 585.233398 429.654542 C586.308289 438.599916 584.877808 448.198243 590.942322 456.239503 C595.503601 462.287538 594.189209 469.611390 593.836426 476.444032 C593.624573 480.546754 588.156372 481.974549 586.072571 478.380189 C583.015442 473.106752 580.670898 467.215516 579.190369 461.295594 C577.934448 456.274110 578.087219 450.840699 578.045898 445.586183 C577.919495 429.530641 578.126831 413.472291 577.968140 397.417360 C577.766418 376.997865 577.347900 356.580323 576.991150 336.162538 C576.884033 330.028383 572.895203 327.454591 566.712158 328.820497 C560.395386 330.216066 553.986389 331.464662 547.554138 331.972779 C543.165466 332.319459 543.229370 335.337098 544.160889 337.357545 C547.196838 343.942567 546.825256 350.785035 547.092712 357.684571 C547.270081 362.260560 547.855225 366.939210 549.113220 371.326661 C550.950378 377.733827 553.068909 383.892640 551.126221 390.737184 C550.560059 392.731691 551.744446 395.160035 551.711182 397.383363 C551.658997 400.882386 551.069214 404.374330 551.035156 407.872560 C550.936096 418.037843 550.428772 428.246583 551.171021 438.358339 C551.827942 447.307618 554.339783 456.107179 555.305481 465.051271 C556.208008 473.411378 560.107239 481.412965 558.098267 490.163270 C557.467896 492.908876 558.437561 496.020875 557.812927 498.769349 C557.506714 500.117067 555.228638 501.016603 553.842957 502.119020 C552.895264 500.911927 551.076965 499.663209 551.132385 498.504091 C551.814636 484.239747 546.463562 470.854005 545.213806 456.965638 C543.656311 439.656007 543.765930 422.200746 542.961182 404.817323 C542.510559 395.083924 541.870911 385.348756 540.927063 375.652284 C540.314819 369.362367 538.759094 363.166688 538.084900 356.879579 C537.637207 352.703920 538.080078 348.438966 537.954102 344.219056 C537.913208 342.848451 537.538391 341.392091 536.929688 340.166993 C536.506226 339.314637 535.423035 338.790040 534.634521 338.119020 C534.089661 339.033632 533.183594 339.900209 533.054504 340.870240 C531.306702 354.001832 529.845459 367.173585 527.952515 380.283265 C525.825745 395.012635 522.721741 409.627320 521.226074 424.411622 C520.308228 433.485536 517.575012 441.856691 515.342468 450.514528 C513.097900 459.218934 512.445557 468.328187 510.967712 477.238832 C510.432312 480.466981 509.867126 483.775697 508.622681 486.758546 C508.126495 487.947877 505.487152 489.244203 504.309662 488.887391 C502.929810 488.469178 501.151184 486.300843 501.153809 484.894593 C501.168427 476.975221 501.636688 469.055299 502.009796 461.138429 C502.294006 455.107789 502.545410 449.071656 503.024323 443.054933 C504.155212 428.846620 502.428131 414.790834 501.010559 400.710633 C500.283875 393.493104 499.503113 386.274659 499.057190 379.037477 C498.757019 374.165651 499.067993 369.258729 498.943909 364.371522 C498.918365 363.365785 498.175629 362.378358 497.763458 361.382447 C497.174225 362.129396 496.342590 362.787965 496.033295 363.636903 C492.972656 372.038514 489.699829 380.379701 487.072357 388.918092 C483.440063 400.721925 483.601196 413.036073 482.959686 425.235231 C482.500397 433.969667 481.337555 442.675843 481.112061 451.410707 C480.953461 457.554261 482.206451 463.726808 482.172760 469.882814 C482.130188 477.673524 481.928497 485.535157 480.797485 493.219362 C480.182739 497.396180 477.087006 497.511232 473.862579 494.555421 C469.338654 490.408204 469.892456 484.627687 469.249298 479.542665 C468.174103 471.041810 468.734741 462.344789 467.891602 453.800843 C467.053101 445.304689 465.385590 436.886781 463.988190 428.450074 C461.670959 414.459840 463.939148 400.601014 464.928131 386.687501 C465.356506 380.661012 465.032867 374.578431 464.960541 368.522340 C464.950958 367.717958 464.406708 366.919984 464.110046 366.119020 C463.406708 366.875184 462.333405 367.517091 462.058899 368.405702 C460.001953 375.064759 458.584656 381.961427 456.051361 388.424806 C451.123688 400.997316 447.963287 414.003297 446.144684 427.277162 C445.028809 435.421998 445.569214 443.779603 444.938416 452.008912 C444.202087 461.614503 443.259064 471.221254 441.900818 480.755555 C441.113647 486.280824 439.657349 491.775392 437.850098 497.060792 C437.061157 499.368165 434.391754 502.915834 433.010773 502.726747 C430.502411 502.383424 427.095642 500.128968 426.235016 497.851625 C423.885223 491.633729 421.656952 485.055543 421.221039 478.497682 C420.437958 466.716920 420.483002 454.818055 421.137054 443.021547 C421.875244 429.708070 423.765350 416.461671 424.942108 403.167360 C425.313049 398.976564 424.887085 394.720948 425.044159 390.503175 C425.132416 388.132203 426.061005 385.755677 425.929718 383.419984 C425.438812 374.686647 424.684082 365.967653 423.991821 357.246278 C423.695312 353.511232 421.656128 354.562684 420.409882 356.358216 C418.756714 358.740052 417.652954 361.521791 416.446686 364.192079 C411.817352 374.439454 406.383514 384.428956 402.891815 395.054322 C399.537384 405.261903 398.017456 416.100770 396.056122 426.729615 C394.131805 437.157899 392.716949 447.679261 390.985260 458.144349 C389.387817 467.798341 387.944305 477.494325 385.800171 487.029481 C385.279175 489.346254 382.566284 491.694032 380.268860 492.837709 C379.308289 493.315980 375.875977 491.080629 375.173096 489.405397 C373.029419 484.296144 370.691559 478.947145 370.203461 473.531556 C369.194794 462.340455 368.665344 451.015870 369.169281 439.801576 C369.797455 425.822755 371.547485 411.886964 373.038727 397.956788 C374.177216 387.322023 375.712219 376.730165 376.962585 366.106508 C377.220734 363.913148 377.128998 361.651918 376.932526 359.445619 C376.860321 358.634828 376.018585 357.892579 375.527893 357.119020 C374.685272 357.902589 373.340881 358.547853 373.080688 359.491883 C371.261597 366.092530 369.568329 372.732240 368.022369 379.402833 C365.516968 390.213075 363.100708 401.044740 360.749756 411.889711 C358.757538 421.080079 356.828949 430.286073 355.025269 439.515077 C353.513855 447.248964 352.145966 455.013185 350.859222 462.787904 C349.796295 469.210023 349.168640 475.710084 347.941284 482.097413 C346.527466 489.455323 344.937073 496.807618 342.806061 503.979005 C342.286621 505.727052 339.076721 508.102967 337.599060 507.797242 C335.493073 507.361512 332.503235 504.914979 332.217743 502.983522 C330.371094 490.489991 328.500610 477.926454 330.961975 465.252687 C331.242676 463.807252 330.988495 462.260072 331.001740 460.760255 C331.154999 443.414491 332.156433 426.186097 335.857391 409.131105 C337.384430 402.094239 337.270538 394.708497 338.013977 387.492860 C339.296967 375.040529 340.793945 362.608155 341.883881 350.139772 C342.082520 347.867311 340.768372 345.462648 340.152527 343.119020 C338.768341 344.889528 336.736053 346.457521 336.108826 348.464601 C332.874359 358.814882 329.670166 369.197267 327.101562 379.726014 C324.941193 388.581483 323.572235 397.636781 322.023132 406.632875 C319.930054 418.787904 317.886292 430.954103 316.074677 443.153138 C315.582062 446.470338 316.423859 449.992494 315.880402 453.293397 C315.340698 456.571412 313.804169 459.681398 312.750671 462.880189 C312.121552 464.790284 311.380096 466.698793 311.079254 468.667604 C310.913177 469.754518 311.552795 470.964540 311.829224 472.119020 C312.552795 471.216432 313.303253 470.333741 313.991425 469.404969 C314.534119 468.672548 315.000214 467.883302 315.500336 467.119325 C315.597748 468.021669 315.958893 468.992372 315.745819 469.814210 C314.930664 472.958497 314.207031 476.179933 312.878540 479.114198 C312.254517 480.492433 309.703369 481.022218 309.133636 482.395936 C308.013092 485.098085 307.745361 488.142274 306.981110 491.006593 C305.902679 495.048768 304.942719 499.154908 303.405518 503.024537 C302.868988 504.375123 300.744049 505.939576 299.393646 505.895631 C297.899689 505.846986 295.621185 504.356508 295.150665 502.989259 C293.435944 498.006410 291.532776 492.870179 291.161926 487.687135 C290.315796 475.862367 289.718231 463.951234 290.192474 452.122133 C290.579468 442.470277 292.718506 432.893312 293.980743 423.270082 C294.751556 417.393434 295.105652 411.455262 296.051117 405.610048 C297.635651 395.814027 299.559570 386.073243 301.309601 376.303529 C302.894592 367.455079 304.428345 358.597352 306.005493 349.747438 C306.529633 346.806276 307.308411 343.896974 307.625549 340.936097 C307.963440 337.781617 307.998840 334.580812 307.923645 331.406007 C307.905304 330.632142 307.029907 329.375856 306.381317 329.257447 C305.698547 329.132753 304.380463 329.922548 304.084015 330.626222 C298.106232 344.815492 291.328491 358.754640 286.576416 373.351197 C280.814209 391.050538 277.032379 409.384706 271.901642 427.303407 C269.024719 437.351075 267.528748 447.564515 265.691345 457.789369 C264.218140 465.987367 260.133026 473.749086 256.801422 481.530763 C256.454834 482.340272 253.152557 482.511537 251.602814 481.941957 C250.682846 481.603883 250.131592 479.253236 250.061310 477.776674 C249.608093 468.254213 249.475677 458.715455 248.957718 449.197328 C248.491486 440.629579 247.321152 432.090089 247.106094 423.521913 C246.924408 416.282716 247.841125 409.022523 247.931259 401.767335 C247.981232 397.743654 246.944748 393.699403 247.068039 389.684999 C247.571548 373.290162 248.028137 356.882447 249.143143 340.523195 C249.620636 333.517457 251.761124 326.634523 252.933960 319.660157 C253.229233 317.904359 252.998138 315.927858 252.500748 314.198976 C251.522217 310.797548 250.128616 307.517213 249.059540 304.138429 C248.887009 303.593202 249.503006 302.798463 249.754517 302.119020 C250.180847 302.630128 250.683029 303.095704 251.021851 303.659425 C254.783066 309.917543 259.301605 315.386659 266.419067 317.993715 C268.598328 318.791932 270.947357 319.120973 273.147797 319.872438 C273.533997 320.004335 273.568024 321.167421 273.764709 321.854310 C273.195709 321.795106 272.607086 321.809755 272.060822 321.664918 C268.171661 320.632997 263.514648 321.797853 260.713348 317.500978 C260.337616 316.924684 258.579803 317.249452 257.461975 317.156984 C257.743225 318.079591 258.177887 318.986085 258.276306 319.927736 C258.548065 322.528260 259.148041 325.212404 258.776428 327.739686 C257.746552 334.743592 255.416504 341.653016 255.162598 348.656434 C254.382706 370.167909 254.134964 391.705262 254.070724 413.233766 C254.028854 427.260682 254.614960 441.291261 255.086395 455.314637 C255.129730 456.603639 256.384705 457.851869 257.077026 459.119020 C257.717987 457.800538 258.705017 456.541383 258.943268 455.153810 C260.390259 446.725953 261.129059 438.138734 263.134277 429.854066 C265.716431 419.185731 269.325592 408.768800 272.384338 398.212342 C275.060150 388.977418 277.177460 379.558046 280.307037 370.484254 C282.858978 363.085328 286.526398 356.069459 289.728394 348.896791 C293.244812 341.019838 296.820862 333.169130 300.267792 325.262025 C300.485229 324.763246 299.963623 323.387025 299.523651 323.247804 C296.857391 322.404359 293.724487 320.629213 291.483276 321.375367 C287.442291 322.720765 285.038086 321.362367 281.996124 319.202272 C274.843781 314.123597 267.135498 309.805726 260.158356 304.512758 C257.130066 302.215516 255.461060 298.180848 252.920944 295.147767 C252.282120 294.384950 250.493713 293.906434 249.529938 294.216920 C246.168365 295.299989 242.978897 297.738343 239.645279 297.886171 C235.134995 298.086183 233.156509 301.136842 231.142212 303.792604 C228.712891 306.995668 226.951889 309.232362 222.181641 308.274965 C213.618774 306.556520 207.337158 310.837281 202.117584 317.414552 C195.601913 325.625062 189.004303 333.804017 181.926971 341.524415 C176.393509 347.560670 169.937469 352.740174 164.141846 358.550172 C157.619385 365.088807 151.332565 371.865785 145.060532 378.647584 C144.058868 379.730653 143.239761 381.331361 143.071014 382.778505 C142.079849 391.278871 138.135422 398.513368 133.196335 405.158448 C131.932846 406.858339 127.837540 408.620973 126.697289 407.863954 C122.135971 404.835084 118.378510 407.868043 114.266724 408.212770 C111.379883 408.454774 108.392097 407.492738 105.449379 407.068422 C105.974640 403.910218 105.408684 399.763307 107.216949 397.767579 C114.455002 389.779176 121.966690 381.889283 132.164261 377.413881 C133.296829 376.916810 134.385849 376.161317 135.278442 375.300843 C146.227661 364.746034 157.388489 354.394044 167.979004 343.488893 C177.069901 334.127931 185.535904 324.156617 194.183197 314.371278 C195.835815 312.501222 197.088348 310.267396 198.448395 308.151796 C199.943741 305.825746 198.079590 303.213868 194.299789 303.214601 C189.632523 303.215455 184.848907 303.405946 180.323151 304.430970 C171.691483 306.386049 172.361359 306.843202 170.783371 318.008973 C169.563904 326.637819 165.856552 333.987123 158.721954 340.588380 C148.937851 349.640992 136.502228 353.905030 126.409462 362.058351 C114.182640 371.935609 98.825890 375.926881 85.179352 383.157289 C78.325233 386.788881 71.843307 391.149049 64.882820 394.543580 C61.044746 396.415284 56.507198 396.799501 52.394726 398.180970 C49.784023 399.057924 47.458595 400.784486 44.847622 401.660157 C42.950249 402.296510 40.522770 402.862428 38.821854 402.200319 C36.585766 401.330018 36.056870 399.353090 36.845100 396.387758 C39.917709 384.828614 43.628803 373.577333 49.504932 363.109864 C55.880344 351.752992 62.353790 340.448793 68.557060 328.998414 C72.809555 321.148927 67.405388 312.119996 58.720730 309.940370 C48.191643 307.297670 37.424156 304.146180 30.872522 294.330873 C28.593868 290.917115 26.416529 286.805055 29.077988 282.508210 C29.957596 281.088075 32.394554 279.026826 32.999310 279.350618 C34.651848 280.235505 36.716110 282.174714 36.812767 283.803437 C37.114407 288.886140 39.522549 292.210633 43.791496 294.373292 C50.258698 297.649598 56.697998 301.023927 63.364868 303.847291 C67.532104 305.612062 70.639107 302.858766 73.152206 298.914857 C77.234276 292.508729 82.367706 286.780519 86.921646 280.665132 C92.853699 272.699098 102.221123 270.461213 110.204567 265.772676 C121.129807 259.356446 131.428772 261.046693 142.037704 264.298768 C146.221542 265.581300 149.938568 268.667817 153.601959 271.302980 C159.458023 275.515413 165.940857 279.123994 169.369385 285.979554 C170.544464 288.329225 172.339996 290.525758 172.874008 293.003053 C173.731476 296.981080 175.667267 296.653932 178.373657 295.246095 C179.058990 294.889589 179.826172 294.130067 180.422302 294.245424 C192.106262 296.506410 194.563065 286.477693 199.714615 279.955201 C203.219269 275.517976 206.826141 271.137971 210.677231 267.002351 C222.000046 254.842927 234.289963 243.474336 244.616379 230.531648 C252.779785 220.299928 258.382263 208.144593 261.082703 194.937165 C262.256989 189.193788 264.395142 183.652223 265.988159 177.988801 C270.355835 162.460786 274.647675 146.911409 279.028259 131.387086 C279.484406 129.770539 279.958069 127.848512 281.100311 126.819001 C282.368317 125.676118 284.956146 124.396058 285.996918 124.962465 C287.737640 125.909822 289.708221 128.236634 289.778961 130.053041 C289.903290 133.245973 289.025726 136.622743 287.910095 139.682801 C286.481323 143.601655 286.704712 147.013032 288.940308 150.510560 C289.655029 151.628663 290.249664 153.366395 289.909393 154.531556 C286.658081 165.665773 283.408722 176.811006 279.669037 187.786195 C278.441925 191.387391 275.747070 194.479676 273.809143 197.853944 C273.359314 198.637239 272.786407 199.847413 273.084320 200.474061 C274.207245 202.836091 276.070465 205.327180 271.140686 203.119020 C271.032013 203.557252 270.880890 203.989808 270.821869 204.434633 C270.534424 206.602082 270.557129 208.857606 269.943268 210.925538 C268.450775 215.953309 266.692688 220.903505 264.980682 225.863923 C264.580811 227.022523 264.187286 228.347871 263.363373 229.166047 C260.399872 232.108979 262.506378 234.366334 264.127258 236.746278 C265.751465 235.529542 267.947937 234.649507 268.897339 233.035768 C272.344757 227.176027 275.392365 221.079957 278.556946 215.055238 C282.582306 207.391725 286.536530 199.690675 290.590820 192.042573 C296.025787 181.789949 301.510437 171.563539 307.016937 161.349122 C307.904907 159.701966 308.690277 157.716371 310.107239 156.708284 C311.929718 155.411653 314.341980 154.944001 316.500214 154.119233 C317.223999 156.395295 319.036865 158.994569 318.474670 160.888978 C316.508362 167.514466 313.700562 173.888520 311.253387 180.373536 C308.479279 187.725007 306.407471 195.434694 302.814972 202.358003 C299.218292 209.289399 294.130524 215.448549 289.669006 221.927400 C289.207886 222.597017 288.161621 223.078065 288.059906 223.748719 C286.539581 233.774598 277.961212 239.790315 274.052887 248.458528 C273.423187 249.855104 271.997437 251.160798 270.614014 251.894471 C267.584991 253.500825 265.741272 253.997163 270.116302 257.028932 C277.867950 262.400544 284.740295 269.023133 292.270355 274.740602 C295.689545 277.336793 299.635315 279.507905 303.678406 280.884492 C305.345032 281.451936 308.359314 279.936250 309.964905 278.486695 C317.313995 271.851777 324.410156 264.934571 331.537872 258.057344 C335.354553 254.374726 338.781647 250.229310 342.904327 246.945283 C345.333893 245.009919 348.690979 243.703035 351.791443 243.274263 C356.206787 242.663575 360.831512 243.584657 365.253052 242.996339 C370.314148 242.322969 373.509796 245.727937 375.512360 251.386018 C376.871826 255.227113 377.207825 259.784791 372.797974 262.902101 C370.034943 264.855256 361.486816 264.456880 358.227051 261.851289 C357.481506 261.255281 356.758606 260.605897 355.937775 260.132936 C348.378357 255.777284 346.992920 255.892701 339.882690 262.791169 C331.890015 270.545839 324.187988 278.599946 316.201508 286.361146 C310.374908 292.023378 303.155121 294.922487 295.600189 288.400270 C290.241791 283.774324 284.104553 280.049806 278.307251 275.933778 C277.412933 275.298829 276.477051 274.722474 275.560394 274.119020 C275.428375 275.340455 274.755890 276.874665 275.252319 277.732331 C278.378082 283.132600 281.801880 288.359163 285.054138 293.687745 C289.811890 301.482911 298.229584 301.729310 305.682220 302.941102 C319.724304 305.224488 333.924713 306.578126 348.085266 308.072572 C356.782227 308.990358 365.557312 309.193177 374.241608 310.198365 C381.606628 311.050782 388.877228 312.693544 396.222717 313.758302 C397.973633 314.012086 399.860596 313.122926 401.677795 313.155885 C416.430817 313.423524 431.183533 313.733644 445.933350 314.140382 C453.631592 314.352662 461.321136 314.889772 469.019531 315.086427 C475.296204 315.246705 481.592712 315.363221 487.857086 315.042787 C492.979309 314.780702 494.309998 312.007325 491.982666 307.216676 C489.054596 301.189454 487.285645 295.296815 488.779907 288.233644 C490.149872 281.757966 488.966095 274.756746 490.209015 268.235109 C491.317810 262.417054 494.267578 256.959718 496.261383 251.292665 C496.696869 250.054780 497.091187 248.168977 496.477692 247.365358 C495.801239 246.479158 493.950317 246.239259 492.595856 246.196382 C491.412384 246.158876 490.217773 246.827790 489.010986 247.111909 C482.554474 248.632081 478.801025 246.274049 476.931549 240.346376 C474.801270 233.591676 472.530151 226.829469 469.622925 220.385072 C466.132935 212.649018 462.168976 205.093721 457.923950 197.740907 C453.936859 190.834871 449.970184 183.706727 444.697784 177.842073 C442.072144 174.921479 436.566162 173.480012 432.322876 173.395723 C426.592804 173.281862 420.730713 174.763459 415.103485 176.239808 C411.130249 177.282197 407.545135 179.720948 403.625549 181.066896 C393.338135 184.599427 385.928009 180.768922 381.904907 170.822938 C379.770355 165.545930 376.787842 160.590059 373.949677 155.625550 C371.016174 150.494386 369.322784 145.570405 371.886902 139.536958 C374.715576 132.880952 376.063232 125.557924 379.215363 119.090455 C381.265137 114.884675 384.830688 110.892579 388.690155 108.198762 C397.872314 101.789735 402.125793 104.834840 407.099609 112.759065 C409.099274 115.944947 410.657745 117.959291 415.441467 116.496614 C422.043976 114.477845 429.379456 112.598573 436.016846 113.497102 C445.260468 114.748445 453.635834 111.806276 462.418427 111.252748 C468.292938 110.882508 474.330994 111.280641 480.146698 112.239564 C488.489075 113.615052 494.565338 108.204560 501.562134 105.801332 C509.974518 102.911866 516.969849 97.353761 523.597229 91.275483 C527.315002 87.865724 531.969421 84.840242 536.733948 83.390046 C541.399109 81.970094 541.564331 79.113313 540.889526 76.027681 C538.797180 66.459932 539.546936 57.153779 543.496643 48.373506 C545.027710 44.970033 548.370911 42.297761 551.202271 39.624757 C551.874207 38.990449 554.272766 39.200441 555.033142 39.917299 C555.817383 40.656648 556.156250 42.774415 555.660767 43.783937 C554.493591 46.161683 552.221252 48.046113 551.272583 50.472779 C548.222595 58.274354 548.243652 66.512819 549.226807 74.659028 C549.461975 76.607850 551.776672 78.305726 553.134949 80.119020 C554.756592 78.557374 556.790649 77.247743 557.926575 75.389222 C562.196289 68.403566 566.773560 61.745301 573.631104 57.001191 C574.395874 56.472078 575.225647 55.673097 576.041626 55.652650 C578.174194 55.599305 580.315796 55.908296 582.453735 56.072816 C581.875122 58.015535 581.809998 60.381196 580.622864 61.822755 C576.873779 66.375062 572.571838 70.469514 568.770325 74.982484 C567.457886 76.540529 566.986267 78.806794 566.130554 80.749543 C567.774719 81.206025 569.518494 81.448762 571.044128 82.159639 C575.379761 84.179811 579.982605 85.907167 583.779419 88.701936 C586.198425 90.482576 587.371826 89.975435 588.385315 88.143464 C592.051697 81.516298 596.759888 75.115388 598.753662 67.980439 C604.140015 48.704805 608.333313 29.095781 613.000000 9.119020 M381.000000 476.619020 C381.333344 475.759217 381.864838 474.922792 381.969360 474.036012 C383.019745 465.124513 383.678986 456.154054 385.076050 447.299318 C387.113159 434.388185 389.748871 421.572816 391.978058 408.690431 C394.456604 394.367311 398.809387 380.692872 405.747589 367.899354 C409.738098 360.541078 413.895081 353.272828 418.007141 345.980958 C419.688873 342.998780 422.419922 340.860292 425.590271 342.334779 C427.566559 343.253907 429.468384 346.129884 429.839081 348.384828 C431.239532 356.903199 432.730804 365.519593 432.814789 374.112733 C432.919495 384.827028 431.907349 395.576600 430.934570 406.270570 C429.891022 417.742494 427.413086 429.152223 427.220001 440.617006 C426.944244 456.993104 425.370361 473.515992 429.076599 489.758424 C429.354797 490.977540 430.723480 491.947816 431.585175 493.033815 C432.390106 491.867494 433.718384 490.782411 433.914124 489.521547 C435.087311 481.964051 436.240540 474.388429 436.946198 466.776796 C438.141937 453.878236 438.574921 440.896730 440.135590 428.048097 C441.365326 417.923707 443.404175 407.847535 445.832458 397.933351 C448.109161 388.638063 451.145874 379.506410 454.278778 370.451783 C456.185822 364.940126 458.573517 359.518495 461.469391 354.471986 C462.333771 352.965638 465.744812 352.102357 467.805023 352.368592 C469.355652 352.568971 471.455963 354.856141 471.830170 356.543031 C472.697327 360.452455 473.139709 364.587770 472.914154 368.584108 C472.137360 382.346620 470.426666 396.078370 470.178192 409.841920 C469.972870 421.214601 471.306580 432.617311 472.066986 443.999513 C472.112274 444.677003 473.124023 445.289979 473.686035 445.932985 C474.124023 445.114564 474.890625 444.319337 474.950104 443.474244 C475.692993 432.924379 476.238892 422.360109 477.035736 411.814698 C477.507050 405.577211 477.943298 399.294740 479.074677 393.157716 C482.200012 376.204652 487.504822 360.075258 497.948456 345.985658 C500.310364 342.799195 503.822601 342.172853 506.369385 343.491273 C507.984253 344.327211 509.074371 348.709169 508.429657 350.928468 C505.964050 359.415651 505.684875 367.700868 506.805115 376.502809 C508.543060 390.158876 509.135498 403.969911 509.938690 417.731385 C510.300659 423.932862 509.956665 430.173768 510.047607 436.395143 C510.061005 437.307862 510.712708 438.211305 511.069092 439.119020 C511.700256 438.298158 512.742798 437.548219 512.898682 436.645326 C514.352600 428.223085 515.784851 419.792665 516.963135 411.328431 C518.131714 402.934327 518.759766 394.461183 520.058655 386.090028 C521.823120 374.717408 523.768555 363.360780 526.106689 352.094911 C527.132629 347.151918 529.274170 342.433229 531.014465 337.651124 C531.423584 336.526979 532.259277 335.558107 532.898804 334.517823 C531.425598 334.051576 529.915039 333.089906 528.485046 333.197389 C517.057495 334.057069 505.648163 335.155458 494.226776 336.102540 C489.040497 336.532594 483.785889 336.431459 478.658722 337.208070 C472.156464 338.193055 465.799011 340.442933 459.263641 337.204225 C458.059601 336.607545 456.289856 336.975099 454.809631 337.144899 C449.579102 337.744874 444.355774 339.020875 439.139343 338.973817 C432.744507 338.916139 426.370728 337.631410 419.966980 337.160585 C412.953064 336.644838 405.907745 336.565492 398.890167 336.088990 C390.992218 335.552797 382.988434 333.644227 375.258026 334.467408 C368.650299 335.170961 362.880493 333.980592 356.723969 332.591127 C354.174805 332.015687 351.016357 333.434144 348.394318 334.553407 C347.935425 334.749269 348.856750 337.958558 348.974274 339.786805 C349.091583 341.612306 349.102997 343.457887 348.982758 345.282960 C348.352997 354.840821 347.735626 364.400514 346.976898 373.948610 C346.428741 380.847230 345.885071 387.758729 344.949890 394.611329 C343.471466 405.444581 341.583099 416.221559 340.056854 427.048890 C339.658234 429.876771 340.176392 432.825380 339.884247 435.678712 C339.431946 440.097047 338.423279 444.462281 338.045654 448.883729 C337.230591 458.426454 336.506958 467.983583 336.080963 477.549745 C335.917419 481.222230 336.596893 484.944276 337.073639 488.620301 C337.146881 489.185182 338.202087 489.622682 338.803192 490.119020 C339.202118 489.587159 339.877930 489.094423 339.959534 488.517640 C342.011017 474.022828 343.979279 459.516114 346.009216 445.018190 C346.955505 438.259523 347.636841 431.434755 349.098846 424.785157 C350.659882 417.685121 353.208527 410.807985 354.955933 403.742006 C358.437988 389.662233 361.376740 375.442445 365.117981 361.434877 C367.094696 354.033693 370.140228 346.871217 376.112549 341.512819 C379.177277 338.763124 383.633728 339.632814 383.813782 343.537904 C384.250641 353.010621 383.767944 362.528383 383.572601 372.026307 C383.495422 375.779664 383.744751 379.655763 382.907135 383.257753 C378.847107 400.717347 378.063446 418.530702 377.120972 436.290529 C376.486023 448.254701 376.931671 460.280580 377.068359 472.276857 C377.090698 474.238038 377.983582 476.200258 378.627563 478.110231 C378.658691 478.202638 380.175201 477.794252 381.000000 476.619020 M453.000000 169.619020 C454.763733 173.382753 456.355865 177.239137 458.326904 180.890992 C462.445343 188.521486 466.925323 195.959108 470.958527 203.632722 C475.835693 212.912172 480.253265 222.436189 485.275177 231.632997 C485.996490 232.953981 489.505859 234.125184 490.834625 233.493318 C495.449982 231.298677 499.918274 228.600038 503.984467 225.493623 C509.255676 221.466584 514.160645 216.945100 519.082520 212.481324 C522.241943 209.615968 525.604675 206.794587 528.037109 203.359346 C530.401184 200.020631 531.139526 195.494844 533.620056 192.284944 C535.948608 189.271699 535.029541 187.017030 533.263367 185.080201 C531.400452 183.037233 528.915100 181.258210 526.354858 180.215211 C520.196899 177.706514 513.980835 177.071107 507.042816 177.783296 C497.330017 178.780336 487.306793 178.061891 477.553345 176.913667 C470.566132 176.091127 463.268311 174.869661 457.672791 169.475343 C456.722900 168.559571 454.587616 168.873323 453.000000 169.619020 M129.000000 318.619020 C134.752243 324.371278 140.423981 330.209230 146.352463 335.773744 C147.147415 336.519838 149.862900 336.522096 150.622452 335.778871 C153.962021 332.510987 157.285370 329.099122 159.907333 325.256837 C163.374573 320.175721 162.689987 312.611940 159.201309 309.810975 C153.944473 305.590211 148.802917 301.219484 143.432571 297.149720 C141.238480 295.487001 138.717834 293.837159 136.100876 293.220216 C121.985390 289.892152 107.795784 287.734956 93.621910 293.105226 C92.466675 293.542909 91.203003 293.696046 90.051285 294.140809 C88.473465 294.750123 86.476013 295.106996 85.488083 296.274232 C79.017700 303.918885 76.123642 312.345765 79.677956 322.426698 C81.448524 327.448487 83.374130 332.056642 88.214790 334.776063 C88.847839 335.131654 89.762634 334.985658 90.546928 335.072084 C90.364616 334.439698 90.083664 333.817628 90.016403 333.173219 C89.648613 329.649598 89.107452 326.124452 89.045944 322.592530 C88.908218 314.683717 93.546043 309.622499 101.314812 310.249147 C110.815659 311.015565 119.948067 313.732545 129.000000 318.619020 M554.000000 168.619020 C558.097900 164.187806 562.594177 160.054658 566.190002 155.247834 C570.420044 149.593110 573.864319 143.090455 571.877808 135.754914 C569.572937 127.244081 567.593750 118.870424 567.837646 109.915223 C567.988403 104.381990 566.617554 98.002900 560.457153 96.341462 C551.066040 93.808717 541.219360 89.787233 531.842102 96.807130 C529.827332 98.315400 527.977051 100.043275 526.050964 101.669984 C528.485229 101.819673 531.049805 102.538423 533.330322 102.016328 C541.386841 100.171937 546.230530 105.965303 546.848267 112.435212 C547.767151 122.059907 548.146606 131.798280 547.818298 141.456392 C547.624451 147.159700 545.726379 152.755220 541.462158 157.253389 C537.540466 161.390168 532.704041 162.039460 527.474121 162.206544 C526.297974 162.244142 525.157104 163.386079 524.000000 164.019624 C524.924500 164.719423 525.778992 165.549409 526.788086 166.091584 C528.820679 167.183656 531.168457 167.811952 532.978577 169.173463 C539.906738 174.384584 546.673157 171.682405 554.000000 168.619020 M309.000000 435.619020 C309.333313 431.757692 309.265747 427.810914 310.068146 424.049623 C313.916443 406.011598 317.481079 387.887147 322.173279 370.063661 C325.584412 357.106508 327.591614 343.336305 337.552765 332.932191 C339.016663 331.403199 338.298889 330.218080 335.750610 330.027528 C331.170197 329.684938 326.613129 328.888917 322.081268 328.085084 C318.702637 327.485841 316.830078 329.058473 316.053375 332.020448 C315.452576 334.311708 315.422913 336.746034 314.984802 339.087831 C312.787231 350.834047 310.445648 362.554078 308.338654 374.316224 C306.748718 383.191896 305.366577 392.106630 304.021301 401.023561 C302.881744 408.577028 301.919830 416.157533 300.893341 423.727906 C299.588135 433.354066 297.898132 442.950258 297.125824 452.619447 C296.504242 460.401429 297.000000 468.272767 297.000000 476.104432 C297.000000 479.103822 296.745087 482.134767 297.111145 485.088746 C297.285400 486.495179 298.641632 487.755189 299.462433 489.081483 C299.974945 487.985719 300.746857 486.937501 300.957764 485.786500 C302.294769 478.489442 303.561401 471.178346 304.748047 463.855165 C306.217773 454.784913 307.587219 445.698487 309.000000 435.619020 M86.500008 346.119020 C85.333344 344.770753 84.049400 343.505861 83.020966 342.059327 C79.219078 336.711610 75.397141 336.639405 72.044662 342.276368 C67.531372 349.865236 63.179413 357.560121 59.047520 365.362611 C55.588139 371.895265 52.469692 378.613710 49.383446 385.333924 C48.817120 386.567079 48.887505 388.256715 49.189491 389.619020 C49.273865 389.999635 51.437584 390.422914 52.305279 390.043702 C57.524677 387.762880 62.867180 385.630922 67.752060 382.744508 C78.567734 376.353456 89.467560 370.452150 101.686760 366.888002 C107.332329 365.241212 112.269005 361.139650 117.484650 358.078798 C118.044991 357.749940 118.320908 356.936464 118.728737 356.347779 C118.065865 355.938173 117.441124 355.267701 116.733513 355.164247 C113.723572 354.724366 110.689575 354.178102 107.663437 354.172487 C99.827080 354.157960 94.223495 348.779847 86.500008 346.119020 M424.500000 330.119020 C429.164734 330.119020 433.829468 330.119020 438.494202 330.119020 C444.382080 330.119020 450.284576 330.378724 456.153839 330.048097 C462.392670 329.696717 468.588867 328.412477 474.824219 328.227540 C480.668549 328.054200 486.542633 329.065431 492.397858 329.004396 C495.453918 328.972535 498.531372 327.868470 501.520782 326.983827 C502.183533 326.787721 502.515656 325.474244 503.000000 324.675294 C502.254822 324.489869 501.513275 324.159242 500.763916 324.140504 C486.242371 323.778138 471.720978 323.369752 457.196838 323.176393 C453.508331 323.127259 449.791473 324.203431 446.120514 324.036927 C436.889465 323.618470 427.685883 322.603578 418.455231 322.165712 C407.274200 321.635316 396.074921 321.501344 384.886963 321.100038 C378.524078 320.871827 372.164520 320.506532 365.810425 320.095460 C362.774353 319.899049 359.755768 319.439576 356.726959 319.121400 C347.146149 318.114930 337.568359 317.074281 327.976288 316.189088 C327.030334 316.101808 325.994263 316.991273 325.000000 317.427430 C325.895050 318.324647 326.639252 319.613588 327.719604 320.029542 C329.452179 320.696717 331.395020 320.914308 333.270844 321.093141 C337.623077 321.507753 342.159088 321.140016 346.316498 322.239320 C359.111237 325.622682 372.190979 326.283387 385.262268 327.075868 C394.440002 327.632264 403.651001 327.638551 412.828918 328.192689 C416.411652 328.408937 419.944458 329.452333 424.500000 330.119020 M628.000000 53.619020 C625.333374 46.083741 622.744934 38.519075 619.933105 31.038346 C619.379639 29.565767 617.964478 28.417085 616.946716 27.119020 C616.631104 28.396424 616.329834 29.677598 615.995850 30.950166 C615.681885 32.146394 615.259521 33.318391 615.011719 34.527070 C613.032471 44.179200 611.485718 53.943086 608.987549 63.457704 C607.242554 70.103517 604.169312 76.396547 601.800598 82.887758 C601.514526 83.671724 601.625061 85.262696 602.076660 85.506349 C602.854736 85.926027 604.291931 85.964540 605.024536 85.495057 C611.083252 81.611909 617.346130 77.957277 622.970032 73.504579 C634.195618 64.616761 633.663269 67.122194 628.007935 55.113740 C627.943909 54.977754 628.000000 54.785157 628.000000 53.619020 M419.000000 146.619020 C419.000000 151.337739 418.816162 156.067231 419.092865 160.769685 C419.199707 162.584474 419.888977 165.378541 421.114899 165.924012 C424.804779 167.565797 430.462189 164.075410 430.926941 159.960450 C431.824188 152.016114 435.882751 147.797792 443.928711 147.047761 C448.293823 146.640870 452.576080 145.408418 456.925232 144.740480 C459.164001 144.396699 461.467438 144.473787 463.741638 144.360658 C463.757629 146.850221 463.993896 149.365113 463.711975 151.820466 C463.524658 153.451783 462.596558 154.998079 462.000000 156.582429 C463.612152 156.427949 465.235077 156.340364 466.830688 156.083284 C467.402222 155.991212 467.870880 155.362519 468.449188 155.194917 C475.375153 153.187226 478.471161 148.377534 476.917786 141.515107 C476.633392 140.258790 475.393219 138.397615 474.398163 138.262758 C469.584564 137.610505 464.554962 136.536958 459.876526 137.298890 C448.103394 139.216249 436.616852 142.820344 424.449280 142.291475 C422.684418 142.214784 420.818939 144.452363 419.000000 146.619020 M409.000000 163.619020 C412.960480 154.773927 411.070160 146.928315 403.402771 141.147859 C402.772644 140.672792 400.812927 140.813020 400.430573 141.350251 C398.448669 144.134950 396.939850 147.260133 394.918091 150.010835 C394.144562 151.063264 392.441742 151.938691 391.171997 151.926118 C390.438110 151.918885 389.572205 150.047487 389.056702 148.885926 C388.747772 148.189820 389.130096 147.217530 388.963470 146.419099 C388.796692 145.620179 388.376404 144.272248 387.991150 144.245088 C387.166718 144.186952 385.892334 144.593080 385.523438 145.228029 C384.764893 146.533754 383.817627 148.265931 384.112488 149.556550 C385.528778 155.755677 386.809296 162.080018 389.196106 167.928010 C390.632843 171.448213 393.274536 174.386079 398.740051 173.361024 C404.341370 172.310456 406.592987 168.698793 409.000000 163.619020 M641.000000 120.619020 C645.459290 122.079866 648.029663 121.175813 649.189880 115.936769 C650.028381 112.150361 652.711731 108.793275 654.382629 105.157594 C654.875305 104.085450 655.220764 102.426789 654.721558 101.565706 C654.237122 100.730165 652.557861 100.129182 651.443726 100.188264 C641.076416 100.737947 630.714111 101.403993 620.360596 102.173433 C618.879211 102.283540 617.452209 103.124604 616.000000 103.627382 C616.941528 104.899446 617.617310 106.605104 618.868530 107.371949 C626.003174 111.744783 633.274841 115.893892 641.000000 120.619020 M491.500000 169.119020 C495.011597 168.785676 498.523315 168.185609 502.034790 168.186860 C506.375916 168.188417 506.523499 166.448549 504.693726 163.282838 C503.696106 161.556794 502.605621 159.802217 502.057465 157.915132 C500.778687 153.512788 499.167877 152.879976 495.073608 155.545472 C489.664703 159.066835 487.718048 158.917482 483.092712 154.749543 C482.520325 154.233735 481.702972 153.989808 480.999146 153.619874 C480.666107 154.477296 479.945892 155.393739 480.066071 156.182069 C480.626160 159.855256 478.706879 161.279542 475.528229 162.202089 C473.889679 162.677674 472.501373 164.015382 471.000000 164.963502 C472.758850 166.015321 474.435883 167.765809 476.292450 167.983216 C481.153107 168.552522 486.092194 168.452333 491.500000 169.119020 M462.500000 121.119020 C455.619446 122.119020 448.726501 123.044526 441.868805 124.182374 C440.509827 124.407808 438.408508 125.221772 438.167145 126.156282 C437.485687 128.794740 443.424835 132.936219 446.259186 132.413606 C454.379089 130.916352 462.358124 128.060579 470.876251 130.010621 C472.346649 130.347200 474.142975 129.259889 475.788727 128.830293 C474.994202 127.228242 474.395935 125.477601 473.335327 124.077028 C472.642151 123.161714 471.350098 122.467622 470.199951 122.180482 C468.014496 121.634950 465.738434 121.452333 462.500000 121.119020 M398.500000 125.119020 C399.000000 122.833253 399.739166 120.564729 399.905548 118.254914 C399.997620 116.977235 399.420227 114.782563 398.628357 114.511964 C397.417114 114.098024 395.434784 114.564759 394.345032 115.397401 C387.956635 120.278840 382.620728 125.956971 382.030792 134.581300 C381.952545 135.725129 382.291779 136.897523 382.437653 138.056672 C383.625092 137.484895 385.482086 137.207551 385.885284 136.290834 C387.732147 132.091798 390.889923 129.656770 395.023743 128.059114 C396.160400 127.619844 397.015625 126.452333 398.500000 125.119020 M262.000000 270.619020 C262.000000 268.791291 262.234497 266.922670 261.925385 265.148805 C261.680756 263.745240 260.768890 262.457948 260.153290 261.119020 C259.435516 262.355714 258.294434 263.521333 258.072815 264.841371 C257.080780 270.750123 255.299713 275.977510 250.605438 280.303041 C248.008850 282.695680 246.578873 286.516023 245.148438 289.914003 C244.719849 290.932130 246.063965 292.696534 246.595932 294.119020 C247.730621 293.103944 249.076660 292.242128 249.949753 291.037416 C251.212433 289.295228 251.730194 286.836244 253.275299 285.509187 C257.676025 281.729676 260.355255 277.041383 262.000000 270.619020 M427.500000 127.119020 C423.600006 129.349275 420.356628 127.346589 416.964691 125.639863 C413.769104 124.031892 411.367126 125.890199 409.533295 128.212922 C408.635529 129.349977 407.652954 131.716493 408.178131 132.403840 C409.191528 133.730073 411.238007 134.960603 412.873871 134.983766 C417.276550 135.046235 421.717102 134.650392 426.082611 134.020478 C427.803711 133.772157 429.365631 132.420472 431.000000 131.571168 C430.166656 130.087129 429.333344 128.603059 427.500000 127.119020 M489.000000 125.619020 C490.002289 126.785676 490.786438 128.506746 492.051849 129.004701 C494.763214 130.071504 497.715790 130.539460 500.585052 131.183809 C501.694000 131.432832 503.518097 131.986695 503.841644 131.543702 C504.599731 130.505708 505.073822 128.886964 504.887695 127.617006 C504.580536 125.521272 503.223663 123.542176 503.095764 121.465516 C502.865204 117.722108 500.577881 117.270478 498.228363 118.573213 C495.077698 120.320161 492.387756 122.897950 489.000000 125.619020 M269.000000 295.619020 C273.282776 297.395143 278.291168 298.155824 279.976135 303.557130 C280.107269 303.977357 280.651825 304.570192 281.001373 304.568238 C282.466675 304.560060 283.930878 304.355836 285.395477 304.223512 C284.861145 303.286134 284.509979 302.157411 283.762848 301.442323 C278.704376 296.601442 273.611633 291.792543 268.389252 287.131013 C267.676666 286.494966 265.972748 286.298372 265.115753 286.708650 C264.435883 287.034120 263.752594 288.962007 264.108582 289.549073 C265.325256 291.555604 267.000000 293.284303 269.000000 295.619020 M276.000000 179.619020 C275.775940 181.509736 275.467377 183.395814 275.363953 185.293092 C275.313202 186.224366 275.642853 187.176393 275.800354 188.119020 C276.200256 187.429536 276.688385 186.775880 276.985626 186.044679 C278.883514 181.375917 280.770905 176.702241 282.580475 171.998903 C282.911530 171.138368 283.148560 170.058229 282.919403 169.218568 C282.702454 168.423646 281.815735 167.811525 281.223602 167.119020 C280.815735 167.800538 280.289520 168.438569 280.020325 169.171052 C278.807068 172.472413 277.666687 175.800538 276.000000 179.619020 M147.500000 281.119020 C147.913971 280.532991 148.327927 279.946962 148.741898 279.360933 C144.409897 276.613618 140.111176 273.809846 135.693512 271.207917 C135.260193 270.952699 134.096130 271.938142 133.271255 272.347749 C133.676468 272.933778 133.951584 273.734559 134.507721 274.071443 C138.472992 276.473695 142.495605 278.781343 147.500000 281.119020 M290.500000 308.119020 C290.333313 308.382325 290.166656 308.645692 290.000000 308.908998 C295.152618 310.979005 300.295868 313.073610 305.485168 315.047059 C305.746582 315.146424 306.406128 314.198854 306.880280 313.738771 C306.352844 313.198854 305.917236 312.363466 305.283234 312.166322 C300.711365 310.744752 296.099304 309.452333 290.500000 308.119020 M530.500000 258.119050 C529.000000 258.219880 527.500000 258.320710 526.000000 258.421540 C526.863403 261.684053 527.684448 264.959748 528.686157 268.179231 C528.752136 268.391359 530.898376 268.198884 530.899902 268.153871 C531.009949 264.978242 531.000000 261.798463 530.500000 258.119050 M160.000015 298.619020 C160.929993 299.355653 161.859970 300.092347 162.789932 300.829042 C163.193283 299.352113 163.901993 297.874635 163.899139 296.398500 C163.897018 295.304445 162.970016 294.212098 162.455048 293.119020 C161.780563 293.475160 160.732239 293.678956 160.511749 294.220094 C160.091553 295.251344 160.143860 296.475160 160.000015 298.619020 M114.500000 332.119020 C115.859253 332.093141 117.451897 332.473939 118.485619 331.880677 C119.057236 331.552674 119.072227 329.421266 118.622208 328.426820 C118.299194 327.713075 116.790596 327.535707 115.810913 327.119020 C115.207283 328.619020 114.603645 330.119020 114.500000 332.119020 M524.500000 150.119020 C523.816223 149.802766 523.132446 149.486543 522.448669 149.170320 C522.299072 149.937288 521.794800 151.200013 522.058838 151.389009 C523.531372 152.442750 525.140259 153.356019 526.812805 154.052217 C527.375366 154.286317 528.261658 153.742585 529.000000 153.554383 C527.833313 152.409272 526.666687 151.264131 524.500000 150.119020 M539.000000 309.619020 C538.528198 308.785707 538.056396 307.952333 537.584534 307.119020 C536.723022 307.704408 535.861511 308.289735 535.000000 308.875123 C536.166687 309.289735 537.333313 309.704347 539.000000 309.619020 M488.999969 141.619020 C488.800781 142.419801 488.601562 143.220582 488.402374 144.021394 C488.934906 143.839387 489.914001 143.672975 489.920990 143.472627 C489.948212 142.693940 489.666656 141.904481 488.999969 141.619020 z"
     id="path3" /><path
     class="selected"
     fill="#000000"
     opacity="1.000000"
     stroke="none"
     d=" M238.000000 304.119020 C242.877258 302.373719 244.867783 303.365419 244.858368 308.653810 C244.846054 315.567018 243.779358 322.475282 243.248810 329.392091 C243.047699 332.013856 243.226608 334.667848 242.974670 337.282350 C241.696320 350.549562 240.376816 363.813112 238.984650 377.068849 C238.065872 385.817079 237.221405 394.582521 235.943298 403.281434 C234.384659 413.889711 232.569260 424.467714 230.547745 434.997865 C229.347504 441.249940 227.618668 447.407167 225.933243 453.553834 C225.580200 454.841249 224.375153 455.894960 223.562698 457.056337 C223.041794 455.815980 222.086700 454.580140 222.073700 453.334474 C222.011078 447.329652 222.023621 441.311891 222.368301 435.319337 C222.585739 431.539125 223.485580 427.802064 223.989120 424.033570 C224.980865 416.611573 227.053619 409.096132 226.509903 401.780580 C226.059265 395.717286 229.657135 391.679322 230.549591 386.705568 C231.878891 379.297364 231.008011 371.511720 231.349518 363.899049 C231.463272 361.363404 232.737762 358.891114 232.944763 356.346193 C233.747208 346.480775 234.375595 336.600465 234.985748 326.720521 C235.421661 319.661744 235.698059 312.593019 236.145004 305.535096 C236.176590 305.036439 237.029190 304.589845 238.000000 304.119020 z"
     id="path4" /><path
     class="selected"
     fill="#000000"
     opacity="1.000000"
     stroke="none"
     d=" M65.000000 299.119020 C55.578674 296.352784 55.265594 288.464814 54.073650 281.246614 C53.620510 278.502473 53.722218 275.580781 54.120300 272.819185 C54.311760 271.490968 55.559177 269.633790 56.716751 269.277345 C58.713932 268.662385 60.712696 268.863862 61.108131 272.119691 C61.688354 276.896943 62.805035 281.639344 64.090591 286.286653 C64.648331 288.302827 65.929726 290.283754 67.347252 291.863649 C70.522644 295.402650 69.385704 297.534852 65.000000 299.119020 z"
     id="path5" /><path
     class="selected"
     fill="#000000"
     opacity="1.000000"
     stroke="none"
     d=" M407.750000 482.869020 C406.666656 483.009217 405.833344 482.899415 405.000000 482.789613 C405.333313 481.116945 405.594421 479.423585 406.062744 477.789613 C406.153198 477.474061 407.382263 477.094606 407.524811 477.252259 C408.131500 477.923036 408.878113 478.770387 408.910706 479.579957 C408.950958 480.579103 408.333313 481.604799 407.750000 482.869020 z"
     id="path6" /><path
     class="selected"
     fill="#000000"
     opacity="1.000000"
     stroke="none"
     d=" M278.750000 256.869020 C277.666656 257.170411 276.833344 257.221772 276.000000 257.273164 C276.422882 255.632203 276.845795 253.991273 277.268707 252.350312 C277.845825 253.112794 278.554871 253.813325 278.952423 254.660127 C279.206482 255.201234 279.000000 255.958619 278.750000 256.869020 z"
     id="path7" /><path
     class="selected"
     fill="#000000"
     opacity="1.000000"
     stroke="none"
     d=" M215.750000 242.869020 C215.000000 242.393434 214.500000 241.667817 214.000000 240.942231 C215.273453 240.667817 216.538116 240.303590 217.826096 240.177430 C218.181717 240.142549 218.606796 240.816957 219.000000 241.165925 C218.000000 241.650300 217.000000 242.134675 215.750000 242.869020 z"
     id="path8" /><path
     class="selected"
     fill="#000000"
     opacity="1.000000"
     stroke="none"
     d=" M279.250000 322.369020 C280.594299 321.880006 281.688568 321.640931 282.782837 321.401857 C282.826202 321.836610 282.869537 322.271424 282.912872 322.706178 C281.608582 322.677125 280.304291 322.648072 279.250000 322.369020 z"
     id="path9" /></svg>
