<?xml version="1.0" encoding="UTF-8" standalone="no"?>
<svg
   version="1.1"
   id="Contours"
   x="0px"
   y="0px"
   width="982.884583px"
   height="982.884583px"
   viewBox="0.000000 0.000000 982.884583 1282.658936"
   enable-background="new 0 0 982.884583 982.884583"
   xml:space="preserve"
   stroke="black"
   fill="none"
   stroke-linecap="round"
   stroke-linejoin="round"
   sodipodi:docname="graph.svg"
   inkscape:version="1.3 (0e150ed6c4, 2023-07-21)"
   xmlns:inkscape="http://www.inkscape.org/namespaces/inkscape"
   xmlns:sodipodi="http://sodipodi.sourceforge.net/DTD/sodipodi-0.dtd"
   xmlns="http://www.w3.org/2000/svg"
   xmlns:svg="http://www.w3.org/2000/svg"><defs
     id="defs44" /><sodipodi:namedview
     id="namedview44"
     pagecolor="#ffffff"
     bordercolor="#000000"
     borderopacity="0.25"
     inkscape:showpageshadow="2"
     inkscape:pageopacity="0.0"
     inkscape:pagecheckerboard="0"
     inkscape:deskcolor="#d1d1d1"
     inkscape:zoom="0.82715714"
     inkscape:cx="490.83781"
     inkscape:cy="692.12967"
     inkscape:window-width="1920"
     inkscape:window-height="1009"
     inkscape:window-x="-8"
     inkscape:window-y="-8"
     inkscape:window-maximized="1"
     inkscape:current-layer="Contours" /><path
     class="selected"
     fill="#000000"
     opacity="1.000000"
     stroke="none"
     d=" M598.000015 402.804214 C594.354813 401.024063 591.968521 398.882309 591.414932 394.873459 C591.115860 392.707657 589.766800 390.447830 588.307999 388.724258 C583.061783 382.526046 577.662918 376.448898 572.127151 370.507278 C569.242142 367.410690 566.097122 364.504104 562.758560 361.912246 C561.669510 361.066787 559.544266 361.145431 557.983231 361.386398 C549.091446 362.759170 537.647659 360.114090 532.403091 350.195022 C528.466263 342.749374 526.581314 335.256515 526.187454 327.302230 C525.967667 322.861648 527.773392 318.344619 528.398697 313.825027 C528.609940 312.297622 527.998428 310.656387 527.762955 309.067154 C526.841995 310.176986 525.740311 311.182907 525.031693 312.414871 C522.159744 317.407333 517.146927 320.709945 512.617813 319.724472 C507.754593 318.666214 505.165115 315.416336 504.832779 310.223922 C504.655838 307.458847 503.721390 304.724594 502.974930 302.018905 C502.318802 299.640670 501.448135 297.321609 500.672195 294.976425 C498.473526 296.393631 495.564163 297.323990 494.201187 299.313644 C488.765335 307.249038 482.388138 314.379348 479.626724 324.292495 C477.320267 332.572342 475.630997 341.744247 468.353531 348.133407 C464.916824 351.150680 460.940811 351.710922 457.538712 350.472763 C454.321487 349.301834 452.381973 345.658767 452.990128 341.582107 C453.063126 341.093002 453.076675 340.569320 452.986649 340.086136 C452.612991 338.081558 452.188980 336.086349 451.783524 334.087722 C450.251541 335.764084 448.522964 337.304367 447.242264 339.154647 C445.934402 341.044143 444.864395 343.161239 444.046402 345.314041 C442.152603 350.298019 437.981277 349.970382 433.967850 349.673324 C433.247025 349.619949 432.637222 347.867202 432.005386 346.880386 C431.572952 346.205093 431.191238 345.497390 430.786758 344.804214 C430.191177 345.501449 429.273636 346.108169 429.048264 346.909561 C425.645370 359.008896 422.582748 371.210586 418.885239 383.217300 C417.257736 388.502212 415.409195 394.516983 408.155930 394.672470 C406.737534 394.702896 404.795120 393.367111 403.925003 392.093856 C398.876694 384.707107 398.367661 375.956588 397.010910 367.483078 C396.282852 362.935867 395.501083 358.385910 395.081985 353.806198 C394.915817 351.990036 395.987991 350.082718 395.946152 348.229324 C395.728409 338.584030 394.815536 328.924942 395.147018 319.305191 C395.472427 309.863113 397.112961 300.472458 397.944748 291.038803 C398.280136 287.235153 398.022049 283.376968 397.976028 279.544296 C397.969223 278.974807 397.641708 278.409134 397.462540 277.841690 C396.991165 278.313125 396.228256 278.714431 396.095383 279.267196 C395.181137 283.070541 394.555313 286.947616 393.543716 290.722427 C390.773056 301.061660 387.644455 311.309066 385.059830 321.692947 C382.454880 332.158462 380.495346 342.783615 377.953568 353.266220 C375.501266 363.379928 373.458603 373.703384 369.765762 383.373275 C366.416641 392.143112 362.145523 400.877975 354.320663 406.957107 C350.810898 409.683853 343.238937 407.492752 342.170517 402.891800 C341.069626 398.151077 341.099533 393.089889 341.174393 388.177169 C341.191757 387.035751 343.396011 385.927627 344.594009 384.804214 C345.396011 385.961715 346.496567 387.016464 346.937637 388.298172 C347.845596 390.936538 348.181656 393.786300 349.234879 396.351211 C349.552658 397.125045 352.391068 397.785263 352.503769 397.590103 C359.028824 386.292617 364.123520 374.409134 367.021042 361.622451 C370.262894 347.316269 373.259811 332.936020 377.109909 318.791214 C381.292130 303.426193 386.230209 288.262100 391.075089 273.085830 C392.236313 269.448318 393.955307 265.843429 396.143539 262.734359 C397.431198 260.904800 400.147293 260.080612 402.220901 258.804214 C403.480606 261.061172 405.777634 263.301376 405.814407 265.578079 C405.949387 273.932174 405.196640 282.295639 405.027084 290.660629 C404.610977 311.186905 403.848221 331.724350 404.201950 352.240463 C404.382462 362.707718 406.655502 373.140152 408.038223 383.581009 C408.097275 384.026687 408.716446 384.398178 409.074661 384.804214 C409.383102 384.348343 409.819382 383.933578 409.981064 383.430587 C413.006851 374.015182 416.028183 364.598159 418.991501 355.162918 C421.540115 347.048080 423.953537 338.890243 426.564896 330.796005 C427.221451 328.760910 427.935532 326.023819 429.477859 325.189743 C431.150772 324.285049 434.476273 324.434890 435.869400 325.588333 C437.208572 326.697097 437.264175 329.661605 437.397598 331.840469 C437.548965 334.313369 437.160477 336.819290 437.006729 339.310867 C438.420792 337.225631 439.875015 335.166183 441.240372 333.049484 C443.702591 329.232223 445.202774 324.277664 450.748550 323.846786 C459.451614 323.170547 463.402237 330.814163 461.703140 337.642166 C461.380508 338.938614 461.483658 340.341018 461.390396 341.694534 C462.430740 340.727249 463.933914 339.954422 464.435501 338.760727 C467.417618 331.663803 469.811966 324.300857 473.100479 317.357254 C476.147293 310.923904 479.874710 304.782364 483.683914 298.753372 C485.571182 295.766342 488.252274 293.261764 490.688309 290.645034 C494.290726 286.775345 498.557327 284.577774 503.970169 286.299240 C510.297318 288.311477 512.435623 293.322708 512.999832 299.370468 C513.134537 300.815048 513.062149 302.317886 513.451492 303.689987 C513.950699 305.449691 514.820389 307.104324 515.530411 308.804214 C516.567825 307.423355 517.634415 306.063278 518.636795 304.657394 C520.968765 301.386795 526.736221 300.614639 529.879166 303.196335 C530.391861 303.617416 530.755325 304.418441 531.310440 304.558975 C536.714798 305.927230 538.852188 309.282028 539.824051 314.867752 C541.089981 322.143783 543.251785 322.925583 551.657913 323.811111 C556.117813 324.280929 561.381241 323.473465 564.877823 325.576767 C576.533035 332.587875 577.936905 333.742019 574.838394 347.160782 C573.225113 354.147262 573.946426 359.730331 579.272781 364.609909 C581.605423 366.746872 583.545853 369.373397 586.072586 371.218612 C588.269180 372.822677 591.023270 373.679886 593.569473 374.777969 C594.274002 375.081833 595.309769 374.813461 595.865067 375.237594 C602.422806 380.245926 609.685013 379.193008 616.984940 377.796737 C623.772476 376.498520 630.516251 374.935928 637.338028 373.862899 C643.717667 372.859390 648.101822 368.594925 651.753983 364.236892 C657.914444 356.885757 662.896805 348.558700 668.573868 340.787613 C673.151688 334.521133 668.432877 329.488235 666.692886 324.062149 C666.324417 322.913131 665.185989 322.034164 664.644241 320.913833 C661.394241 314.193039 655.586929 317.305099 651.105850 318.022140 C644.725784 319.043014 639.156448 317.268783 633.279312 315.721176 C629.608719 314.754623 625.656021 314.872665 621.833939 314.465530 C616.820694 313.931564 611.772781 313.589157 606.808853 312.753860 C597.969376 311.266403 589.070816 309.892563 580.421158 307.618637 C576.360794 306.551193 572.653641 303.743515 569.097549 301.276138 C566.079910 299.182388 565.758743 295.876297 568.200333 293.228103 C573.128250 287.883224 578.362381 282.813736 583.589737 277.754165 C587.952652 273.531265 591.972733 268.636917 597.061844 265.554245 C605.144608 260.658249 610.863174 252.553421 620.437149 249.600967 C625.501846 248.039047 629.959671 244.447067 634.595657 241.614730 C635.435135 241.101791 636.004654 239.898025 636.366165 238.893478 C638.187332 233.832473 641.887833 230.833908 646.973892 229.895248 C650.437759 229.255966 650.930313 227.311050 651.041397 224.384475 C651.506546 212.125045 656.455399 201.737838 665.242813 193.383835 C666.610489 192.083603 671.039505 191.916641 672.342789 193.103531 C674.536758 195.101577 671.625626 196.898178 670.307632 198.902877 C666.812637 204.219009 663.571304 209.824569 661.204056 215.707351 C660.029922 218.625259 660.926407 222.409042 661.063614 225.793869 C661.090286 226.450637 661.939163 227.074081 662.408707 227.712906 C662.605850 227.022110 662.824112 226.336593 662.996719 225.639724 C664.427078 219.863693 666.319534 214.578659 673.174271 213.062912 C676.776810 212.266311 679.419754 213.752517 680.872147 216.478805 C682.445267 219.431778 679.490616 220.627731 677.421768 221.790786 C671.407730 225.171798 670.785172 232.544052 677.079361 236.091812 C684.250870 240.134018 687.738663 246.091903 689.153152 253.544937 C691.041641 263.495773 692.692886 273.514084 693.806168 283.574264 C694.094925 286.184036 692.256607 289.186325 690.951736 291.785629 C687.118973 299.420059 684.578262 307.879745 678.211624 313.975967 C674.590347 317.443435 677.297318 320.649429 678.231827 323.695938 C678.575272 324.815811 681.532730 325.215988 683.349319 325.778457 C685.132889 326.330673 687.082108 326.461715 688.733414 327.249557 C689.162308 327.454208 689.067764 329.557846 688.646744 330.548263 C688.057877 331.933456 686.937332 333.092636 686.044327 334.348495 C687.900467 335.500412 689.653580 337.349258 691.636612 337.642196 C694.672440 338.090652 697.919815 337.020797 700.983170 337.385971 C708.530838 338.285659 716.029129 339.609146 723.538895 340.814682 C727.645218 341.473831 729.853104 339.311081 731.432449 335.893600 C735.247391 327.638565 739.178299 319.437027 742.979080 311.175583 C744.327469 308.244552 746.230728 306.033889 749.632889 306.939712 C750.963760 307.294052 753.056107 309.539444 752.816788 310.293502 C750.768204 316.747146 748.264847 323.056472 745.895035 329.408065 C745.462051 330.568527 745.017838 331.724868 744.578873 332.883133 C745.952652 332.790115 747.418655 332.966659 748.676895 332.536148 C750.264786 331.992782 751.601700 330.714920 753.189896 330.173355 C758.351151 328.413376 761.126663 326.064132 760.259476 319.508346 C759.165726 311.239334 764.143143 307.203018 772.559402 306.662643 C775.669632 306.462936 778.660660 304.603775 781.733353 303.583572 C788.621597 301.296524 795.496719 297.327133 802.432327 297.206283 C813.113907 297.020126 820.987808 303.416244 824.932266 313.662735 C826.043228 316.548782 826.745132 319.725967 826.931595 322.812027 C827.957230 339.790176 825.427994 356.311966 819.989822 372.403335 C819.398636 374.152664 818.760208 375.898086 817.979568 377.568618 C816.546280 380.635788 816.818863 382.927627 819.172928 385.843246 C821.051712 388.170242 821.292435 391.919052 821.970535 395.098556 C824.585953 407.362808 827.044937 419.660354 829.641739 431.928604 C831.357742 440.035720 833.144974 448.129104 835.015518 456.201858 C837.620621 467.444534 840.384781 478.650283 842.982132 489.894729 C844.742508 497.515762 846.231339 505.200027 848.024307 512.813003 C850.595596 523.730545 853.487259 534.574234 855.945572 545.516128 C857.566788 552.732315 858.487076 560.104446 860.053299 567.334793 C861.467789 573.865493 863.400528 580.282180 864.983353 586.778701 C867.051346 595.266739 868.977188 603.789261 871.005264 612.287185 C874.044937 625.024124 877.017532 637.778457 880.222000 650.474014 C881.927078 657.229507 884.099930 663.865799 885.991470 670.575637 C889.736588 683.861038 893.584305 697.121292 897.016251 710.487808 C897.669754 713.032974 897.432693 717.881118 896.165298 718.448684 C892.637589 720.028579 889.161514 718.295547 887.861771 714.138260 C885.506912 706.606338 883.166519 699.065994 881.051102 691.464859 C880.084366 687.991287 879.902725 684.294571 878.874100 680.845413 C878.505569 679.610000 876.849747 678.304763 875.513687 677.886367 C867.532425 675.387100 859.483170 673.101333 851.435684 670.818435 C846.952286 669.546646 842.391068 668.540420 837.935440 667.182876 C835.054214 666.305008 833.499344 667.321121 834.075638 670.069839 C836.189957 680.154678 838.546585 690.190506 840.939041 700.214492 C842.451309 706.550918 840.239944 710.638137 835.196243 709.603470 C833.226089 709.199234 830.538712 706.756973 830.193863 704.873733 C828.135757 693.636184 826.751724 682.277176 824.960648 670.987625 C824.175552 666.039383 822.858963 661.177749 821.967606 656.243545 C820.563370 648.471145 819.338150 640.666641 817.994644 632.883072 C815.793900 620.133194 813.532242 607.393753 811.347855 594.641128 C809.853165 585.915420 808.514603 577.162674 806.981094 568.444046 C805.399673 559.453018 803.685196 550.485183 801.995255 541.513565 C800.015823 531.005081 798.340897 520.423904 795.910049 510.019973 C793.139236 498.160965 790.986099 486.294449 790.902420 474.071914 C790.888016 471.978225 789.592422 469.893203 788.888565 467.804214 C788.261429 469.301834 787.328201 470.745803 787.054520 472.305435 C784.386063 487.510086 779.192459 501.949478 774.026749 516.417373 C765.419632 540.523636 756.974747 564.687881 748.475296 588.832473 C743.303604 603.524002 738.169876 618.228836 732.996170 632.919632 C728.745071 644.990493 724.198074 656.964737 720.262650 669.137161 C716.167618 681.803238 712.593948 694.640091 708.960037 707.449905 C708.586258 708.767410 708.899490 710.732376 709.681351 711.841934 C712.217789 715.441421 711.393387 717.649063 707.137039 718.910049 C705.573990 719.373184 703.809402 720.768570 703.100113 722.211990 C700.522537 727.457901 698.557022 733.009170 695.888138 738.202346 C695.206497 739.528824 692.629471 740.811355 691.209244 740.551407 C689.935196 740.318191 687.986160 737.759720 688.189163 736.534317 C688.972488 731.808059 689.973953 726.972244 691.901871 722.624099 C693.684097 718.604629 691.765335 717.001907 688.803055 716.929336 C676.586929 716.630447 664.356216 716.953506 652.137527 716.711258 C648.571976 716.640640 644.764969 716.049209 641.543900 714.623123 C637.809280 712.969680 636.351639 714.247574 634.895889 717.344192 C633.448624 720.422378 631.152603 723.176773 630.140030 726.362808 C629.143387 729.498855 626.829239 729.235611 625.179459 728.613235 C623.793106 728.090164 622.091202 725.835708 622.184464 724.459854 C622.424332 720.917007 622.738358 716.891861 624.567764 714.056167 C627.441605 709.601455 629.355362 705.131607 630.528275 699.953506 C632.197403 692.585403 634.640884 685.365249 637.151260 678.221573 C641.084183 667.029739 645.537552 656.019851 649.421158 644.811905 C653.314651 633.575454 656.663589 622.151382 660.462723 610.880813 C665.290909 596.557266 670.248184 582.275711 675.309158 568.032608 C679.074966 557.434463 682.879410 546.840469 687.052872 536.399002 C692.595535 522.531814 698.657486 508.872512 704.222855 495.013992 C708.240799 485.008804 712.077530 474.912796 715.486649 464.687881 C717.600601 458.347549 715.283524 451.999893 713.515640 445.913406 C710.585953 435.826858 707.526871 425.748672 703.808609 415.937393 C702.614822 412.787491 699.334793 410.315994 696.719742 407.839798 C690.846756 402.278732 685.458450 396.961319 684.715347 387.845077 C684.148392 380.890274 680.990616 374.148605 679.003738 367.306808 C677.923050 363.585281 677.044083 359.793777 675.733780 356.156448 C675.264481 354.853714 673.834793 353.074875 672.771927 353.024612 C671.556168 352.967117 669.977493 354.364456 669.046097 355.523239 C663.137955 362.873611 657.920853 370.885849 651.314713 377.524307 C647.985672 380.869522 642.387772 382.575271 637.514786 383.624191 C629.740860 385.297561 621.691116 385.645126 613.807144 386.869980 C609.730484 387.503372 609.001968 390.276931 611.895584 393.180771 C624.462906 405.792282 637.029068 418.405533 649.698380 430.914138 C651.340530 432.535293 653.743790 433.363296 655.503799 434.893081 C657.938919 437.009720 660.546707 439.472793 658.163956 443.056533 C655.842911 446.547256 652.327896 446.559951 648.928360 443.198074 C639.824051 434.194839 630.851761 425.057998 621.726517 416.076248 C617.756424 412.168655 613.744278 408.243118 609.328384 404.881088 C607.719925 403.656479 604.878433 404.074661 602.609512 403.685440 C601.229874 403.448806 599.869217 403.101730 598.000015 402.804214 M650.000015 239.304214 C649.766800 239.070968 649.571609 238.709945 649.293594 238.627121 C648.212479 238.304886 647.113907 237.969741 646.001358 237.871780 C645.704971 237.845718 645.335770 238.647262 645.000015 239.068863 C646.006973 239.313980 647.004837 239.613998 648.024307 239.784225 C648.666031 239.891372 649.340347 239.804214 650.000015 240.304214 C648.150833 242.137558 646.456070 244.174514 644.399307 245.734268 C642.973099 246.815872 640.649918 246.832626 639.420731 248.034225 C635.700394 251.670913 631.964188 255.390182 628.870438 259.550430 C619.933548 271.568191 616.195755 293.732193 635.563919 305.050338 C640.920303 308.180465 645.800125 310.275833 652.217484 308.910995 C665.488785 306.088424 674.760086 291.476089 671.204666 278.461990 C669.275528 271.400833 667.907974 264.185470 665.952103 257.132522 C663.619156 248.719772 658.733170 242.434311 650.000015 239.304214 M713.000076 661.304214 C713.508255 659.812393 714.016434 658.320572 714.524551 656.828689 C712.804764 656.820511 711.085037 656.810745 709.365250 656.804886 C708.365616 656.801468 707.363419 656.850723 706.366653 656.797195 C694.146622 656.141372 681.927567 655.465774 669.707413 654.812515 C668.544449 654.750320 667.069534 655.252823 666.273270 654.710037 C664.655533 653.607437 662.478165 652.131668 662.194046 650.517166 C661.616898 647.236831 664.599564 647.761551 666.628616 647.826858 C675.322525 648.106887 684.023270 648.316116 692.702774 648.853958 C699.439651 649.271499 706.170303 649.978286 712.859146 650.885208 C715.414383 651.231704 717.121231 651.485183 718.059891 648.404739 C720.082718 641.766616 722.316116 635.185806 724.675919 628.658401 C732.271011 607.649307 739.909500 586.655533 747.636490 565.694656 C752.323868 552.979507 757.216385 540.340164 761.981277 527.653457 C762.401810 526.533828 762.559158 525.315445 762.838699 524.142898 C761.700943 524.388137 760.570511 524.676101 759.424149 524.870987 C755.528275 525.533157 751.483841 527.123367 747.762283 526.569839 C742.691483 525.815689 738.390762 527.112014 733.733719 528.374221 C730.312698 529.301468 726.333572 530.050064 723.211868 526.814102 C720.242264 523.735794 716.463882 523.510757 712.465042 523.733352 C710.794144 523.826370 709.088028 522.917190 707.383316 522.853164 C704.451736 522.743240 701.931534 522.130447 700.445572 526.581558 C696.208450 539.273880 690.868362 551.593216 686.207962 564.150467 C682.292801 574.699478 678.590225 585.332595 675.048721 596.013076 C672.856583 602.624160 671.361038 609.466446 669.162491 616.075149 C665.610794 626.751236 661.565811 637.263626 658.038834 647.947464 C652.229141 665.546035 646.983719 683.338211 640.812210 700.805679 C638.890274 706.245376 641.750504 706.536819 645.033157 706.726333 C654.602737 707.278824 664.195206 707.423965 673.774796 707.821914 C679.472061 708.058609 685.161575 708.477005 690.855301 708.802078 C694.639664 709.018142 697.913162 709.221450 699.143082 704.022476 C700.916580 696.526138 703.573990 689.229751 706.027542 681.906082 C708.230179 675.331436 710.666702 668.835098 713.000076 661.304214 M848.000076 552.304214 C845.333389 542.243972 842.548172 532.213333 840.027786 522.116592 C836.254227 506.999649 832.565811 491.859695 829.036942 476.683975 C826.838089 467.227920 825.034073 457.680679 822.989273 448.188003 C821.376602 440.702102 819.543533 433.262039 818.031876 425.756546 C816.229996 416.809890 814.673294 407.813919 812.977005 398.845688 C812.905167 398.465927 812.496475 398.149917 812.244644 397.804245 C811.829788 398.153488 811.113663 398.454300 811.048416 398.859787 C810.592667 401.693435 810.726395 404.702438 809.825211 407.369339 C806.619278 416.856033 802.833145 426.149917 799.746353 435.672317 C797.734512 441.878555 795.313431 448.354568 795.316666 454.708633 C795.320633 462.488235 797.752823 470.253250 798.969437 478.050369 C799.764053 483.143875 801.910965 487.498794 807.077469 488.660843 C812.825638 489.953628 818.857193 489.935745 824.692520 490.920242 C826.579971 491.238723 828.237381 492.920791 830.000015 493.979019 C828.620804 495.254104 827.298294 497.547012 825.852554 497.627456 C819.683182 497.971023 813.422073 498.127273 807.306961 497.402481 C803.991837 497.009536 801.893753 495.955764 802.972244 500.662796 C803.779678 504.186783 804.264664 507.783462 805.012833 511.322464 C807.310989 522.193679 809.689041 533.048172 811.987137 543.919449 C812.735367 547.458389 813.411087 551.016678 813.983658 554.587967 C815.163162 561.944473 816.078568 569.347244 817.419998 576.672866 C819.114517 585.926834 821.217545 595.105423 822.971756 604.349258 C824.443008 612.102005 825.677505 619.899978 826.997025 627.681228 C828.344009 635.624527 829.984940 643.536758 830.866776 651.532119 C831.313187 655.579788 832.847000 656.636123 836.668045 656.906814 C846.439713 657.599075 856.224686 658.471267 865.908401 659.915054 C872.988785 660.970657 872.848038 661.444473 871.020828 654.241470 C869.257889 647.291580 867.281570 640.361343 866.122147 633.303604 C865.199478 627.687759 865.138199 627.528091 859.640518 627.714431 C850.096817 628.037735 840.533890 627.762771 830.979568 627.823867 C826.936417 627.849685 828.507706 624.017349 827.000015 622.321182 C828.453384 621.482193 829.913834 619.912429 831.359024 619.926284 C839.054825 620.000259 846.744156 620.567581 854.440872 620.772720 C860.248306 620.927444 861.901321 619.444900 860.903458 613.920242 C859.153091 604.228653 856.892532 594.625137 854.685501 585.021499 C852.780411 576.732071 849.199417 568.812881 849.876114 559.964431 C850.041275 557.804824 848.666702 555.527420 848.000076 552.304214 M789.000015 441.304214 C789.236038 441.068191 789.600296 440.872879 789.689774 440.590408 C795.474075 422.319412 801.239517 404.042556 806.991898 385.761490 C807.357986 384.598251 807.736404 383.414383 807.886368 382.212326 C808.293777 378.945419 808.298050 375.601150 809.001419 372.406326 C809.624344 369.576492 811.172134 366.962845 811.965836 364.155960 C815.650284 351.126266 816.781387 337.786361 815.925735 324.330795 C815.427750 316.499130 813.222794 309.846695 803.813492 307.167526 C797.659927 305.415359 792.776077 309.824966 787.251907 311.167221 C785.996109 311.472335 783.164444 312.120224 786.800003 314.345291 C791.176773 317.023971 791.456375 322.514694 787.328690 325.690872 C784.522476 327.850174 780.601273 328.670730 777.075699 329.755661 C773.052444 330.993698 769.441727 332.397964 767.960220 336.921219 C766.474808 341.456436 764.547684 345.846054 763.028824 350.371536 C760.914566 356.670791 758.957596 363.024368 757.046829 369.388809 C756.766922 370.321121 757.113968 371.441696 757.170975 372.475174 C758.093460 372.105331 759.100845 371.868789 759.924820 371.344253 C765.593033 367.736160 768.927261 369.458175 770.112137 376.038894 C770.750076 379.582260 770.315384 384.507461 774.923599 385.670364 C781.038467 387.213363 787.429520 387.628891 793.626480 388.897171 C795.863113 389.354934 797.881851 390.877090 800.000015 391.913528 C797.809036 392.877090 795.672318 394.010421 793.404984 394.735550 C792.195450 395.122421 790.755325 394.880264 789.428238 394.790207 C785.064163 394.493942 780.693130 394.240005 776.346085 393.772415 C772.746780 393.385299 771.270096 395.391098 771.042557 398.428482 C770.264969 408.809768 769.479202 419.197036 769.061661 429.596634 C768.749344 437.375259 771.167252 439.367263 778.912918 439.956070 C781.008133 440.115310 783.619034 441.701248 784.742508 443.440445 C785.448868 444.533828 784.294449 447.500503 783.136185 448.962295 C781.589920 450.913772 779.226944 452.216629 777.222061 453.807388 C776.798355 454.143509 776.406509 454.519668 776.000015 454.877395 C776.288651 455.186355 776.519730 455.645767 776.874588 455.781509 C781.572281 457.578567 787.233597 454.316787 787.994766 449.388565 C788.358841 447.031570 788.666702 444.665908 789.000015 441.304214 M780.500015 468.804214 C780.852737 467.451492 780.831924 465.804763 781.624344 464.798111 C784.676468 460.920852 782.164383 460.657974 779.168289 460.838760 C776.299026 461.011978 773.441116 461.796951 770.588455 461.745254 C760.564957 461.563614 750.528336 461.386123 740.534256 460.676895 C736.751114 460.408462 733.031143 458.813797 729.370621 457.564895 C728.476517 457.259842 727.929947 455.936050 727.223587 455.080642 C727.482376 456.410537 727.683487 457.755325 728.020096 459.065200 C728.248306 459.953384 728.694534 460.783096 728.995743 461.655288 C732.668900 472.291519 736.435745 482.896927 739.963821 493.581192 C742.296097 500.644058 746.974503 506.930008 746.200455 515.084427 C745.925186 517.984024 748.086929 520.355850 752.233597 519.967910 C755.438309 519.668106 758.772842 520.919571 762.070694 521.298721 C762.661270 521.366653 763.750870 520.677322 763.940994 520.112442 C767.239212 510.314224 770.504471 500.503494 773.625076 490.647415 C775.865982 483.569717 777.883072 476.421158 780.500015 468.804214 M733.000015 441.304214 C732.000015 443.387466 730.499039 445.400100 730.191605 447.581009 C730.012772 448.849258 731.591507 451.484573 732.646561 451.635452 C743.876907 453.240616 755.158401 454.491836 766.434830 455.760696 C767.254166 455.852859 768.143326 455.324295 769.000015 455.084366 C768.468216 454.324295 768.107620 453.247635 767.378067 452.853225 C760.116837 448.927566 757.918411 442.363357 758.046341 434.752945 C758.155960 428.227249 758.512222 421.695572 759.049576 415.190506 C759.468643 410.118240 760.122818 405.043625 761.052444 400.040664 C762.255692 393.565200 758.421646 388.840439 752.865860 391.026565 C750.420242 391.988907 748.070450 395.068008 747.142776 397.702163 C742.173660 411.813125 737.666702 426.086807 733.000015 441.304214 M613.500015 292.804214 C611.043289 282.368148 610.966568 272.369064 618.563187 263.644394 C619.171707 262.945511 619.048843 261.609848 619.265884 260.570114 C618.108353 260.883712 616.636246 260.847610 615.840652 261.563461 C604.408585 271.849289 593.088272 282.259170 581.692276 292.585220 C578.340897 295.621933 580.094009 297.642685 583.202225 298.390518 C592.685074 300.672287 601.920731 304.326980 611.956131 303.865646 C613.963638 303.773391 616.008804 304.462173 618.033707 304.807998 C619.004959 304.973861 619.969254 305.179763 620.936722 305.367508 C620.508194 304.230148 620.243057 302.992843 619.620193 301.974319 C617.824051 299.037033 615.883682 296.187942 613.500015 292.804214 M727.500015 426.804214 C729.666641 420.882705 731.784073 414.942520 734.013870 409.044876 C736.242142 403.151107 738.532364 397.279403 740.900833 391.440811 C741.762466 389.316787 742.927994 387.316085 743.954910 385.259109 C741.937149 386.107467 739.760025 386.702316 737.931595 387.851852 C732.498917 391.267471 726.430496 394.155288 722.077286 398.665237 C717.938797 402.952743 714.152969 406.180862 708.020828 405.843399 C707.362503 405.807144 706.674332 406.314041 706.000015 406.568924 C706.545731 407.313980 707.200211 408.762893 707.620682 408.697891 C713.309891 407.818435 713.633255 411.648086 714.489395 415.694473 C716.386673 424.661819 721.607620 432.820327 721.042007 442.421768 C721.015945 442.864090 721.602554 443.342544 721.903824 443.804214 C722.314346 443.259109 722.935257 442.771377 723.102127 442.159744 C724.449661 437.221084 725.711807 432.259109 727.500015 426.804214 M711.000015 501.304214 C708.881729 506.089187 706.747879 510.867630 704.706863 515.685318 C704.632339 515.861221 705.487991 516.773208 705.875259 516.750442 C710.072342 516.503189 714.257339 515.980545 718.455765 515.844070 C723.692398 515.673782 732.166153 506.562271 730.874588 501.418533 C728.770706 493.039383 725.908829 484.847305 723.239639 476.617447 C722.894669 475.553970 721.792984 474.735977 721.041824 473.804214 C720.361221 474.915420 719.462479 475.948990 719.035416 477.150345 C716.299332 484.847854 713.666702 492.582107 711.000015 501.304214 M736.500015 379.804214 C743.078079 377.124130 749.077408 374.322220 749.131790 365.460678 C749.180374 357.540786 751.511490 350.051040 756.578629 343.634231 C757.163773 342.893295 757.046646 341.597763 757.255142 340.559372 C756.236710 340.407699 755.060684 339.849472 754.226517 340.172989 C750.074539 341.782974 745.889359 343.387100 741.942886 345.431656 C731.726822 350.724411 730.095535 362.648330 723.091080 370.471786 C722.754654 370.847488 723.744095 372.410324 724.116165 373.420303 C724.821732 372.970657 725.714737 372.668747 726.203690 372.048385 C730.836746 366.169449 735.361893 360.205307 740.011978 354.340103 C741.225723 352.809127 742.552750 350.914901 744.223892 350.340713 C745.601883 349.867263 747.864090 350.728836 749.126419 351.750259 C749.651993 352.175552 748.790421 354.633011 748.200027 356.012527 C747.775223 357.005233 746.482437 357.622055 746.042191 358.613266 C741.684586 368.425064 734.478348 375.789718 726.144058 382.246444 C725.587845 382.677322 725.570938 383.804275 725.303238 384.607467 C726.164078 384.673050 727.189224 385.073532 727.857010 384.745773 C730.630020 383.384842 733.295242 381.804214 736.500015 379.804214 M541.500015 332.804214 C537.186417 332.567093 535.586197 334.087936 537.930374 338.243545 C539.595230 341.194961 541.338821 344.112716 542.811295 347.159530 C545.324112 352.359268 549.714737 353.574600 554.806168 352.697097 C556.824173 352.349289 558.781815 351.003769 560.500015 349.747451 C562.177200 348.521103 564.575821 346.961593 564.781448 345.314163 C565.224686 341.762619 566.327713 336.896072 561.216385 335.678939 C555.096451 334.221603 548.748978 333.719864 541.500015 332.804214 M715.500015 348.804214 C711.144485 348.470871 706.785904 348.172043 702.434402 347.792068 C699.528397 347.538314 699.416397 348.712448 700.585220 350.915573 C703.767593 356.914505 706.899551 362.940902 709.979996 368.992843 C710.878555 370.758194 711.797195 371.161941 712.935867 369.345230 C715.332474 365.521377 717.678848 361.665115 719.988846 357.788162 C721.303726 355.581222 722.506180 353.307235 723.759293 351.063491 C721.172867 350.477066 718.586441 349.890640 715.500015 348.804214 M756.500015 379.804214 C755.102005 380.739547 753.703995 381.674881 752.305984 382.610214 C753.633194 383.008224 754.980057 383.770431 756.281998 383.700180 C757.545364 383.632003 758.762527 382.709213 760.000015 382.161728 C759.166702 381.375900 758.333328 380.590072 756.500015 379.804214 M696.000015 377.304214 C696.900833 377.736740 697.801651 378.169265 698.702469 378.601761 C698.801651 377.506973 699.209427 376.311264 698.895523 375.351547 C698.672867 374.670730 697.475845 374.308578 696.713699 373.804214 C696.475784 374.637527 696.237869 375.470871 696.000015 377.304214 M678.000015 261.304245 C677.333389 261.809951 676.339676 262.202346 676.111771 262.860092 C675.952225 263.320388 676.839066 264.143264 677.258621 264.804214 C677.505753 263.970871 677.752884 263.137558 678.000015 261.304245 M717.000015 395.304214 C717.199234 394.503433 717.398453 393.702621 717.597672 392.901840 C716.816422 392.951309 716.035233 393.000778 715.253922 393.050308 C715.669266 393.968277 716.084610 394.886245 717.000015 395.304214 M601.500015 385.804214 C600.736343 385.567886 599.972610 385.331588 599.208939 385.095260 C599.166946 385.525924 599.125015 385.956588 599.083023 386.387252 C600.055374 386.359573 601.027664 386.331894 601.500015 385.804214 M772.499954 447.804214 C772.041336 448.678909 771.582718 449.553604 771.124100 450.428299 C771.543167 450.553604 771.962234 450.678909 772.381302 450.804214 C772.587540 449.970901 772.793777 449.137527 772.499954 447.804214 M734.500015 521.804214 C735.000015 521.107681 735.521988 520.424331 735.963211 519.692398 C736.003616 519.625320 735.527420 519.246963 735.291031 519.013076 C734.860672 519.776809 734.430313 520.540481 734.500015 521.804214 z"
     id="path1" /><path
     class="selected"
     fill="#000000"
     opacity="1.000000"
     stroke="none"
     d=" M131.000015 841.804214 C132.333313 839.287552 134.246918 836.877212 134.736420 834.205948 C134.955933 833.008011 132.603851 830.588882 130.938721 829.921585 C122.359680 826.483535 113.710129 823.169143 104.915405 820.339248 C98.773712 818.363113 92.431000 815.280594 85.938187 817.047805 C82.310852 818.035110 80.470535 816.956497 78.594299 814.761612 C77.942520 813.999221 77.985672 812.508804 77.981171 811.349807 C77.960098 805.908889 81.237106 800.775100 78.216324 794.914688 C76.407562 791.405777 82.751358 787.134231 87.152573 788.428238 C101.173248 792.550491 113.766830 799.446670 125.614044 807.861892 C126.595413 808.558975 127.907166 808.790786 129.065430 809.238784 C128.710281 808.143997 128.647720 806.796280 127.954117 805.994156 C121.963089 799.065384 118.861328 789.747146 110.486160 784.800186 C109.287384 784.092117 107.975906 783.560867 106.829254 782.781936 C105.165680 781.651870 102.653015 780.610000 102.269882 779.086136 C101.892960 777.586990 103.233047 774.677566 104.661133 773.864029 C113.080017 769.068435 113.726410 760.779190 115.086624 752.639969 C115.371841 750.933303 116.506943 748.348892 117.704773 748.061172 C119.367889 747.661880 122.337341 748.475052 123.196640 749.785843 C125.366058 753.095047 126.771622 756.930069 128.300018 760.630081 C134.119781 774.719070 139.934067 788.811172 145.594788 802.964370 C147.025955 806.542556 147.799942 810.378433 149.032227 814.043350 C149.701935 816.035171 151.080307 816.019241 151.961075 814.277298 C155.168839 807.933303 161.613541 805.886490 167.236496 802.955948 C169.623718 801.711807 170.439896 801.298172 169.353958 798.537735 C166.893509 792.283279 164.494583 786.124771 158.756012 781.979080 C157.950974 781.397476 157.001801 779.488418 157.140640 779.367508 C158.301392 778.357498 160.131897 776.623306 160.954224 776.977737 C164.453873 778.486282 168.535583 779.942093 170.789307 782.725296 C173.819351 786.467300 175.337204 791.426651 177.563736 795.833389 C177.935226 796.568679 178.609207 797.151138 179.143387 797.804214 C179.531754 797.201370 179.991379 796.632583 180.297775 795.990616 C184.843307 786.465347 183.943375 781.247451 176.499680 773.803848 C174.967606 772.271866 173.146027 770.924209 172.009918 769.140091 C171.305527 768.033828 171.092545 765.957046 171.689117 764.893936 C172.143814 764.083450 174.464722 763.553787 175.532272 763.974075 C184.565750 767.530594 191.423721 776.224746 191.139725 785.230667 C190.930923 791.852371 190.739517 797.991958 185.531723 803.042801 C184.395889 804.144485 184.901962 806.982620 184.737473 809.027969 C184.611740 810.590957 184.621140 812.164749 184.570450 813.733780 C183.119278 813.662918 181.447830 814.039016 180.252243 813.449661 C171.662750 809.215530 165.142776 812.330093 160.143936 819.363723 C158.342850 821.898025 157.680191 825.343765 156.888855 828.472488 C155.128296 835.433242 152.579742 842.405594 152.232681 849.465591 C151.653320 861.251724 154.086349 872.596878 160.859741 882.818252 C163.084320 886.175247 163.681778 890.615493 164.996552 894.569229 C167.071152 900.807815 171.176025 902.428177 177.177292 899.851883 C184.882828 896.543960 188.623672 889.377395 193.663345 883.475479 C193.825516 883.285598 192.666824 881.279312 192.126480 881.280471 C182.485275 881.301712 172.671295 873.742935 172.164413 864.359390 C171.474091 851.580276 170.924713 838.671402 175.946213 826.332779 C178.531387 819.980789 186.322769 813.116348 191.571579 813.976028 C193.545303 814.299392 196.821274 816.691970 196.728378 817.933609 C196.242661 824.427444 200.246719 829.268325 201.876968 834.917923 C203.741379 841.378860 204.659561 848.112198 206.011032 854.722671 C206.145859 855.382217 206.434006 856.010452 206.651016 856.653213 C207.100662 856.006179 207.901413 855.383438 207.948288 854.708450 C208.928482 840.589187 207.802078 826.793106 199.294357 814.865860 C197.341080 812.127456 193.344559 810.898330 190.458389 808.746597 C189.387741 807.948318 188.805130 806.495498 188.000015 805.341079 C189.600754 804.596206 191.479874 802.912368 192.748337 803.288406 C196.106094 804.283706 199.135574 806.332046 202.425156 807.634414 C204.075394 808.287735 206.079239 808.682510 207.799606 808.411148 C214.321854 807.382400 220.768448 805.872268 227.291855 804.852737 C232.983444 803.963333 238.734451 803.018936 244.469833 802.946975 C252.988449 802.840103 261.533188 803.263076 270.031967 803.914688 C273.302872 804.165481 274.926163 809.416702 273.583908 813.722061 C270.292191 824.280777 263.839066 833.012832 256.852615 841.241531 C252.412552 846.470962 246.859695 850.753067 241.839890 855.496048 C241.217880 856.083755 240.806015 856.893936 240.296799 857.601028 C241.325912 858.335403 242.338181 859.682510 243.386673 859.711380 C256.815475 860.080032 270.301132 862.913284 283.655411 858.853836 C285.910294 858.168472 288.355942 858.053360 290.727859 857.824356 C294.085953 857.500137 296.311295 858.864700 295.944595 862.488723 C295.514755 866.736465 295.094772 871.065078 293.920334 875.142593 C290.282059 887.774368 286.314346 900.311844 282.419418 912.868850 C280.680710 918.474380 278.903214 924.072158 276.928604 929.596817 C276.487411 930.831314 275.275833 932.397720 274.180130 932.616592 C273.125015 932.827530 270.833603 931.646255 270.694962 930.809951 C270.128250 927.390884 269.351273 923.663711 270.158768 920.425796 C272.364151 911.582290 275.669327 903.013809 277.895706 894.174392 C279.739120 886.855423 280.591110 879.290298 282.104233 871.879532 C282.276077 871.037674 283.839890 870.414993 284.840042 869.830642 C285.482681 869.455154 286.796738 869.473037 286.901566 869.075210 C287.208084 867.912063 287.059158 866.628982 287.088699 865.392837 C285.974747 865.529983 284.848740 865.604202 283.748917 865.815017 C278.658615 866.790603 273.603683 868.445938 268.484085 868.670059 C257.946732 869.131302 247.384811 869.225967 236.990921 866.425735 C232.889420 865.320694 228.701309 864.593399 224.696548 868.316360 C221.484909 871.302017 216.438980 872.322586 213.250778 875.323867 C207.844437 880.413223 202.552536 885.911697 198.501297 892.084121 C192.754349 900.840103 185.491318 907.749160 175.621628 910.214798 C170.323807 911.538406 166.565140 913.036453 163.627518 917.548721 C161.159073 921.340225 161.486160 925.063247 163.933289 928.050186 C169.620407 934.991836 175.884506 941.458389 181.842270 948.181778 C183.860886 950.459854 186.102890 950.883926 188.857407 949.814346 C205.511887 943.347061 222.195999 936.955215 238.814072 930.396011 C240.524521 929.720840 242.000900 928.243545 243.348343 926.900283 C246.373032 923.884658 250.212570 921.140884 254.021103 923.090469 C257.027573 924.629287 259.985519 928.469619 260.665359 931.762466 C261.434097 935.485977 262.528763 935.133194 265.362564 934.936172 C268.685135 934.705337 272.152084 935.146255 275.416580 935.900650 C278.355576 936.579727 280.712601 943.449844 278.477432 946.521011 C276.083511 949.810318 272.300949 952.090713 269.116287 954.801895 C267.909927 955.828872 266.068863 956.587051 265.557571 957.879409 C260.684464 970.196914 256.008041 982.592666 251.364975 994.999649 C250.928726 996.165298 251.125259 997.563003 250.996811 998.849746 C250.484909 1003.978286 247.447739 1006.891616 242.319168 1006.775161 C231.898117 1006.538833 221.472092 1006.300186 211.065323 1005.742080 C204.990005 1005.416153 198.962112 1004.255142 192.887497 1003.856826 C184.591904 1003.312881 176.261337 1003.299453 167.966583 1002.746597 C162.555817 1002.385879 157.149292 1001.647476 151.818222 1000.660537 C150.704498 1000.454239 148.960434 998.134903 149.206482 997.276504 C149.685959 995.603531 151.135971 993.411514 152.608261 993.016861 C154.572952 992.490249 156.935028 993.524917 159.138092 993.793716 C164.857956 994.491714 170.568497 995.397476 176.311508 995.744766 C185.493088 996.300186 194.715805 996.219619 203.888046 996.872696 C213.661911 997.568374 223.391251 998.869766 233.152725 999.768570 C236.559250 1000.082290 239.900711 999.911148 241.449966 995.876358 C245.645737 984.949478 249.910324 974.048843 254.167923 963.145767 C255.063889 960.851333 256.312332 958.654556 256.878494 956.288345 C257.166031 955.086441 256.733780 953.122451 255.869461 952.343765 C253.089096 949.838882 250.713272 946.756973 246.213303 946.622451 C244.149338 946.560806 241.642380 944.975235 240.223160 943.320083 C237.791489 940.484390 235.642075 941.205337 232.849808 942.389541 C220.375687 947.679458 207.827469 952.794326 195.316879 957.998550 C192.331375 959.240493 189.382950 960.572647 186.425827 961.881973 C181.962845 963.858169 178.812424 962.409195 175.937119 958.609634 C171.281982 952.458023 166.282013 946.561538 161.274445 940.688125 C160.447876 939.718643 158.839966 939.415420 157.593155 938.804214 C157.062119 940.232681 155.774490 941.882339 156.117477 943.055313 C159.409653 954.313125 152.924530 964.838516 153.812454 975.946792 C154.051193 978.933487 152.317093 982.253799 150.936813 985.158828 C147.623947 992.131607 144.342194 999.171035 140.286438 1005.711563 C138.811478 1008.089981 135.285706 1009.353164 132.496414 1010.718155 C129.408478 1012.229507 127.604187 1014.120254 127.968018 1017.820816 C129.057037 1028.897476 130.596130 1039.977798 130.799057 1051.077774 C130.944351 1059.023941 128.978073 1066.987442 128.430389 1074.975967 C128.121674 1079.479019 128.901199 1084.046280 128.971497 1088.588150 C129.079788 1095.586319 128.989914 1102.587295 129.009018 1109.587173 C129.012589 1110.892959 128.967651 1112.235489 129.248810 1113.493301 C129.506165 1114.644546 130.174286 1115.704239 130.661423 1116.804214 C131.450378 1115.961441 132.268311 1115.143814 133.023392 1114.271621 C136.683502 1110.044204 141.503693 1109.229873 146.669968 1109.850967 C149.587448 1110.201797 151.852219 1115.047012 149.745316 1118.302261 C145.683746 1124.577408 141.059189 1130.586563 135.977112 1136.065078 C133.090759 1139.176651 123.511948 1136.165420 122.098648 1132.002090 C120.947006 1128.609512 120.356186 1124.947158 120.059174 1121.359390 C119.223053 1111.259292 118.406647 1101.144058 118.096512 1091.019058 C117.907242 1084.839981 118.366348 1078.597427 119.070358 1072.444839 C120.128464 1063.197647 121.724777 1054.130020 120.212067 1044.646377 C119.123260 1037.820327 120.016464 1030.680435 119.980469 1023.680923 C119.975632 1022.741104 119.706146 1021.802505 119.559219 1020.863418 C118.852158 1021.531021 117.881805 1022.069961 117.482010 1022.887710 C115.384338 1027.178360 113.569550 1031.610122 111.402924 1035.863662 C103.688858 1051.007339 95.878540 1066.101944 88.091614 1081.208389 C84.409622 1088.351333 80.819519 1095.545669 76.950500 1102.586441 C74.919113 1106.282852 72.399521 1109.713882 70.055313 1113.234634 C68.574890 1115.458267 66.496262 1117.229385 70.763504 1119.258682 C75.713181 1121.612564 74.020493 1126.732559 73.881638 1130.809707 C73.783096 1133.703262 72.641098 1136.575699 71.860535 1139.428970 C69.809006 1146.928116 64.182831 1149.018203 57.512054 1144.804214 C48.515594 1139.121231 47.316406 1126.408218 54.773315 1118.470230 C63.685669 1108.983047 69.986542 1097.705459 75.986771 1086.273208 C82.378830 1074.094497 88.761154 1061.908706 94.966873 1049.634658 C99.140594 1041.379532 102.962540 1032.947403 107.016968 1024.631118 C108.845169 1020.881118 111.210526 1017.353531 112.668137 1013.475479 C113.751099 1010.594009 113.688995 1007.604385 109.793060 1005.922866 C107.520996 1004.942154 105.603729 1002.909439 103.822571 1001.064468 C98.310043 995.354751 93.076630 990.068496 84.155518 989.129409 C76.762741 988.351089 69.665756 984.883682 62.401779 982.728897 C54.378769 980.348648 46.362038 977.916885 38.245903 975.895767 C34.899574 975.062393 34.482895 973.510879 34.767006 970.451553 C35.626694 961.194473 39.327553 953.071182 43.987114 945.243911 C45.722710 942.328628 45.005714 940.104019 42.500595 937.656753 C36.731247 932.020523 31.180504 926.134414 25.886963 920.048965 C23.476151 917.277481 22.341454 913.675247 25.758156 910.617447 C28.250710 908.386734 32.392883 909.996475 35.301086 913.529983 C39.739372 918.922500 44.493889 924.053726 49.022644 929.373672 C50.408203 931.001358 51.286621 930.837295 51.990112 928.975479 C54.331924 922.778091 56.619080 916.560074 58.950516 910.358658 C61.173126 904.446792 63.168610 898.430008 65.763794 892.685196 C67.233658 889.431472 67.496750 887.020157 64.467270 884.724624 C63.282974 883.827163 62.377106 882.572036 61.255753 881.580032 C57.584991 878.332412 55.363159 874.691787 58.011612 869.756912 C59.874069 866.286514 65.981842 863.367630 70.122681 864.975601 C73.848175 866.422256 74.277924 864.336563 74.976944 862.057876 C77.700256 853.180130 80.286423 844.260147 83.020599 835.385818 C84.310364 831.199722 93.336227 827.121170 98.955048 829.265701 C106.006165 831.956802 113.013046 834.767532 120.101105 837.356643 C123.729385 838.681961 128.220215 837.608291 130.750015 841.554214 C126.294098 846.382949 120.924973 845.399917 116.000931 844.144668 C109.596527 842.511978 103.400330 840.032364 97.164917 837.777969 C93.260330 836.366226 91.510696 837.647781 90.928970 841.685135 C90.489075 844.738235 89.573364 847.756546 88.568649 850.687271 C86.570694 856.515213 84.304581 862.251297 82.312744 868.081192 C82.020508 868.936538 82.624588 870.098220 82.813950 871.118118 C83.638611 870.750869 84.755432 870.608658 85.240143 869.979507 C88.228104 866.101150 92.439102 866.588394 96.438919 866.955764 C97.381958 867.042312 98.876236 869.027053 98.871689 870.133377 C98.854126 874.420669 96.009384 876.818863 92.502487 878.897964 C87.332932 881.962783 87.354263 883.630569 91.210342 888.580459 C94.311005 892.560684 97.542694 896.555862 99.869003 900.989029 C102.138458 905.313797 103.307175 910.211990 105.007492 914.840652 C106.652390 919.318496 108.821701 922.921280 114.683838 921.881363 C117.268219 921.422866 120.010956 921.659195 122.665482 921.831558 C130.564560 922.344009 138.605865 920.417862 146.375153 923.697036 C149.082153 924.839615 151.776855 923.635269 152.837692 920.446914 C153.618958 918.098770 153.904129 915.511856 155.050629 913.374893 C157.115311 909.526504 155.265991 908.221084 152.031860 906.721084 C147.127121 904.446304 142.300125 901.894058 137.768250 898.953933 C132.458313 895.508926 131.802658 889.282669 129.412247 883.981033 C125.050171 874.306595 124.259903 864.695144 127.024292 854.648758 C128.212769 850.329605 129.666702 846.083511 131.000015 841.804214 M196.000015 841.304214 C195.000015 839.266372 194.012619 837.222122 192.993851 835.193741 C192.584885 834.379409 192.107071 833.599685 191.660599 832.804214 C191.107071 833.687881 190.241348 834.509964 190.052780 835.465652 C189.112900 840.228470 193.162949 840.478958 196.000015 842.304214 C196.820938 851.677749 194.679001 860.608963 192.059158 869.490738 C191.773911 870.457901 192.305527 871.666092 192.458237 872.762466 C193.161118 872.087417 193.981003 871.495559 194.535690 870.715225 C195.150223 869.850662 195.614914 868.848037 195.985306 867.846573 C198.834732 860.141800 198.605698 852.156814 197.920029 844.168716 C197.848190 843.331802 196.666672 842.590103 196.000015 841.304214 M127.000015 956.304214 C131.119919 950.517593 135.314758 944.782241 139.316559 938.915054 C140.606445 937.023819 142.602707 934.436783 142.127762 932.786148 C141.350266 930.084121 138.522095 930.195938 136.080750 931.755020 C135.675629 932.013565 134.858032 931.572647 134.226593 931.539199 C129.954285 931.312271 125.638840 930.642959 121.419113 931.023697 C116.940674 931.427627 112.562454 932.882461 108.122208 933.789077 C104.703705 934.487075 102.392075 932.712173 101.045593 929.865860 C98.875900 925.279678 96.709274 920.654434 95.063507 915.866043 C92.087662 907.208084 87.860291 899.315139 81.989349 892.306656 C78.951294 888.679824 77.120193 888.676956 75.491257 892.930313 C72.076019 901.848282 69.086853 910.932022 66.094666 920.004409 C65.861633 920.710952 66.747711 922.134658 67.501328 922.751480 C69.556458 924.433609 72.090500 925.589615 73.949478 927.441421 C79.636444 933.106094 84.747208 939.392227 90.732651 944.703506 C98.013458 951.164566 106.064621 956.749160 113.561234 962.979019 C116.711380 965.597061 119.329666 967.226699 122.257721 963.038223 C123.697723 960.978408 125.087509 958.883316 127.000015 956.304214 M260.500015 814.804214 C258.445297 814.137527 256.384079 812.882278 254.337021 812.904983 C244.925674 813.009475 235.510025 813.328567 226.113968 813.879226 C222.699966 814.079361 219.361496 815.407303 215.942398 815.727188 C212.628098 816.037246 211.304398 816.348404 212.876419 820.359146 C218.098007 833.680862 218.555252 847.417129 215.000656 861.279800 C214.794205 862.084976 214.596451 862.892410 214.394638 863.698867 C215.198624 863.298477 216.106125 863.027237 216.791092 862.478286 C227.799911 853.654861 240.077530 846.286880 248.652725 834.666885 C252.050369 830.062942 255.671494 825.618484 258.931168 820.921219 C260.032303 819.334427 260.333298 817.192459 260.500015 814.804214 M60.000000 957.304214 C58.707382 956.011612 56.856781 954.944839 56.225220 953.384658 C54.214523 948.417373 52.423355 951.597427 51.062225 953.496109 C48.803970 956.646255 46.892166 960.051162 44.926300 963.402481 C43.384216 966.031387 43.210510 967.737075 47.034515 968.911880 C59.523315 972.748428 72.262680 975.957779 83.922867 982.150650 C84.737976 982.583511 85.932068 982.302993 86.949890 982.354263 C86.278900 981.316543 85.797256 980.066055 84.907410 979.274307 C76.812119 972.072036 68.645676 964.949844 60.000000 957.304214 M89.500015 959.804214 C87.635468 957.939712 85.727661 956.115982 83.918106 954.199478 C81.947678 952.112686 80.039215 949.965225 78.155228 947.799331 C73.127808 942.019424 68.120834 936.221817 63.132294 930.408462 C62.780807 929.998672 62.646133 929.402847 62.410660 928.893570 C62.273773 929.336685 62.213470 929.823623 61.988464 930.216324 C58.952316 935.514785 59.156082 939.815689 64.009399 945.196304 C68.912552 950.632217 73.912109 956.122329 79.604889 960.667373 C85.945602 965.729751 93.109161 969.763565 99.947876 974.193618 C100.239655 974.382705 101.050110 974.211929 101.295746 973.928604 C101.665466 973.502212 102.090866 972.627456 101.895142 972.294326 C101.096237 970.934463 100.229019 969.541031 99.097137 968.464737 C96.146225 965.658950 93.042694 963.013565 89.500015 959.804214 M139.500046 807.804214 C139.666702 807.375198 140.091171 806.836807 139.962311 806.533157 C136.667603 798.766128 133.062393 791.119949 130.059555 783.243728 C127.983612 777.798599 123.106705 773.361221 123.962143 766.819229 C124.001556 766.517837 123.293213 765.830337 123.261459 765.850113 C122.480667 766.336197 121.511353 766.740738 121.037231 767.462845 C117.560791 772.757949 117.801147 776.503372 121.757629 782.073867 C123.208282 784.116348 124.572342 786.220230 125.986633 788.288833 C130.321609 794.629226 134.661850 800.966018 139.500046 807.804214 M113.500015 814.804214 C117.080383 815.804214 120.659531 816.808548 124.242355 817.799698 C124.819839 817.959427 125.413712 818.059951 126.000015 818.187820 C125.697815 817.726638 125.499695 817.106765 125.076889 816.829422 C121.813797 814.688369 118.630386 812.379654 115.188385 810.567093 C108.098267 806.833328 100.897476 803.301712 93.643372 799.897537 C92.734879 799.471267 91.229065 800.317947 90.000015 800.574783 C90.546600 802.651260 90.522141 806.065994 91.734131 806.583084 C98.659912 809.538406 105.879929 811.804214 113.500015 814.804214 M188.000046 856.304214 C188.666702 854.105545 189.445999 851.930435 189.913071 849.690139 C190.017197 849.190872 189.094437 848.377639 188.499161 847.884170 C188.278305 847.701004 187.248672 848.025467 187.249680 848.110611 C187.283768 851.009048 187.397629 853.906570 188.000046 856.304214 z"
     id="path2" /><path
     class="selected"
     fill="#000000"
     opacity="1.000000"
     stroke="none"
     d=" M769.000015 25.804214 C754.805008 26.137542 741.107254 26.385254 727.415665 26.825393 C709.356094 27.405960 691.304947 28.522354 673.243423 28.694839 C655.553238 28.863784 637.846695 27.661987 620.162247 27.958084 C606.563797 28.185760 592.987625 29.791473 579.403702 30.812591 C575.704361 31.090698 572.018997 31.616485 568.316299 31.775909 C558.624832 32.193191 548.929764 32.633148 539.231888 32.773727 C510.371719 33.192077 481.507217 33.337494 452.648819 33.842239 C424.531937 34.333969 396.421677 35.197220 368.305954 35.771927 C358.419785 35.974014 348.523972 35.678436 338.636124 35.835342 C325.605759 36.042099 312.575272 36.367584 299.551529 36.830871 C283.990616 37.384445 268.430862 38.026687 252.882645 38.855774 C246.142532 39.215164 239.432053 40.700134 232.708817 40.695343 C214.846970 40.682647 196.985886 40.119064 179.123856 39.809082 C158.705490 39.454712 138.284927 38.817733 117.868317 38.917740 C104.475098 38.983337 91.087387 40.140716 77.696640 40.797790 C76.699066 40.846740 75.468002 41.176162 74.742889 40.729721 C73.034164 39.677673 71.565689 38.235458 70.000015 36.951080 C71.410583 36.235458 72.773956 35.025314 74.239471 34.885452 C82.947464 34.054321 91.668701 33.229171 100.404907 32.853668 C119.621552 32.027649 138.847229 31.026642 158.073898 30.916916 C181.989883 30.780410 205.910049 31.517913 229.829483 31.783294 C240.885086 31.905960 251.950943 32.063736 262.998062 31.733841 C274.897659 31.378494 286.777603 30.405822 298.672104 29.825424 C307.695297 29.385132 316.727127 29.113891 325.756546 28.810363 C336.450729 28.450897 347.144882 27.973358 357.842148 27.872009 C363.366989 27.819656 368.901718 28.797287 374.426376 28.742386 C390.346939 28.584167 406.263687 28.081680 422.183640 27.817474 C445.377640 27.432541 468.573441 27.160202 491.767776 26.797149 C510.853775 26.498397 529.943436 26.299301 549.022537 25.746933 C561.588211 25.383133 574.146927 24.603363 586.692520 23.766784 C599.122818 22.937912 611.521683 21.623840 623.955093 20.861053 C633.966324 20.246872 644.009781 19.829933 654.036575 19.874427 C670.123184 19.945816 686.207474 20.705398 702.293411 20.731529 C715.654495 20.753235 729.017899 20.181793 742.377823 19.788063 C750.742142 19.541549 759.100967 19.112030 767.463882 18.810791 C777.491226 18.449608 787.520340 18.133232 797.548904 17.805412 C807.910477 17.466705 818.279739 16.723251 828.632156 16.908638 C841.696854 17.142601 854.748062 18.134246 867.804764 18.805160 C880.695267 19.467529 893.589981 20.066276 906.469620 20.897400 C908.021927 20.997566 909.491898 22.373703 911.000015 23.158462 C909.727188 24.707077 908.540787 27.498016 907.166885 27.593628 C900.475479 28.059295 893.734024 27.804214 887.010269 27.804214 C886.510269 27.804214 886.008621 27.830810 885.510513 27.800399 C854.787003 25.925888 824.068741 23.855178 793.255142 24.817154 C785.334244 25.064422 777.418228 25.470886 769.000015 25.804214 z"
     id="path3" /><path
     class="selected"
     fill="#000000"
     opacity="1.000000"
     stroke="none"
     d=" M859.000015 179.804214 C861.462234 181.099716 863.314713 182.620559 865.410782 183.641098 C869.099380 185.436935 870.707657 188.364486 869.920059 192.172287 C869.018753 196.529770 864.830826 196.961105 861.465286 197.717147 C855.619461 199.030349 849.671829 199.959671 843.722977 200.694992 C842.234451 200.879013 840.578812 199.711136 839.000015 199.164596 C839.671890 197.711136 840.260818 196.210800 841.045670 194.821151 C841.547195 193.933242 842.338577 193.209060 843.000015 192.411453 C841.938675 192.209030 840.872940 191.810226 839.816727 191.834091 C827.126541 192.121200 814.438248 192.494491 801.748428 192.798111 C786.727615 193.157516 771.700211 193.315963 756.686111 193.854171 C745.068497 194.270645 733.466812 195.132400 721.858719 195.807937 C719.050308 195.971328 716.350479 195.679550 716.060806 192.196945 C715.779129 188.809677 718.049088 188.184921 721.025406 187.610153 C723.106644 187.208175 725.970413 185.340286 726.534866 183.521866 C729.587173 173.688827 730.015030 163.575760 728.115738 153.407028 C727.996902 152.770797 728.019547 152.105697 728.002274 151.453354 C727.665848 138.764251 727.295792 126.075805 727.049393 113.384933 C727.019852 111.864181 727.816299 110.343551 727.953201 108.798324 C728.065201 107.534774 727.764359 106.234680 727.646622 104.950790 C726.939957 105.893081 726.130692 106.776138 725.546036 107.788833 C723.842667 110.739288 722.461197 113.911422 720.465225 116.639343 C719.677139 117.716369 717.185989 118.710495 716.192276 118.234665 C714.040970 117.204498 713.214737 115.261398 714.648941 112.548813 C717.961807 106.283111 720.679764 99.694549 724.162979 93.533142 C725.009720 92.035339 727.845108 91.134964 729.837662 90.997528 C731.159256 90.906387 733.543655 92.434921 733.833511 93.630737 C734.923294 98.127090 737.985916 100.537079 741.491043 102.968429 C743.056717 104.054443 743.854019 106.248062 745.000015 107.939010 C742.939590 109.227417 740.899490 111.556625 738.814713 111.597290 C733.777237 111.695526 735.802017 114.346557 735.923477 116.949493 C736.437332 127.964370 736.789078 138.990570 736.964615 150.016372 C737.129898 160.399215 737.190079 170.791946 736.907486 181.169693 C736.792740 185.381515 738.943741 186.734909 742.327835 186.728714 C746.188492 186.721664 750.125381 186.475448 753.865860 185.619522 C755.161880 185.322952 756.800125 182.929123 756.868912 181.428512 C757.434341 169.083175 757.728592 156.723800 757.975967 144.366058 C758.115555 137.393890 759.578323 135.804214 766.480850 135.804214 C768.146744 135.804214 769.815811 135.872162 771.477921 135.792450 C778.730484 135.444595 779.741837 134.072342 780.077713 126.786453 C780.372940 120.381958 780.992935 113.949035 782.088882 107.636215 C783.370193 100.255813 786.396561 98.226333 793.891312 97.726242 C797.138382 97.509582 800.363785 96.573700 803.537003 95.730850 C809.376480 94.179824 815.115005 92.210891 821.001663 90.888046 C825.113846 89.963974 828.291458 91.015487 829.779312 95.935653 C832.096573 103.598266 833.573380 111.155151 832.043594 119.171142 C830.827164 125.545715 828.990677 132.030090 829.214920 138.402893 C829.651566 150.812729 826.562759 162.651992 825.031815 174.739608 C824.803360 176.543136 825.030899 178.401168 824.993607 180.232864 C824.917068 183.990402 827.122086 184.889816 830.389725 184.831497 C835.942398 184.732406 841.503189 184.677688 847.048538 184.902328 C848.277115 184.952072 849.506363 186.170456 850.644547 186.978561 C852.205215 188.086685 853.599380 189.453842 855.239639 190.410293 C855.724747 190.693161 856.799271 189.965255 857.603653 189.700576 C857.278946 189.111587 857.096390 188.200027 856.607071 187.984420 C852.523697 186.185165 848.497574 184.089401 844.223465 182.944351 C841.048294 182.093704 839.830399 180.698990 839.982864 177.603683 C840.169449 173.815597 843.158646 174.396835 845.040543 174.926834 C849.621597 176.216995 854.025040 178.137558 859.000015 179.804214 M818.000015 154.304214 C818.117508 153.520034 818.237808 152.736282 818.352066 151.951614 C818.745865 149.246048 819.137650 146.540176 819.530228 143.834442 C817.177811 143.500030 814.620560 142.442596 812.530594 143.034683 C810.443497 143.625991 807.464005 145.684936 807.229691 147.418579 C806.060684 156.068771 805.533340 164.816543 805.066727 173.545334 C804.884537 176.954116 804.795914 180.085281 800.307755 179.754776 C796.338882 179.462570 794.732498 176.922531 794.997208 173.064315 C795.341873 168.039810 795.472122 162.991562 796.046646 157.994033 C796.863113 150.891952 798.221451 143.849243 798.943863 136.740066 C799.844315 127.879196 800.547195 118.982025 800.777237 110.086120 C800.813126 108.698120 798.099442 106.517807 796.277603 105.972793 C793.579727 105.165771 790.344009 105.640381 790.062820 109.439850 C789.515213 116.838058 789.306534 124.262344 789.023392 131.678329 C788.968826 133.106338 789.714371 134.737137 789.248428 135.951004 C783.466385 151.014236 786.830704 166.691330 786.117081 182.078079 C786.006302 184.465255 787.083450 187.184311 790.730179 186.829605 C795.245499 186.390396 799.778275 186.127945 804.304764 185.807602 C807.223587 185.601059 810.518997 186.159561 812.910049 184.936874 C814.143021 184.306381 813.764847 180.533859 814.134659 178.184158 C814.155533 178.051132 814.442337 177.960037 814.463394 177.826919 C815.651810 170.320877 816.825211 162.812423 818.000015 154.304214 M767.000015 176.304214 C765.283035 182.200424 767.574905 185.973495 772.607498 185.837692 C777.365555 185.709304 776.765091 181.731857 776.836136 179.247757 C777.007767 173.246139 776.108353 167.221664 776.072342 161.203811 C776.044266 156.520523 776.806046 151.836013 776.896927 147.145874 C776.918289 146.044830 775.775345 144.065231 774.953506 143.944015 C769.965469 143.208236 767.028214 146.077285 767.008011 151.352981 C766.977432 159.336624 767.000015 167.320449 767.000015 176.304214 M812.500015 101.804214 C811.911148 102.393112 810.971817 102.892395 810.794388 103.586502 C810.045364 106.515777 808.047501 109.736877 812.326065 111.823440 C815.561234 113.401168 822.333084 112.742355 822.791519 110.366592 C823.508133 106.652786 823.422684 102.784225 823.677017 98.981216 C820.853409 99.686813 818.026016 100.377670 815.209366 101.109878 C814.619278 101.263275 814.068741 101.568817 812.500015 101.804214 M819.000015 122.304214 C816.923172 122.137542 814.781448 121.602417 812.795547 121.952194 C811.725845 122.140609 810.124466 123.862655 810.146561 124.862213 C810.219070 128.145828 810.924210 131.415466 811.386307 134.690460 C811.950821 134.535110 812.510757 134.360153 813.080521 134.227371 C820.742630 132.441665 820.954971 132.066024 819.000015 122.304214 z"
     id="path4" /><path
     class="selected"
     fill="#000000"
     opacity="1.000000"
     stroke="none"
     d=" M944.000015 134.804214 C944.333389 142.055481 944.764297 148.804214 944.940567 155.559585 C944.993179 157.577774 944.001968 159.622451 944.050308 161.641525 C944.639297 186.196487 945.399673 210.747360 945.978409 235.302536 C946.420303 254.049270 946.611465 272.801803 947.025650 291.549301 C947.206924 299.746566 947.458145 307.952774 948.051163 316.127853 C948.844131 327.060104 950.303116 337.949417 950.903824 348.888595 C951.381363 357.584762 950.657242 366.344528 951.075943 375.046768 C951.802383 390.143173 953.047256 405.214035 953.966202 420.302200 C954.192154 424.011612 953.794815 427.759842 954.036758 431.467300 C954.924088 445.065017 955.972916 458.652176 956.934341 472.245193 C957.324600 477.762039 957.767715 483.279129 957.974380 488.804092 C958.393082 499.994278 958.556168 511.194595 959.029190 522.382095 C959.569962 535.166275 960.270157 547.944717 961.020523 560.718643 C961.582413 570.280349 962.082169 579.856765 963.059464 589.380447 C964.495743 603.377945 966.320572 617.335891 968.007950 631.307266 C968.487930 635.281326 966.278091 639.482620 963.447525 639.804214 C959.819351 640.216324 956.227798 636.473404 955.993668 632.118179 C955.345474 620.061966 954.770279 608.000686 953.972427 595.954178 C953.094131 582.695938 951.892838 569.458816 951.038834 556.199234 C950.497452 547.794937 950.343521 539.365982 949.997818 530.948806 C949.338638 514.893997 949.424210 498.762893 947.805313 482.805008 C945.853653 463.564468 945.723648 444.300430 944.711197 425.052810 C943.496841 401.968826 941.797073 378.937515 941.883072 355.791488 C941.919205 346.071884 940.342850 336.356857 940.060867 326.623520 C939.224258 297.742752 938.766434 268.851089 937.960770 239.969253 C937.512772 223.908645 936.682449 207.858474 935.992386 191.804977 C935.704544 185.108902 935.128372 178.419204 935.035294 171.721756 C934.620621 141.865905 934.121841 112.008377 934.108902 82.151260 C934.104019 70.929596 934.942642 59.662643 936.219803 48.510589 C936.645889 44.790847 939.416885 41.220001 941.610977 37.909164 C942.138138 37.113601 944.640030 37.626617 946.233658 37.537811 C946.155777 38.960312 946.188858 40.399398 945.979141 41.802215 C945.371597 45.867538 944.195938 49.904983 944.080948 53.977035 C943.562393 72.330688 943.185684 90.691559 943.066055 109.051819 C943.011124 117.466888 943.666641 125.886612 944.000015 134.804214 z"
     id="path5" /><path
     class="selected"
     fill="#000000"
     opacity="1.000000"
     stroke="none"
     d=" M66.000015 261.804214 C66.407745 245.939651 64.689087 230.861129 61.180313 215.853592 C59.471207 208.543472 59.469345 200.799057 59.049469 193.231521 C58.512405 183.551773 60.208954 173.300003 57.556717 164.291702 C53.660492 151.058212 56.085022 137.994400 54.982620 124.922729 C54.415100 118.193527 53.182724 111.482223 53.145859 104.757934 C53.113602 98.873901 54.626541 92.997680 54.922455 87.091232 C55.258331 80.387222 54.774841 73.642898 55.088379 66.936721 C55.263474 63.191604 55.969543 59.365966 57.161789 55.820572 C57.713165 54.180984 59.999680 53.124878 61.499512 51.804214 C62.666336 53.457870 64.880951 55.142456 64.833176 56.760223 C64.471970 68.987716 63.570984 81.198181 63.068176 93.423401 C62.944427 96.431839 63.876770 99.468994 63.964203 102.503326 C64.377747 116.856689 64.427353 131.224273 65.063049 145.566559 C65.791016 161.990493 66.661819 178.423019 68.108963 194.795334 C69.230194 207.480789 71.456238 220.065017 72.944016 232.723282 C73.608551 238.377090 73.452744 244.124557 74.045197 249.790207 C75.225998 261.082107 76.675354 272.345840 77.984818 283.624557 C78.099335 284.610824 77.958481 285.623916 78.006271 286.621200 C78.663666 300.339492 79.210541 314.064560 80.034103 327.772964 C80.880524 341.861709 82.160065 355.925155 82.947800 370.016555 C83.544601 380.692428 83.678802 391.394455 83.996750 402.085525 C84.344437 413.775283 84.145218 425.510696 85.147354 437.143264 C86.140564 448.672378 88.486588 460.078811 89.934586 471.577408 C90.645462 477.222610 90.626770 482.957351 91.007828 488.646866 C91.984436 503.227798 93.028320 517.804275 93.946350 532.388748 C94.019943 533.557876 92.964935 534.804031 93.057251 535.964859 C93.939728 547.062332 95.264999 558.134597 95.788040 569.245865 C96.007599 573.909927 94.951477 578.742263 93.721786 583.294510 C93.392014 584.515274 89.997849 585.970352 88.546661 585.534134 C87.028122 585.077591 85.227615 582.502456 85.174713 580.802810 C85.018753 575.791641 86.020233 570.748001 85.914490 565.730911 C85.767609 558.761856 85.039551 551.804336 84.525436 544.844497 C84.444260 543.745437 84.070770 542.665420 84.016708 541.567520 C83.414719 529.345352 85.095413 517.084243 82.196442 504.866226 C80.737442 498.717117 81.558945 492.059097 80.951782 485.668899 C79.783951 473.377639 78.323349 461.114334 77.016373 448.836013 C76.893631 447.682937 77.018661 446.505081 76.997223 445.339309 C76.667892 427.427993 76.387238 409.515579 75.976868 391.606094 C75.777649 382.911575 75.504318 374.211960 74.960602 365.533676 C74.109207 351.944595 72.991043 338.372329 72.003113 324.791702 C71.320358 315.406509 70.864822 305.999801 69.949402 296.637771 C68.828491 285.174148 67.333344 273.747085 66.000015 261.804214 z"
     id="path6" /><path
     class="selected"
     fill="#000000"
     opacity="1.000000"
     stroke="none"
     d=" M230.250015 482.554214 C228.886459 484.470901 227.549484 486.854568 225.585312 487.612320 C223.409744 488.451492 220.660263 487.771866 218.161636 487.811844 C214.437424 487.871414 211.525681 490.762771 212.037521 494.184341 C212.900803 499.955459 214.501938 505.664566 214.810074 511.452102 C214.992233 514.874160 213.285904 518.396560 212.430893 521.874283 C212.281998 522.480056 212.073166 523.081131 212.010513 523.696426 C210.935074 534.259658 215.069351 537.507827 225.752914 534.580276 C227.270004 534.164627 228.884842 533.788650 230.429886 533.868545 C232.586166 533.980117 235.860611 532.509597 235.965408 536.614761 C236.063614 540.461441 233.695633 542.454055 230.137985 542.742752 C226.661880 543.024917 223.132004 542.992263 219.649643 542.751663 C216.124405 542.508133 213.432541 543.342971 210.994400 546.169449 C207.640854 550.057144 205.094345 549.961563 202.518173 545.657730 C200.024460 541.491592 196.908554 542.054153 192.873672 542.239273 C184.670364 542.615677 176.735092 546.948501 168.081818 543.079361 C164.988525 541.696182 160.402206 543.132278 156.675446 544.025039 C155.651291 544.270340 154.912018 547.154373 154.687347 548.910171 C154.423904 550.969131 155.566681 553.426651 154.811462 555.145279 C153.981400 557.034256 151.866043 559.112075 149.967178 559.523880 C148.603638 559.819656 146.140762 557.851333 145.149277 556.275772 C144.140594 554.672805 143.492401 551.973953 144.150101 550.346512 C146.595123 544.296341 142.910736 544.774856 139.020660 544.750930 C135.838394 544.731338 131.064346 546.175735 131.180832 540.867080 C131.295242 535.651870 136.047089 536.889053 139.402878 536.831558 C145.364182 536.729385 146.992706 535.204605 146.999695 529.355362 C147.001877 527.522537 147.086960 525.684768 146.981812 523.857986 C146.767258 520.130630 144.682526 518.091262 141.003418 517.831924 C138.848099 517.680008 136.672577 517.769363 134.507462 517.813614 C132.097443 517.862747 129.250519 517.902053 130.169693 514.480423 C130.653641 512.678970 132.777740 511.212417 134.402161 509.890823 C134.859024 509.519119 136.183350 510.144851 137.085205 510.399917 C143.752914 512.285720 145.820648 510.570633 145.005600 503.841018 C144.639389 500.817276 144.055344 497.784195 144.078568 494.759231 C144.101593 491.762466 143.087921 490.487869 140.076035 490.786453 C138.126999 490.979751 135.784439 490.358963 134.282639 491.238113 C131.330338 492.966201 130.227615 490.733963 129.131683 489.245498 C128.355347 488.191238 127.900833 485.691421 128.532364 485.052627 C129.991318 483.576919 132.338837 481.761673 134.077393 481.988540 C142.180359 483.046158 144.112274 481.737014 143.955795 473.572647 C143.868927 469.040664 143.209473 464.521499 143.055984 459.988174 C142.986679 457.940689 141.936508 455.050308 145.690811 454.804153 C148.841049 454.597488 151.733841 454.818374 151.993942 458.957229 C152.351639 464.649307 152.921036 470.344619 152.907181 476.037368 C152.898499 479.604141 153.766357 481.216079 157.617004 480.892166 C159.602875 480.725113 161.655518 481.565262 163.695877 481.781936 C166.724991 482.103470 169.014084 480.982193 168.941681 477.649856 C168.828720 472.451309 167.937897 467.240066 168.212860 462.078750 C168.310120 460.253433 170.856583 458.558609 172.284882 456.804214 C173.856598 458.219925 176.614395 459.507644 176.783615 461.074783 C177.352707 466.345108 176.798965 471.727981 177.142532 477.037552 C177.227554 478.351822 179.021835 480.572281 180.129074 480.635025 C186.331161 480.986404 192.565109 480.719192 198.784775 480.839309 C201.995468 480.901382 202.131699 478.977981 202.004471 476.641739 C201.658066 470.282425 201.117630 463.922928 201.086746 457.561416 C201.070114 454.139663 203.824997 453.781143 206.703842 453.746902 C209.848892 453.709488 209.968246 455.483291 210.045792 457.884048 C210.240677 463.915298 210.914688 469.939285 210.911514 475.965896 C210.909439 479.887161 213.440933 480.469619 216.130753 480.732742 C219.266495 481.039383 222.466171 480.649673 225.616226 480.871963 C227.103806 480.976883 228.540359 481.804153 230.250015 482.554214 M195.500015 508.804214 C198.584579 508.543960 203.018082 510.182815 203.790054 505.815811 C204.538162 501.583999 203.541641 497.047866 203.345779 492.643875 C203.191025 489.164261 201.132767 488.638687 198.110306 488.719253 C195.429550 488.790664 192.717819 487.795791 190.040817 487.887466 C186.391190 488.012466 182.304031 487.890091 179.316940 489.532852 C177.829880 490.350662 178.258072 494.853775 178.036545 497.706558 C177.856674 500.022903 177.772537 502.392166 178.054184 504.687881 C178.459732 507.993484 180.405533 509.994095 183.927139 509.778518 C187.458084 509.562210 190.976242 509.137527 195.500015 508.804214 M203.000015 517.304214 C202.764816 517.068985 202.525528 516.624527 202.294968 516.628982 C195.597427 516.758560 188.892868 516.813675 182.214188 517.255325 C181.404221 517.308853 180.063431 519.523880 180.129135 520.670608 C180.307816 523.788833 181.434372 526.855178 181.589127 529.971695 C181.833328 534.890945 184.352341 535.546035 188.568375 534.922683 C190.826431 534.588821 193.353653 536.020279 195.596848 535.655533 C198.023972 535.260879 201.678940 536.079605 202.028305 531.739700 C202.402969 527.085220 203.000015 522.448623 203.000015 517.304214 M169.000015 495.304214 C170.179199 489.497879 169.372803 487.993789 165.585236 488.783096 C163.426285 489.233047 161.193268 489.874344 159.046478 489.715286 C155.255157 489.434524 153.370544 490.522964 153.974380 494.600479 C154.142563 495.736221 154.026764 496.918777 153.995972 498.078567 C153.600815 512.964248 155.741852 509.480117 166.622894 509.646804 C167.731415 509.663772 169.768494 507.536331 169.828323 506.327469 C169.992661 503.008133 169.333344 499.648147 169.000015 495.304214 M156.500000 518.804214 C156.000000 523.592117 155.430527 528.374832 155.069885 533.173233 C155.011261 533.953201 155.866714 535.504837 156.317429 535.511612 C160.880539 535.579788 165.455933 535.515457 170.004257 535.173843 C170.729401 535.119400 171.910202 533.502456 171.900391 532.618728 C171.859146 528.901321 171.546768 525.176345 171.120056 521.478897 C170.946411 519.974441 170.203781 517.252700 169.762161 517.261184 C165.502991 517.343643 161.252777 517.890335 156.500000 518.804214 z"
     id="path7" /><path
     class="selected"
     fill="#000000"
     opacity="1.000000"
     stroke="none"
     d=" M188.250015 277.054214 C194.217789 276.804214 200.505600 275.244583 205.549606 277.088089 C222.697006 283.355178 237.820969 292.870834 246.450699 309.918045 C248.024002 313.025894 248.293228 316.827194 248.978958 320.344528 C250.687851 329.109756 250.441910 337.948684 246.244583 345.824630 C241.828232 354.111465 236.803055 361.891311 228.298477 367.369613 C218.284836 373.820022 207.358292 376.879379 196.088333 377.422714 C188.717758 377.778000 180.973831 375.063034 173.750015 372.661636 C163.601105 369.287857 155.131226 363.203994 150.761765 352.972641 C147.149490 344.514267 143.707382 335.968490 145.912369 326.284195 C147.074799 321.178787 146.689529 315.681991 148.129578 310.686660 C151.471207 299.095047 160.318451 291.850814 170.106140 285.910202 C175.737411 282.492294 182.013931 280.137527 188.250015 277.054214 M169.000015 361.304214 C173.078445 362.715957 177.114853 364.266861 181.242996 365.513992 C194.944260 369.653152 207.920822 367.698227 220.454819 360.995590 C223.085068 359.589065 223.860458 358.850448 221.426834 356.711593 C216.186508 352.106033 211.144760 347.253921 205.662674 342.961288 C204.542557 342.084213 201.336258 342.533401 199.969711 343.550674 C195.179398 347.116745 190.913437 351.381668 186.169998 355.018051 C183.103561 357.368881 179.495468 358.999649 176.232529 361.111374 C172.921921 363.253982 171.606461 360.150589 170.537125 358.503036 C169.901703 357.524063 170.749802 354.565048 171.874512 353.623916 C179.850754 346.949417 187.873367 340.288650 196.339676 334.268203 C198.730209 332.568283 199.013138 331.114883 199.008896 328.836166 C198.988907 318.177902 198.982346 307.519516 199.014053 296.861282 C199.020859 294.572220 199.327652 292.280563 199.269516 289.995865 C199.225937 288.284744 199.404221 285.909134 198.419632 285.052841 C197.271530 284.054306 194.635086 283.633468 193.211990 284.257095 C175.713760 291.925216 159.140747 300.878585 155.448532 322.072403 C154.471588 327.680252 155.357880 333.732467 156.092651 339.490799 C157.206512 348.219986 164.219803 353.770309 169.000015 361.304214 M210.000015 327.304214 C211.951584 327.804214 213.911270 328.756820 215.853287 328.722061 C222.527237 328.602585 229.211807 328.305923 235.849228 327.644668 C237.006302 327.529403 238.663834 325.438156 238.887070 324.064102 C240.556931 313.785049 233.971512 307.198318 227.496445 301.017349 C223.079849 296.801315 217.529770 293.798050 212.744156 289.933456 C210.008499 287.724319 209.081131 289.318985 209.080643 291.473983 C209.077927 303.250686 209.333328 315.027450 210.000015 327.304214 M225.500015 345.804214 C231.328384 350.783126 232.698959 350.523147 236.009811 343.874984 C236.629684 342.630355 237.228561 341.328384 238.095444 340.263076 C240.087967 337.814529 238.448776 337.015518 236.454880 336.853836 C230.621719 336.380874 224.772568 336.040237 218.923355 335.880447 C217.643204 335.845443 216.336685 336.776016 215.042313 337.261917 C215.991592 338.442672 216.756363 339.868515 217.929672 340.751663 C220.163193 342.432937 222.630051 343.804214 225.500015 345.804214 z"
     id="path8" /><path
     class="selected"
     fill="#000000"
     opacity="1.000000"
     stroke="none"
     d=" M245.000015 186.804214 C246.705643 202.192611 239.631149 214.454178 230.866867 224.776291 C223.188919 233.818985 212.010025 238.544601 199.373001 240.080734 C184.873032 241.843307 174.345078 235.205337 163.913986 227.193130 C154.537537 219.991073 149.397415 210.274429 146.946777 198.821121 C144.502060 187.395401 146.598221 176.506668 152.287476 166.894088 C155.639801 161.229965 161.451111 156.721634 166.882080 152.664840 C173.348129 147.834839 180.237808 143.237960 187.590744 140.016311 C196.203171 136.242828 204.651901 140.264755 212.432693 143.948608 C217.901505 146.537857 223.023361 150.106064 227.788315 153.882888 C236.738235 160.976822 241.646164 170.661819 244.001053 181.719589 C244.326828 183.249344 244.666672 184.776077 245.000015 186.804214 M236.000046 188.304214 C235.666702 185.615463 235.513443 182.889419 234.965530 180.245132 C233.447830 172.920242 229.789200 171.620926 223.536362 175.715866 C214.665237 181.525467 205.627335 187.080001 196.731400 192.852432 C195.602768 193.584793 194.174759 194.934433 194.113785 196.064407 C193.583328 205.892807 193.077347 215.739608 193.205002 225.572647 C193.232193 227.667221 195.830460 231.440567 197.309097 231.472885 C201.242935 231.558914 205.423447 230.547897 209.130692 229.046646 C225.209366 222.535690 236.000015 206.324478 236.000046 188.304214 M156.000015 195.304214 C157.410919 207.806198 165.148712 216.418869 174.030045 224.223465 C176.088913 226.032699 178.739761 227.220352 181.237991 228.450699 C182.167465 228.908432 183.440140 228.669296 184.556290 228.747940 C184.382156 227.944656 184.007462 227.126785 184.064590 226.340286 C184.697922 217.621048 182.765579 208.905319 184.862411 200.118301 C186.837326 191.842147 188.317947 183.329055 188.791672 174.851761 C189.163376 168.200271 187.406448 161.456192 187.100876 154.730301 C186.926865 150.900497 185.238663 151.342300 182.914902 152.434402 C181.792831 152.961746 180.876358 153.912277 179.776993 154.504470 C163.924927 163.043625 155.727448 176.139785 156.000015 195.304214 M201.500015 172.804214 C204.092239 167.545334 206.868271 162.363693 209.134872 156.968033 C209.640457 155.764480 208.840683 153.273361 207.786942 152.319412 C206.003555 150.704879 203.574539 149.770080 201.352554 148.680877 C197.497818 146.791290 195.813126 147.696701 196.064163 151.961197 C196.499954 159.364486 197.293839 166.748245 198.031570 174.130844 C198.189255 175.709182 198.748032 177.247482 199.122025 178.804214 C199.748032 177.304153 200.392502 175.811355 200.983841 174.297775 C201.096786 174.008621 201.000015 173.637497 201.500015 172.804214 M223.500015 165.804214 C222.540909 163.845108 221.581833 161.886032 220.622726 159.926925 C219.584366 160.550125 218.190536 160.931076 217.571274 161.839889 C215.296402 165.178451 213.229294 168.663833 211.212631 172.167984 C210.875809 172.753250 211.178391 173.706527 211.185532 174.489730 C211.988693 174.229568 212.933426 174.157516 213.571152 173.677505 C216.758347 171.278518 219.865005 168.772537 223.500015 165.804214 z"
     id="path9" /><path
     class="selected"
     fill="#000000"
     opacity="1.000000"
     stroke="none"
     d=" M562.000015 628.804214 C565.637161 629.274673 568.826431 629.544754 571.879044 630.339737 C572.774857 630.573013 574.085953 632.769241 573.807755 633.241043 C573.148941 634.358474 571.685318 635.037796 570.472122 635.769973 C570.105728 635.991104 569.492996 635.795730 568.993362 635.805374 C551.805069 636.137222 534.616104 636.437942 517.428787 636.815200 C504.789932 637.092605 492.154739 637.595901 479.514969 637.740799 C474.659500 637.796524 469.783585 636.732132 464.938248 636.879348 C449.714493 637.341873 434.495682 638.745437 419.284683 638.619339 C406.196945 638.510818 393.135666 636.509964 380.036850 635.921280 C372.873978 635.599380 365.660507 636.608169 358.464371 636.766678 C350.856979 636.934158 343.235275 637.019607 335.633957 636.747268 C327.025497 636.438736 318.434708 635.267654 309.832657 635.227127 C292.691788 635.146194 275.545761 635.456985 258.406845 635.833755 C233.300308 636.385635 208.194443 637.026809 183.096054 637.862503 C173.973465 638.166336 164.876892 639.197342 155.760605 639.771927 C152.550903 639.974136 149.311966 639.678543 146.096298 639.826187 C132.708893 640.440811 119.330261 641.292678 105.937668 641.724136 C100.927078 641.885513 95.838852 641.443252 90.883621 640.659378 C88.792511 640.328506 86.211258 638.826919 85.216080 637.080581 C84.286057 635.448501 89.461334 632.684890 92.148270 632.734146 C101.864838 632.912124 111.588882 632.934341 121.305832 632.767288 C130.833450 632.603592 140.353592 632.036514 149.880981 631.822708 C181.757462 631.107254 213.636398 630.502639 245.512802 629.783401 C254.207596 629.587234 262.895004 629.080459 271.589035 628.827591 C276.140427 628.695205 280.701645 628.906936 285.253494 628.783035 C294.946701 628.519180 304.638535 627.811721 314.327621 627.867324 C340.070602 628.014908 365.815201 628.310379 391.552505 628.859573 C409.275284 629.237808 426.984421 630.594925 444.704117 630.691177 C468.054092 630.817947 491.409317 630.187698 514.760269 629.770584 C520.956924 629.659988 527.143143 628.954788 533.339737 628.846939 C542.723953 628.683487 552.112991 628.804214 562.000015 628.804214 z"
     id="path10" /><path
     class="selected"
     fill="#000000"
     opacity="1.000000"
     stroke="none"
     d=" M309.000015 299.804214 C309.333328 287.610672 309.686844 275.917617 309.994705 264.223404 C310.350784 250.697403 310.568222 237.166977 311.025131 223.644546 C311.586563 207.029068 312.129227 190.407943 313.100723 173.813888 C313.488327 167.193252 315.064468 160.646866 315.926315 154.044052 C316.047165 153.118026 315.175034 152.062393 314.762558 151.066757 C314.175064 151.814865 313.509109 152.515152 313.017136 153.321548 C312.130112 154.775345 311.077286 156.207840 310.576797 157.800979 C309.520462 161.163498 306.259781 161.912155 304.622299 160.455093 C302.959488 158.975509 301.856247 155.013595 302.645737 152.961105 C305.625992 145.212921 309.420059 137.772445 313.027084 130.273346 C314.495590 127.220276 319.591537 125.279464 322.466507 126.877731 C325.670609 128.658996 327.395401 132.179916 325.806351 135.263885 C321.699692 143.233917 326.115219 148.968750 329.765182 155.148727 C330.727615 156.778274 331.078842 158.768753 331.710739 160.593490 C329.878189 160.997085 327.715836 162.223770 326.276108 161.646896 C322.265488 160.039901 322.037918 161.913345 321.953812 165.053177 C321.769913 171.918136 321.276169 178.774063 321.011093 185.637619 C320.311661 203.748062 319.581375 221.857986 319.039627 239.973434 C318.803909 247.855728 319.080307 255.751907 318.985031 263.640091 C318.692825 287.832321 318.192642 312.023025 318.065323 336.215835 C318.009903 346.740860 318.810715 357.267532 318.961563 367.797226 C319.129440 379.516922 319.106430 391.242294 318.955124 402.962448 C318.879410 408.826858 317.907272 414.698928 318.096573 420.543106 C318.406387 430.110428 319.341599 439.657180 319.989273 449.214248 C320.067978 450.375442 320.378647 451.728470 319.923233 452.676162 C318.891251 454.823623 319.213242 459.177627 315.203384 457.611160 C312.752548 456.653824 309.325577 453.835403 309.283157 451.791641 C309.037155 439.943496 309.942978 428.076736 309.927078 416.217056 C309.908920 402.689987 309.193283 389.164993 309.065231 375.636459 C309.009811 369.779068 309.992081 363.911850 309.936386 358.054489 C309.793472 343.026260 309.313278 328.001449 309.012894 312.974411 C308.928513 308.752609 309.000015 304.527694 309.000015 299.804214 z"
     id="path11" /><path
     class="selected"
     fill="#000000"
     opacity="1.000000"
     stroke="none"
     d=" M569.000015 463.804214 C575.831497 463.804214 582.164444 463.729873 588.493668 463.850113 C590.360611 463.885574 592.519180 464.005569 593.981155 464.954361 C595.110001 465.686905 595.795731 467.765396 595.827591 469.263504 C595.845169 470.091201 594.099197 471.699356 593.169022 471.684097 C586.971817 471.582534 580.783157 471.054580 574.585709 470.833084 C570.368546 470.682327 566.137589 470.924881 561.919876 470.782913 C545.506851 470.230362 529.099747 469.468399 512.683609 469.056717 C506.802505 468.909317 500.892227 469.894485 495.012100 469.736648 C477.121841 469.256485 459.240311 468.455032 441.353958 467.819534 C438.301590 467.711136 435.240433 467.869400 432.186172 467.792801 C419.993790 467.487259 407.802292 467.144119 395.610855 466.802383 C384.028305 466.477676 372.440170 465.737381 360.865555 465.912307 C348.304855 466.102127 335.761917 467.264053 323.201584 467.754715 C316.157272 468.029861 309.093399 467.804214 302.038345 467.804214 C297.482559 467.804214 292.899704 468.093765 288.383377 467.671585 C286.380203 467.484390 284.085007 466.264175 282.683182 464.789566 C280.655746 462.656875 282.078079 459.719314 285.050003 459.875564 C293.948318 460.343765 302.822861 461.526016 311.719528 461.677810 C318.490738 461.793350 325.282150 460.770034 332.062668 460.229324 C332.842178 460.167068 333.607010 459.836319 334.382431 459.820877 C352.238693 459.465896 370.094650 458.956497 387.952530 458.873489 C398.309616 458.825393 408.670517 459.454239 419.028641 459.809158 C428.055405 460.118545 437.080338 460.480484 446.106705 460.801651 C455.798721 461.146438 465.491531 461.468582 475.183853 461.804824 C484.709671 462.135269 494.233047 462.596084 503.761673 462.778824 C525.339737 463.192825 546.920425 463.470840 569.000015 463.804214 z"
     id="path12" /><path
     class="selected"
     fill="#000000"
     opacity="1.000000"
     stroke="none"
     d=" M975.000015 614.804214 C974.666641 608.622757 974.275894 602.943374 974.065323 597.257339 C974.035660 596.456314 974.885880 595.622696 975.328873 594.804214 C976.219376 595.536941 977.439713 596.104019 977.912857 597.046280 C978.452042 598.119949 978.459732 599.527725 978.465591 600.791397 C978.511124 610.547378 980.093399 620.040542 982.860245 629.391189 C983.108780 630.231216 981.391739 631.652786 980.587540 632.804214 C979.724991 631.877395 978.353165 631.076431 978.087662 630.002029 C976.887344 625.145034 976.000015 620.210708 975.000015 614.804214 z"
     id="path13" /><path
     class="selected"
     fill="#000000"
     opacity="1.000000"
     stroke="none"
     d=" M610.750015 765.554214 C609.127823 766.432022 607.755630 767.059829 606.383438 767.687637 C606.833328 766.315445 607.252518 764.932205 607.740311 763.573623 C608.468216 761.546463 609.271988 759.546402 609.994705 757.517471 C612.009903 751.860061 613.953629 746.176284 616.056839 740.552017 C616.329910 739.821670 617.374466 739.379776 618.061661 738.804214 C618.374405 739.587722 619.108292 740.481704 618.936050 741.137954 C616.781326 749.350662 616.201431 758.094070 610.750015 765.554214 z"
     id="path14" /><path
     class="selected"
     fill="#000000"
     opacity="1.000000"
     stroke="none"
     d=" M224.750015 507.054214 C226.110092 509.100418 230.291641 510.668716 227.028732 512.901809 C224.185043 514.847915 220.035873 514.886367 216.463516 515.767715 C216.309006 513.529007 215.909958 511.266311 216.126144 509.063980 C216.207199 508.238418 217.634232 507.076431 218.596695 506.905044 C220.509811 506.564346 222.526260 506.804214 224.750015 507.054214 z"
     id="path15" /><path
     class="selected"
     fill="#000000"
     opacity="1.000000"
     stroke="none"
     d=" M60.000015 286.804214 C60.000015 284.304916 59.911682 282.299087 60.059082 280.310714 C60.098343 279.781051 60.821457 278.951461 61.300262 278.899337 C61.824814 278.842209 62.866348 279.458694 62.933319 279.896286 C63.704575 284.935592 64.370804 289.992447 64.945160 295.058212 C65.006134 295.596084 64.306824 296.220138 63.960220 296.804214 C63.306824 296.360336 62.250824 296.040603 62.069122 295.451278 C61.244614 292.777145 60.666687 290.026992 60.000015 286.804214 z"
     id="path16" /><path
     class="selected"
     fill="#000000"
     opacity="1.000000"
     stroke="none"
     d=" M62.750015 314.054214 C62.000015 309.539047 61.460373 305.277481 61.073471 301.002060 C61.041687 300.650894 62.047180 299.881851 62.573349 299.879440 C63.381027 299.875717 64.851196 300.286636 64.898376 300.664291 C65.395950 304.646713 65.781494 308.655166 65.861267 312.663131 C65.871780 313.190963 64.000015 313.756271 62.750015 314.054214 z"
     id="path18" /><path
     class="selected"
     fill="#000000"
     opacity="1.000000"
     stroke="none"
     d=" M94.000015 50.804214 C91.383713 50.354599 89.249786 49.965255 87.179214 49.359359 C86.978424 49.300613 87.100815 47.232101 87.189209 47.223007 C89.434647 46.991790 91.694977 46.876800 93.954407 46.836471 C94.352554 46.829345 94.746613 47.269897 95.162445 47.460327 C97.104492 48.349762 99.053497 49.224029 101.000015 50.103714 C98.833344 50.337219 96.666687 50.570709 94.000015 50.804214 z"
     id="path19" /><path
     class="selected"
     fill="#000000"
     opacity="1.000000"
     stroke="none"
     d=" M334.750015 370.554214 C333.154709 371.137558 331.799210 371.762161 330.467239 371.715408 C329.328049 371.675369 328.215897 370.865432 327.091812 370.396011 C327.846420 369.580185 328.881149 367.944076 329.307480 368.089645 C331.219559 368.742599 334.942520 365.148574 334.750015 370.554214 z"
     id="path21" /><path
     class="selected"
     fill="#000000"
     opacity="1.000000"
     stroke="none"
     d=" M4.750000 972.554214 C3.000000 972.198379 1.500000 971.592544 0.000000 970.986587 C0.421890 970.337173 0.780724 969.188125 1.276665 969.125503 C3.351494 968.863784 5.467415 968.927749 7.568268 968.872451 C6.712173 970.016372 5.856087 971.160293 4.750000 972.554214 z"
     id="path22" /><path
     class="selected"
     fill="#000000"
     opacity="1.000000"
     stroke="none"
     d=" M59.000015 243.804214 C59.000015 242.312790 58.916702 241.311416 59.033295 240.333908 C59.096588 239.803054 59.615540 238.849960 59.731354 238.878891 C60.517044 239.075058 61.902969 239.497451 61.895523 239.818954 C61.841446 242.151046 61.502884 244.476608 61.254303 246.804214 C60.502869 245.970871 59.751450 245.137558 59.000015 243.804214 z"
     id="path23" /><path
     class="selected"
     fill="#000000"
     opacity="1.000000"
     stroke="none"
     d=" M63.000015 256.804214 C63.000015 258.295639 63.083313 259.297012 62.966736 260.274521 C62.903412 260.805343 62.384491 261.758468 62.268677 261.729507 C61.482986 261.533340 60.097061 261.110977 60.104507 260.789474 C60.158585 258.457382 60.497162 256.131820 60.745728 253.804214 C61.497147 254.637558 62.248581 255.470871 63.000015 256.804214 z"
     id="path24" /><path
     class="selected"
     fill="#000000"
     opacity="1.000000"
     stroke="none"
     d=" M188.250015 471.554214 C188.482864 469.488052 188.965714 467.671829 189.448532 465.855667 C190.299026 466.583755 191.705399 467.191116 191.894608 468.062698 C192.437698 470.564102 191.376999 472.139602 188.250015 471.554214 z"
     id="path25" /><path
     class="selected"
     fill="#000000"
     opacity="1.000000"
     stroke="none"
     d=" M977.250015 591.054214 C976.000015 591.118728 974.151138 590.988235 974.134903 590.739090 C974.010635 588.819656 974.241592 586.877273 974.362320 584.941970 C974.927750 585.082351 975.889542 585.085403 975.993668 585.385757 C976.606583 587.153518 977.019669 588.990493 977.250015 591.054214 z"
     id="path26" /><path
     class="selected"
     fill="#000000"
     opacity="1.000000"
     stroke="none"
     d=" M177.000015 46.804214 C176.000015 46.386871 175.500015 45.969528 175.000015 45.552169 C177.661240 44.969528 180.315598 44.348755 182.994766 43.865707 C183.250473 43.819595 183.998337 44.947113 183.948776 45.000396 C183.336136 45.658844 182.686539 46.577499 181.911545 46.726288 C180.488510 46.999527 178.975510 46.804214 177.000015 46.804214 z"
     id="path27" /><path
     class="selected"
     fill="#000000"
     opacity="1.000000"
     stroke="none"
     d=" M975.000015 555.804214 C973.986588 556.957473 972.973160 557.610611 971.959610 558.263809 C971.649185 556.934463 971.338760 555.605178 971.028336 554.275894 C972.352188 554.618667 973.676163 554.961441 975.000015 555.804214 z"
     id="path29" /><path
     class="selected"
     fill="#000000"
     opacity="1.000000"
     stroke="none"
     d=" M60.000015 268.804214 C60.577225 267.137558 61.154434 265.970901 61.731644 264.804214 C62.154419 265.796035 63.161514 267.070938 62.852707 267.708358 C62.463272 268.512283 61.000000 268.796035 60.000015 268.804214 z"
     id="path30" /><path
     class="selected"
     fill="#000000"
     opacity="1.000000"
     stroke="none"
     d=" M491.000015 622.804214 C493.333328 622.305984 495.666702 622.307022 497.999283 622.350296 C498.005386 622.350418 498.005386 623.258011 497.999283 623.258133 C495.666702 623.301407 493.333328 623.302383 491.000015 622.804214 z"
     id="path31" /><path
     class="selected"
     fill="#000000"
     opacity="1.000000"
     stroke="none"
     d=" M975.000015 524.804214 C974.421524 526.137588 973.842911 526.970901 973.264297 527.804214 C972.842911 526.978042 972.421402 526.151809 972.000015 525.325637 C973.000015 524.985183 974.000015 524.644668 975.000015 524.804214 z"
     id="path32" /><path
     class="selected"
     fill="#000000"
     opacity="1.000000"
     stroke="none"
     d=" M973.750015 544.554214 C972.736343 543.901260 971.972672 542.998245 971.209000 542.095230 C972.000626 541.692825 972.792252 541.290481 973.584000 540.888076 C973.722672 542.026809 973.861343 543.165542 973.750015 544.554214 z"
     id="path33" /><path
     class="selected"
     fill="#000000"
     opacity="1.000000"
     stroke="none"
     d=" M272.000015 458.804214 C270.153397 455.391006 273.051132 457.147964 274.038681 456.902053 C274.563126 456.771438 275.338120 457.647049 276.000015 458.068496 C274.833359 458.313736 273.666672 458.558975 272.000015 458.804214 z"
     id="path34" /><path
     class="selected"
     fill="#000000"
     opacity="1.000000"
     stroke="none"
     d=" M975.000015 581.804214 C974.000015 581.059951 973.500015 580.315628 973.000015 579.571365 C973.660904 579.315628 974.321915 579.059951 974.982681 578.804214 C975.155167 579.804214 975.327530 580.804214 975.000015 581.804214 z"
     id="path35" /><path
     class="selected"
     fill="#000000"
     opacity="1.000000"
     stroke="none"
     d=" M972.250015 564.554214 C972.549576 563.470901 973.099136 562.637588 973.648697 561.804214 C974.099136 562.254715 974.549576 562.705154 975.000015 563.155594 C974.166641 563.705154 973.333389 564.254654 972.250015 564.554214 z"
     id="path36" /><path
     class="selected"
     fill="#000000"
     opacity="1.000000"
     stroke="none"
     d=" M972.250015 518.054214 C973.625870 518.263382 974.751724 518.722549 975.877579 519.181778 C975.493912 519.647110 975.110245 520.112381 974.726578 520.577652 C973.817764 519.819839 972.908829 519.062027 972.250015 518.054214 z"
     id="path37" /><path
     class="selected"
     fill="#000000"
     opacity="1.000000"
     stroke="none"
     d=" M194.000015 45.804214 C193.000015 45.391128 192.500015 44.978027 192.000015 44.564941 C192.659531 44.311371 193.319046 44.057800 193.978561 43.804214 C194.152390 44.470871 194.326218 45.137542 194.000015 45.804214 z"
     id="path38" /><path
     class="selected"
     fill="#000000"
     opacity="1.000000"
     stroke="none"
     d=" M972.250015 548.054214 C973.000015 548.186783 973.500015 548.569412 974.000015 548.951980 C973.110733 549.180130 972.221451 549.408218 971.332169 549.636306 C971.554703 549.192276 971.777359 548.748245 972.250015 548.054214 z"
     id="path39" /><path
     class="selected"
     fill="#000000"
     opacity="1.000000"
     stroke="none"
     d=" M684.250015 580.054214 C685.888199 579.137466 687.289688 577.866714 688.662674 577.896927 C703.668594 578.226333 718.766495 577.820205 733.418533 581.893692 C735.120804 582.366958 736.481155 584.070144 738.000015 585.203079 C736.215225 586.070144 734.392044 587.742324 732.652542 587.659378 C726.420059 587.362259 720.229813 586.221756 713.997147 585.875808 C708.023819 585.544265 702.014664 585.919693 696.027176 585.760513 C692.497330 585.666702 688.946609 585.329666 685.465652 584.743545 C682.673904 584.273452 682.020523 582.601333 684.250015 580.054214 z"
     id="path40" /><path
     class="selected"
     fill="#000000"
     opacity="1.000000"
     stroke="none"
     d=" M835.000015 555.804214 C839.275467 555.601577 843.170609 552.836563 846.713638 556.891128 C848.443436 558.870620 848.309341 559.951004 846.046646 560.771316 C843.442581 561.715469 840.796646 562.739273 838.081985 563.141189 C832.860062 563.914199 827.579788 564.609634 822.317825 564.655044 C819.878006 564.676162 817.423538 563.221145 817.962906 559.685684 C818.432083 556.610794 820.182449 555.687332 823.047745 555.775283 C826.861893 555.892410 830.682266 555.804214 835.000015 555.804214 z"
     id="path41" /><path
     class="selected"
     fill="#000000"
     opacity="1.000000"
     stroke="none"
     d=" M799.250015 443.054214 C803.494278 442.804214 807.516922 442.530227 811.469009 442.938491 C813.058975 443.102737 814.494278 444.763382 816.000015 445.742996 C814.535110 446.763382 813.188492 448.352554 811.580948 448.686905 C808.137222 449.403030 804.514297 449.981582 801.045914 449.680801 C796.218887 449.262100 795.728592 447.227676 799.250015 443.054214 z"
     id="path42" /><path
     class="selected"
     fill="#000000"
     opacity="1.000000"
     stroke="none"
     d=" M783.000015 338.804214 C781.795425 339.766281 780.590836 340.228378 779.386246 340.690445 C779.460587 339.692001 779.534927 338.693527 779.609146 337.695083 C780.739456 337.898117 781.869705 338.101150 783.000015 338.804214 z"
     id="path43" /><path
     class="selected"
     fill="#000000"
     opacity="1.000000"
     stroke="none"
     d=" M653.000015 264.804214 C654.027786 274.417373 655.668472 283.590591 652.942276 292.626236 C650.377090 301.128463 646.931107 303.564773 639.855423 302.804245 C633.881668 302.162155 626.173172 295.070480 626.134964 289.096603 C626.086502 281.530166 624.111832 273.486068 628.144180 266.512222 C631.154129 261.306533 635.124893 256.510086 639.362625 252.217300 C641.774796 249.773697 646.919632 252.124588 648.977066 255.974685 C650.429031 258.691879 651.666641 261.523636 653.000015 264.804214 M645.000076 277.304214 C644.333389 273.048080 643.734268 268.779403 642.947891 264.545456 C642.772171 263.599502 641.939224 262.775558 641.408768 261.895462 C640.939163 262.695785 640.423477 263.473007 640.008133 264.300552 C638.342728 267.618515 640.403336 273.365005 645.000076 277.304214 M644.000015 293.304214 C644.666641 290.108078 645.412430 286.924179 645.909683 283.701889 C645.979568 283.248825 644.545670 282.021225 644.294266 282.144455 C641.608780 283.460861 641.145157 291.201095 644.000015 293.304214 z"
     id="path44" /></svg>
