<?xml version="1.0" encoding="UTF-8" standalone="no"?>
<svg
   version="1.1"
   id="Contours"
   x="0px"
   y="0px"
   width="2604.000000px"
   height="2604.000000px"
   viewBox="0.000000 0.000000 2604.000000 2391.303711"
   enable-background="new 0 0 2604.000000 2604.000000"
   xml:space="preserve"
   stroke="black"
   fill="none"
   stroke-linecap="round"
   stroke-linejoin="round"
   sodipodi:docname="personnage1.svg"
   inkscape:version="1.3 (0e150ed6c4, 2023-07-21)"
   xmlns:inkscape="http://www.inkscape.org/namespaces/inkscape"
   xmlns:sodipodi="http://sodipodi.sourceforge.net/DTD/sodipodi-0.dtd"
   xmlns="http://www.w3.org/2000/svg"
   xmlns:svg="http://www.w3.org/2000/svg"><defs
     id="defs142" /><sodipodi:namedview
     id="namedview142"
     pagecolor="#ffffff"
     bordercolor="#000000"
     borderopacity="0.25"
     inkscape:showpageshadow="2"
     inkscape:pageopacity="0.0"
     inkscape:pagecheckerboard="0"
     inkscape:deskcolor="#d1d1d1"
     inkscape:zoom="0.31221198"
     inkscape:cx="1300.3985"
     inkscape:cy="1330.8266"
     inkscape:window-width="1920"
     inkscape:window-height="1009"
     inkscape:window-x="-8"
     inkscape:window-y="-8"
     inkscape:window-maximized="1"
     inkscape:current-layer="Contours" /><path
     class="selected"
     fill="#000000"
     opacity="1"
     stroke="none"
     d="m 1731.6746,825.5156 c -4.1138,1.3334 -6.3316,3.9612 -8.3252,3.801 -21.4244,-1.7216 -43.3418,4.739 -64.3672,-3.7412 -1.1466,-0.4622 -2.6422,-0.06 -3.9752,-0.06 -39.9902,0 -79.9814,-0.068 -119.9702,0.164 -2.4608,0.02 -4.9086,2.3756 -7.3622,3.645 2.3256,1.3972 4.5478,3.0168 6.9936,4.1562 17.3168,8.0672 34.6246,16.157 52.0434,23.9998 15.7876,7.108 32.6066,12.1202 46.353,23.3144 0.854,0.6958 2.8302,0.07 3.6134,0.7892 6.9844,6.4172 17.1538,10.941 14.96,23.1854 -1.4458,8.0724 -13.9186,16.9506 -25.4098,16.5712 -22.1288,-0.7304 -44.3608,-1.4364 -66.2744,-4.2766 -10.6792,-1.3842 -20.5458,-8.177 -31.1186,-11.4186 -23.1046,-7.0838 -46.5078,-13.193 -69.6132,-20.2738 -8.194,-2.511 -16.2584,-6.0156 -23.709,-10.2504 -12.854,-7.3066 -23.8322,-7.3088 -39.0656,-2.7634 -23.6962,7.0708 -33.4238,20.906 -36.8304,42.9024 -0.9562,6.1712 -2.9624,12.1826 -3.8682,18.3582 -1.8526,12.6302 -7.6968,26.0228 6.042,36.2094 1.225,0.9084 1.726,3.3672 1.8168,5.144 1.2472,24.5466 -0.3862,48.5754 -10.7646,71.4952 -15.1792,33.52 -34.4648,64.2688 -59.4794,91.3212 -5.7642,6.2334 -13.9512,11.289 -17.1162,18.5824 -3.5924,8.2766 -3.463,18.4432 -3.671,27.8166 -0.138,6.177 2.9,12.397 2.9488,18.6102 0.2982,37.9884 -0.3706,75.9898 0.2968,113.9688 0.6582,37.4504 1.395,74.9646 4.2128,112.2912 2.2002,29.1384 8.9274,57.9272 11.3038,87.0622 2.7724,33.9886 2.7828,68.1952 4.435,102.2858 0.75,15.472 2.3716,30.9152 4.1622,46.3062 0.211,1.8148 3.8408,4.2188 6.1674,4.591 4.5488,0.728 9.3848,0.7978 13.9468,0.11 17.7168,-2.6694 27.7428,9.1092 37.503,20.3356 6.1596,7.0848 2.4198,19.8406 -6.7174,23.6124 -19.9222,8.2232 -40.0078,16.1792 -60.495,22.79 -3.7496,1.21 -11.627,-3.2118 -14.2656,-7.2252 -5.3424,-8.1248 -8.6222,-17.664 -12.233,-26.8244 -0.8218,-2.0856 -0.2554,-5.4068 0.899,-7.4742 10.041,-17.9846 10.9984,-37.6106 10.9414,-57.4726 -0.04,-13.9964 -0.176,-27.9958 0.026,-41.9894 0.4234,-29.1858 -1.627,-57.9878 -7.604,-86.7546 -3.6626,-17.6258 -1.9228,-36.3128 -4.7006,-54.1982 -4.3594,-28.074 -0.5358,-56.6428 -4.5026,-84.2538 -5.1186,-35.6326 -1.4228,-71.0048 -3.1714,-106.4308 -1.1904,-24.1182 2.778,-48.5244 -4.0848,-72.3142 -0.9492,-3.2906 -1.8902,-8.9436 -3.5304,-9.2096 -4.0858,-0.6624 -9.5884,-0.126 -12.6362,2.3004 -3.6298,2.889 -6.4194,7.9604 -7.6132,12.5916 -5.7588,22.3418 -10.9166,44.8402 -16.1754,67.3092 -5.4062,23.1012 -10.7392,46.2196 -16,69.3544 -5.4048,23.7684 -10.369,47.6412 -16.0912,71.332 -8.0376,33.277 -16.4068,66.4772 -24.9834,99.6198 -10.1186,39.0988 -20.1666,78.2272 -31.2144,117.0672 -3.275,11.5138 -8.8208,22.2086 -7.8912,34.767 0.4718,6.3724 1.526,10.6022 8.4054,13.384 18.1864,7.3544 25.2524,24.8258 34.061,40.4076 1.0756,1.9026 0.2066,5.9748 -1.231,7.9968 -2.665,3.7494 -5.8526,7.8732 -9.815,9.8238 -15.4692,7.6148 -31.0272,15.2522 -47.166,21.22 -8.2396,3.047 -17.0804,0.4372 -22.3808,-8.0142 -3.9614,-6.3166 -7.545,-12.8688 -11.3574,-19.2798 -3.6402,-6.1214 -5.2076,-12.725 1.0596,-17.5026 9.3862,-7.1552 11.1758,-18.0516 15.3398,-27.7464 6.0738,-14.1416 13.8364,-28.1016 16.713,-42.946 4.41,-22.7602 11.3686,-44.7922 17.02,-67.1284 8.785,-34.7228 24.2406,-68.0318 30.3578,-103.0766 5.7422,-32.8946 15.8106,-64.6236 22.5,-97.1778 7.3262,-35.6546 10.478,-72.9968 26.5586,-106.6906 -2.1596,-20.9282 7.6568,-39.3964 11.7724,-59.0414 1.6036,-7.6532 0.154,-13.6658 -9.3192,-20.229 -19.5094,-13.517 -41.0254,-17.5854 -62.771,-22.8576 -31.0498,-7.5274 -62.7842,-11.598 -93.8214,-19.4868 -16.077,-4.0864 -33.4506,-2.944 -50.19918,-4.5688 -8.8252,-0.856 -17.9066,-1.49 -26.2856,-4.1056 -35.3704,-11.0426 -70.3942,-23.2014 -105.8038,-34.1122 -17.8244,-5.4924 -36.0008,-10.559 -54.394,-13.2628 -14.6022,-2.1464 -22.2582,-12.0962 -31.3296,-20.9838 -1.2016,-1.1774 -1.4118,-5.4972 -0.3452,-6.4824 4.1446,-3.8292 8.0474,-8.0088 15.1594,-6.5736 29.89,6.0306 58.1822,16.961 86.9336,26.6726 19.4082,6.5554 39.8468,10.0608 59.8236,14.933 5.4474,1.3286 10.896,2.6522 16.3384,4.0014 20.5498,5.0956 40.8768,12.9812 61.69818,14.6276 28.7246,2.2712 55.205,14.739 84.6782,14.3962 14.1562,-0.164 28.4428,1.7274 42.6592,-1.0488 2.434,-0.4756 4.8096,-1.2486 7.2124,-1.8844 -1.3516,-2.7472 -2.5952,-5.5542 -4.0748,-8.2306 -5.3218,-9.6208 -16.8388,-8.261 -23.9814,-8.9564 -27.6372,-2.6922 -51.2246,-15.3744 -75.1704,-26.7382 -26.794,-12.7152 -53.19098,-25.945 -81.76518,-34.4376 -5.7396,-1.706 -11.2094,-6.1836 -15.3432,-10.7154 -2.3828,-2.6126 -3.7168,-9.0344 -2.115,-11.6722 1.8144,-2.9886 7.9832,-5.801 11.3142,-4.9578 11.922,3.0178 23.3462,7.933 35.1416,11.5338 14.23398,4.345 28.44338,9.9848 43.04638,11.5986 18.1342,2.004 32.3764,12.3678 48.5176,18.4186 28.228,10.5826 55.8272,22.905 83.3832,35.1844 9.2492,4.1214 16.9396,5.3442 24.5968,-2.5062 13.3984,-13.7362 28.5824,-26.0574 40.1606,-41.1622 15.771,-20.5746 32.0522,-40.34 51.48,-57.5466 6.4624,-5.7238 11.6114,-12.9144 17.962,-18.785 7.5648,-6.9936 15.8006,-13.2594 23.6924,-19.904 2.5042,-2.1088 6.0838,-3.9866 7.0356,-6.7148 4.477,-12.8396 8.327,-25.905 12.1098,-38.9742 0.7124,-2.4598 -0.3028,-5.3766 0.17,-7.9564 3.0786,-16.8508 3.2328,-17.0394 -10.73,-23.5072 -11.1714,-5.1748 -22.978,-9.0746 -33.8468,-14.7872 -27.3266,-14.3628 -36.9082,-41.4258 -47.6084,-67.8068 -10.3842,-25.60346 -8.9404,-52.36842 -7.1258,-78.66266 0.6972,-10.10786 9.7396,-19.72626 15.2812,-29.39508 10.7168,-18.69794 21.538,-36.98774 36.79,-52.94678 19.8808,-20.80304 45.2408,-29.00062 71.1796,-36.15326 18.4996,-5.10102 28.4576,-14.31946 27.8252,-32.7586 -0.4848,-14.14002 -2.894,-28.20796 -3.5932,-42.35022 -0.2144,-4.32898 1.0894,-10.50086 4.046,-12.7721 3.6982,-2.8413 14.5814,5.26276 15.5942,11.39508 1.769,10.7063 3.2646,21.505 3.981,32.32422 0.6586,9.95398 -0.128,19.99726 0.292,29.97706 0.14,3.3294 2.0498,6.58416 3.1508,9.87292 3.9532,-1.72034 10.4052,-2.53248 11.4184,-5.32112 4.0172,-11.054 7.0514,-22.60406 9.0278,-34.21246 1.3234,-7.7727 -0.172,-15.98082 0.3462,-23.94524 0.88,-13.53956 -1.2768,-25.59248 -12.2588,-35.10066 -1.9038,-1.64794 -2.5708,-6.69708 -1.58,-9.341 2.8838,-7.70368 7.8848,-0.95598 10.2798,0.24702 14.917,7.49144 23.8238,19.63396 23.3702,36.9027 -0.4772,18.15302 2.7998,36.61024 -3.8488,54.35364 -0.438,1.16888 0.506,3.08026 -0.14,3.91388 -14.2544,18.41632 -4.063,28.02912 11.481,38.69666 11.9472,8.19916 22.5458,19.48052 27.162,34.39832 3.5826,11.57836 12.568,14.95976 23.2902,15.3396 9.3192,0.33006 18.6748,0.4149 27.9878,0.002 26.6426,-1.17858 50.4086,8.5368 74.5068,18.1062 22.6542,8.99586 44.2002,19.96784 63.7676,34.1681 26.5024,19.2329 46.4496,43.58452 51.9448,77.3112 0.3902,2.3936 1.0732,5.075 2.5254,6.904 7.7724,9.793 4.3018,17.1532 -6.583,23.576 m -128,-125.99982 c -26.7584,-16.22492 -57.692,-6.42628 -86.045,-13.51996 -7.8852,-1.97278 -10.3062,4.91912 -10.1782,15.57012 0.17,14.11616 2.1972,28.39246 -3.6186,42.27472 -5.9308,14.15668 -10.936,28.73462 -15.6724,43.34654 -3.4376,10.6044 -0.6098,14.167 10.0952,14.2976 11.2974,0.138 22.607,0.3076 33.895,-0.048 10.8712,-0.3426 22.0582,0.4786 32.4986,1.2264 14.2246,1.019 28.7564,0.7028 43.0444,2.008 30.3218,2.7696 61.0738,1.0316 91.6454,0.7426 10.5504,-0.1 14.2374,-5.278 11.5342,-14.6762 -6.4178,-22.31084 -22.8636,-37.80688 -38.704,-52.85546 -13.4302,-12.75842 -28.3878,-24.75812 -47.8316,-28.58386 -3.3784,-0.66468 -5.9618,-4.70172 -9.3428,-6.22816 -2.7748,-1.25286 -6.1894,-1.08966 -11.3202,-3.55394 m -202,-78 c -27.4908,17.51732 -54.4644,35.5163 -69.937,65.872 -10.254,20.11554 -19.9014,41.46588 -19.2296,63.58032 0.8102,26.6689 3.0782,54.7311 25.4424,75.1383 2.9516,2.693 3.2192,8.1416 5.8574,11.4016 5.6534,6.9854 11.083,14.9512 18.4718,19.4486 4.8578,2.9574 13.2256,1.6762 19.5682,0.2616 7.088,-1.5808 13.9552,-4.9284 20.3828,-8.4778 7.1944,-3.9728 6.5744,-8.0108 -1.6806,-12.283 -17.6596,-9.1392 -27.0424,-22.494 -25.1616,-43.3448 0.7286,-8.0734 -1.8862,-16.42544 -2.704,-24.67764 -0.2204,-2.22002 0.178,-4.6778 0.9414,-6.79266 12.1644,-33.7185 29.831,-63.92676 56.3822,-88.52674 10.0684,-9.32776 13.6778,-10.02704 27.3258,-3.9663 4.4966,1.99664 9.0214,3.97418 13.6704,5.55756 1.6636,0.56634 4.4144,0.64764 5.4238,-0.33228 1.0204,-0.99066 1.1274,-3.79102 0.5552,-5.41894 -5.8678,-16.68634 -15.441,-31.39906 -29.795,-41.33888 -12.6372,-8.75072 -25.914,-22.52838 -45.5136,-6.10094 m 38,230.00002 c 2.502,2 4.771,4.43 7.5424,5.9324 23.7602,12.8814 50.4796,16.5656 75.9942,23.914 28.0454,8.0772 56.4302,14.983 84.686,22.3236 2.1918,0.5694 4.538,0.5436 6.8126,0.7946 -0.7692,-2.7456 -0.6456,-6.7818 -2.4502,-8.0296 -12.7638,-8.8246 -24.878,-18.6926 -40.3536,-23.099 -11.8212,-3.3658 -23.8316,-7.0412 -34.6636,-12.6804 -17.003,-8.8514 -32.5406,-19.2204 -51.892,-24.6382 -25.1402,-7.0382 -24.357,-9.836 -41.4366,7.2438 -1.413,1.4128 -2.8262,2.8258 -4.2392,8.2388 m -134,846.00018 c -3.6338,2.3006 -7.3824,4.4456 -10.8356,6.9918 -1.1014,0.8124 -1.4174,2.6898 -2.0926,4.0798 1.1826,0.3094 2.393,0.9632 3.5424,0.8684 5.0244,-0.4144 10.5352,0.092 14.9296,-1.8566 7.1798,-3.1836 13.6276,-8.0178 20.3844,-12.1554 -7.9762,0.024 -15.9522,0.048 -25.9282,2.072 m 148,-940.0002 c 3.3334,-10.61108 6.7734,-21.1916 9.8276,-31.88246 0.2914,-1.01994 -1.6562,-3.65508 -2.872,-3.88042 -1.4816,-0.2746 -4.42,0.84942 -4.7808,1.9865 -3.4824,10.97346 -13.1568,20.90614 -2.1748,33.77638 m -344,940 c -3.333,3.0978 -6.6666,6.1954 -10,9.2928 4.0902,0.9024 8.1674,1.8688 12.2778,2.6688 1.267,0.2464 3.2084,0.5988 3.836,-0.058 2.826,-2.958 8.0438,-7.3448 7.309,-9.2118 -1.4936,-3.791 -4.7828,-10.3 -13.4228,-2.6918 m 338,-990 c 1.835,-1.83522 3.8666,-3.52142 5.4218,-5.5691 0.7676,-1.01098 0.6568,-2.68926 0.9434,-4.06568 -3.602,2.02522 -7.9034,3.40686 -10.5644,6.29828 -1.8242,1.982 -1.3672,6.0641 -1.9302,9.2074 1.3764,-1.29028 2.7528,-2.58056 6.1294,-5.8709 z"
     id="path6"
     style="stroke-width:2" /><path
     class="selected"
     fill="#000000"
     opacity="1"
     stroke="none"
     d="m 1802.6746,1956.5158 c -2.6856,0.6476 -4.3716,0.2952 -6.0572,-0.058 0.2348,-0.8634 0.6176,-2.4922 0.6832,-2.4796 2.1434,0.4152 4.2562,0.9876 5.374,2.5368 z"
     id="path79"
     style="stroke-width:2" /><path
     class="selected"
     fill="#000000"
     opacity="1"
     stroke="none"
     d="m 1746.6746,1956.5158 c -2.6856,0.6476 -4.3716,0.2952 -6.0572,-0.058 0.2348,-0.8634 0.6176,-2.4922 0.6832,-2.4796 2.1434,0.4152 4.2562,0.9876 5.374,2.5368 z"
     id="path85"
     style="stroke-width:2" /><path
     class="selected"
     fill="#000000"
     opacity="1"
     stroke="none"
     d="m 1836.6746,1952.5158 c 0.2002,-1.1334 1.3998,-1.2666 2.6,-1.4 -0.5332,0.7998 -1.0668,1.6 -2.6,1.4 z"
     id="path126"
     style="stroke-width:2" /><path
     class="selected"
     fill="#000000"
     opacity="1"
     stroke="none"
     d="m 1776.6746,1956.5158 c 0.2002,-1.1334 1.3998,-1.2668 2.5996,-1.4002 -0.5332,0.8 -1.0664,1.6 -2.5996,1.4002 z"
     id="path140"
     style="stroke-width:2" /></svg>
