<?xml version="1.0" encoding="UTF-8" standalone="no"?>
<svg
   version="1.1"
   id="Contours"
   x="0px"
   y="0px"
   width="2604.000000px"
   height="2604.000000px"
   viewBox="0.000000 0.000000 2604.000000 2391.303711"
   enable-background="new 0 0 2604.000000 2604.000000"
   xml:space="preserve"
   stroke="black"
   fill="none"
   stroke-linecap="round"
   stroke-linejoin="round"
   sodipodi:docname="personnage2.svg"
   inkscape:version="1.3 (0e150ed6c4, 2023-07-21)"
   xmlns:inkscape="http://www.inkscape.org/namespaces/inkscape"
   xmlns:sodipodi="http://sodipodi.sourceforge.net/DTD/sodipodi-0.dtd"
   xmlns="http://www.w3.org/2000/svg"
   xmlns:svg="http://www.w3.org/2000/svg"><defs
     id="defs142" /><sodipodi:namedview
     id="namedview142"
     pagecolor="#ffffff"
     bordercolor="#000000"
     borderopacity="0.25"
     inkscape:showpageshadow="2"
     inkscape:pageopacity="0.0"
     inkscape:pagecheckerboard="0"
     inkscape:deskcolor="#d1d1d1"
     inkscape:zoom="0.31221198"
     inkscape:cx="1300.3985"
     inkscape:cy="1302"
     inkscape:window-width="1920"
     inkscape:window-height="1009"
     inkscape:window-x="-8"
     inkscape:window-y="-8"
     inkscape:window-maximized="1"
     inkscape:current-layer="Contours" /><path
     class="selected"
     fill="#000000"
     opacity="1"
     stroke="none"
     d="m 1291.3481,1442.0886 c 6.5462,25.5668 6.7296,51.0474 14.682,75.302 3.5892,10.9466 -1.3272,22.8418 -0.024,34.6182 2.5068,22.6502 2.798,45.5378 4.4708,68.2928 0.503,6.8418 2.6146,13.557 3.8554,20.3546 2.7172,14.8856 6.281,29.6994 7.685,44.7122 0.9206,9.8434 4.097,14.6524 14.0914,13.698 14.0066,-1.3374 18.0778,11.5276 25.9402,18.6576 1.936,1.7562 1.8102,9.473 -0.201,11.2596 -9.0044,7.998 -18.3728,16.1172 -28.9546,21.5938 -5.7036,2.9518 -13.7066,1.212 -19.2094,-5.8574 -11.8124,-15.1752 -18.2146,-30.3868 -13.1194,-50.6794 2.7676,-11.0232 -0.7752,-23.8138 -2.3118,-35.6986 -3.7544,-29.0344 -6.8562,-58.0544 -8.9742,-87.3036 -1.3036,-18.0002 1.3474,-37.3542 -6.9304,-54.7612 5.7464,-8.2284 -0.7554,-16.3682 -0.386,-24.7022 0.9916,-22.3574 -5.8566,-43.7966 -10.5046,-65.456 -0.8062,-3.7572 -0.8534,-7.6916 -1.0934,-11.5538 -1.1278,-18.1292 2.5038,-36.4464 -3.6708,-54.4582 -1.9976,-5.8276 -1.9674,-14.1124 0.7874,-19.3534 3.3088,-6.2946 3.1058,-9.5764 -0.3234,-15.623 -2.5818,-4.5518 -2.6552,-12.543 -0.395,-17.3962 4.4474,-9.55 -1.6128,-18.1094 -0.2138,-26.846 1.7352,-10.8364 -6.1798,-13.5466 -12.9484,-16.1946 -7.9222,-3.0992 -16.869,-4.5628 -22.8842,4.1736 -4.22,6.1284 -9.7582,12.434 -10.9938,19.3262 -3.478,19.4004 -15.015,35.1974 -21.6738,53.128 -6.6322,17.86 -17.8534,34.173 -23.262,52.2984 -12.0854,40.5034 -39.0586,74.5168 -48.8004,115.831 -13.7112,15.6532 -15.201,36.663 -21.584,54.9882 -9.732,27.9408 -19.3224,56.0142 -28.9036,84.062 -1.967,5.7586 -0.3118,14.287 2.7036,19.9152 7.642,14.2646 9.1666,29.0996 8.1516,44.6656 -0.6868,10.531 0.9036,19.9338 8.232,28.6886 7.4834,8.9398 4.3894,14.4688 -6.7324,17.4648 -9.108,2.4534 -16.8518,2.6606 -22.0144,-6.6716 -7.7826,-14.0672 -24.629,-24.6088 -19.2864,-43.8664 4.6364,-16.7124 3.392,-33.5364 3.942,-50.393 0.094,-2.8994 2.2884,-5.68 3.2128,-8.6102 9.8378,-31.1948 23.3456,-61.0026 33.3982,-92.2342 12.223,-37.975 27.443,-75.0556 45.0062,-111.339 18.7136,-38.6604 37.6436,-77.5964 50.6016,-119.0144 6.4036,-20.4668 16.696,-39.7116 25.1054,-59.5616 1.2,-2.8326 2.4542,-5.999 2.3026,-8.9396 -0.132,-2.558 -2.217,-5.015 -3.439,-7.5168 -1.4448,1.6124 -3.0032,3.1378 -4.315,4.8518 -7.357,9.6132 -10.0532,10.1216 -17.1434,-0.3036 -8.3726,-12.3104 -16.8782,-24.9604 -22.4988,-38.6258 -13.0538,-31.735 -29.1064,-61.6418 -48.26,-90.0368 -4.1078,-6.0898 -6.8116,-13.142 -10.0276,-19.8158 -18.9564,-39.3356 -42.3226,-75.2936 -71.004,-108.75961 -19.0862,-22.2702 -37.31319,-46.7052 -47.52199,-75.819 -6.2812,-17.9142 -16.934,-34.2822 -25.4424,-51.4346 -3.5572,-7.1718 -7.2218,-14.383 -9.7604,-21.9384 -2.0844,-6.2052 0.11,-12.6446 6.9644,-13.7044 4.2614,-0.659 9.0732,-2.7744 13.6384,5.5298 17.7094,32.2152 38.09659,62.9524 57.23539,94.393 3.8326,6.2966 6.725,13.191 9.7716,19.9358 10.1716,22.5184 24.2258,42.431 39.649,61.63461 10.2482,12.7606 20.1012,26.1098 28.1032,40.3362 10.639,18.9148 27.5482,31.3564 42.6926,45.6818 6.0516,5.7242 12.7954,10.7434 19.4386,15.8022 2.4072,1.833 5.4402,2.845 8.1874,4.2318 0.6532,-3.0628 2.3866,-6.358 1.7852,-9.1508 -4.2036,-19.526 -7.4358,-39.441 -13.8206,-58.268 -6.6998,-19.7564 -18.0468,-37.9426 -24.6786,-57.71541 -8.1732,-24.3684 -22.4404,-45.3928 -33.256,-68.2552 -1.8344,-3.8772 -3.849,-8.2296 -3.7214,-12.298 0.104,-3.2982 2.573,-7.9428 5.3312,-9.329 2.6442,-1.3292 7.6844,-0.2506 10.4642,1.592 4.3568,2.8876 8.9048,6.6816 11.2466,11.1942 7.6614,14.7638 13.492,30.5214 21.6986,44.9456 7.06,12.4086 15.06,24.1892 21.2138,37.23661 6.3398,13.4424 14.0154,26.44 22.5688,38.6044 9.9426,14.1406 21.4168,27.2106 32.3412,40.652 4.957,6.099 9.9078,7.1176 16.5576,1.272 29.5616,-25.987 64.4604,-44.5944 95.5786,-68.4594 2.0646,-1.5832 4.2488,-3.193 5.8054,-5.2282 14.8632,-19.43321 36.6926,-29.88321 56.5768,-42.34861 18.959,-11.885 23.9546,-29.9788 28.1012,-49.1468 2.0534,-9.4922 -0.7566,-15.9926 -11.0284,-21.5246 -9.2224,-4.9668 -15.4802,-13.945 -27.8328,-15.5946 -7.5114,-1.003 -15.7952,-6.3366 -17.3796,-17.8734 -2.457,-17.8876 -6.417,-35.7782 -11.851,-53.0014 -9.6914,-30.717 2.3684,-58.3968 9.9028,-86.78344 2.6886,-10.1282 7.9364,-19.7908 9.1282,-30.0028 0.5114,-4.3826 -7.0304,-14.1052 -9.7244,-13.6902 -10.8934,1.679 -17.7964,-5.7044 -23.8612,-10.5654 -12.8552,-10.3038 -27.8168,-10.5892 -42.2508,-14.4614 -19.8196,-5.3166 -39.1144,2.082 -58.7838,0.7698 -8.0146,-0.5348 -16.6524,4.2536 -24.601,7.587 -16.003,6.7112 -23.7,2.8382 -27.5372,-14.8154 -2.1296,-9.7998 -3.394,-19.8512 -6.3132,-29.4028 -5.9772,-19.5588 -16.3006,-36.7054 -30.9258,-51.1914 -5.1292,-5.0802 -10.6242,-10.0482 -14.6074,-15.9714 -7.0442,-10.4762 -3.4598,-17.7116 8.7984,-16.3524 11.5936,1.2854 22.8528,5.685 34.225,8.8374 7.7594,2.1508 15.5044,4.3738 23.176,6.8152 9.6084,3.0578 18.7916,5.96 26.2866,14.1494 14.8576,16.2332 29.657,32.9534 50.1956,42.6142 8.359,3.932 16.6472,8.302 25.4216,10.9908 10.7326,3.2888 21.8964,5.2792 32.9794,7.2304 2.5128,0.4422 5.8906,-1.058 7.9802,-2.7582 0.7554,-0.6144 -0.714,-4.6334 -1.8196,-6.76 -10.2696,-19.7558 -22.4702,-38.733 -30.5836,-59.3256 -9.4516,-23.9894 -28.041,-41.4654 -40.265,-63.2984 -2.4478,-4.3716 -7.4332,-10.209 -11.3502,-10.2872 -8.9362,-0.178 -14.673,-5.389 -16.6318,-11.412 -2.3206,-7.1348 -3.1018,-17.3424 0.4022,-23.3106 9.966,-16.9746 7.7916,-35.72108 10.4442,-53.61158 0.843,-5.68512 10.907,-12.37196 0.573,-18.60042 4.0672,-4.55196 7.51,-10.14452 12.5094,-13.14214 1.9908,-1.19372 10.8906,3.68838 10.7408,5.23166 -1.201,12.3774 7.75,19.76882 12.7886,28.97646 15.2862,27.93442 25.39,57.75822 31.848,88.78562 4.9518,23.79 15.6572,45.5918 22.4714,68.7238 4.184,14.203 8.3052,28.5866 14.3884,42.0128 4.3498,9.6004 11.8672,17.7764 18.0766,26.513 1.1426,1.6072 3.0806,2.6662 4.1494,4.3054 3.189,4.892 6.1286,9.9464 9.1654,14.9374 5.2862,-3.332 10.8056,-6.351 15.8032,-10.071 7.207,-5.3648 14.0952,-11.1664 21.0096,-16.9142 8.0558,-6.6968 10.0278,-25.2732 4.1974,-37.885 -1.033,-2.2344 -1.2904,-5.2276 -2.9462,-6.7038 -7.017,-6.2564 -9.9636,-12.6574 -1.1168,-19.326 4.9712,-3.747 14.8696,0.4602 18.6114,9.4766 4.0126,9.6696 6.652,20.1942 8.0488,30.593 1.7824,13.2696 3.804,15.8918 16.9036,14.8306 11.7566,-0.9526 24.465,-11.5686 27.3512,-22.8482 5.2224,-20.409 5.2222,-41.997 -2e-4,-64.6834 -1.1924,-5.1796 -9.819,-7.5686 -15.6004,-2.2218 -5.6154,5.1936 -11.2538,6.9712 -17.6936,5.3754 -2.317,-0.5742 -8.7818,-2.2382 -3.5532,-9.3194 8.9462,-12.116 22.681,-13.5438 34.948,-17.3412 3.0336,-0.939 10.775,7.356 13.6222,12.827 12.0546,23.164 17.5684,47.3724 8.4184,73.2748 -2.2776,6.4474 -3.3662,13.461 -3.9864,20.3064 -0.6366,7.0272 -1.2572,13.5362 8.6074,16.94 24.6676,8.5112 35.5502,29.2386 43.4358,52.4058 2.7572,8.0992 8.3934,15.1778 11.6534,23.1564 4.1526,10.1618 5.0538,31.6822 4.302,44.9752 -0.7138,12.62584 -0.889,25.37684 0.022,37.97704 1.3038,18.0388 -5.003,32.511 -17.7092,44.7644 -2.3336,2.2504 -5.3672,4.5662 -6.161,7.3904 -0.7402,2.6342 0.218,7.9544 1.9046,8.6852 7.9008,3.423 16.2628,7.772 24.5482,7.9626 31.5692,0.7256 63.3324,2.6664 93.7672,-9.8128 11.4024,-4.6754 23.852,-6.9314 35.955,-9.7228 11.0144,-2.5404 19.9734,-6.7242 24.2272,-18.4696 1.8658,-5.1522 6.7236,-9.1408 9.5708,-14.0366 4.2004,-7.2226 7.232,2.644 10.9236,0.415 0.3734,2.5594 1.6522,5.3972 0.965,7.63 -3.0838,10.0176 -5.8638,20.2966 -10.5332,29.5866 -2.309,4.5938 -7.967,9.1166 -12.9758,10.472 -27.0594,7.3236 -55.2168,11.4232 -81.3204,21.1368 -15.9024,5.9176 -31.9468,10.4082 -46.7592,6.331 -19.6622,-5.412 -39.7702,0.7082 -59.1284,-6.5928 -8.4336,-3.181 -19.698,-2.6142 -26.3428,8.0536 -2.7468,4.4092 -7.6362,7.4218 -11.0958,11.4602 -12.182,14.2222 -28.0376,21.0924 -46.1078,23.9922 -5.5196,0.8856 -11.3392,1.7336 -16.2258,4.1852 -4.453,2.2338 -10.5284,6.1342 -11.2432,10.1306 -4.9688,27.7904 -18.051,52.5892 -27.3242,78.76841 -1.673,4.7224 -2.301,10.8082 -0.8556,15.4722 6.8488,22.094 -7.2306,37.467 -17.2456,53.6318 -3.4056,5.4968 -5.7998,10.8388 -8.2478,16.6746 -14.301,34.088 -26.3352,69.2336 -45.1572,101.2702 -5.1054,8.6906 -10.7078,17.5146 -17.8236,24.5044 -12.2332,12.0158 -18.9784,28.5688 -35.294,37.5272 -14.5122,7.9678 -13.6744,12.0602 -9.4302,31.1496 1.8266,8.217 1.4134,17.136 0.806,25.6496 -1.482,20.7736 2.0008,41.444 -3.0008,62.5544 -3.245,13.6956 -0.7264,30.2318 3.9798,43.8464 3.4564,10.0002 1.5598,19.1784 4.1588,29.5658 m 81,-419 c -0.098,1.2358 -0.196,2.4716 -0.293,3.7072 0.7642,-1.2356 1.5286,-2.4714 4.293,-3.7072 0.098,-1.2356 0.196,-2.4714 0.293,-3.707 -0.7644,1.2356 -1.5288,2.4714 -4.293,3.707 m -52,32 c -6.8872,4.2206 -13.9474,8.1936 -20.5536,12.8162 -1.9158,1.3404 -2.5292,4.5424 -3.7394,6.8908 3.1298,-0.2674 7.3736,0.664 9.1862,-1.0206 6.165,-5.7308 11.472,-12.3848 19.1068,-18.6864 0.098,-1.2356 0.196,-2.4714 0.2928,-3.7072 -0.7642,1.2358 -1.5286,2.4714 -4.2928,3.7072 m 182,-225.99981 c -3.2898,-4.623 -6.0368,-9.778 -9.9604,-13.7792 -19.5866,-19.975 -16.8234,-42.0968 -7.1326,-65.1988 3.3272,-7.9312 5.2576,-16.53824 9.2484,-24.08424 11.5158,-21.7728 20.0634,-45.8448 46.94,-55.2724 11.4462,-4.015 11.2052,-6.4804 4.8202,-16.6256 -2.05,-3.2574 -4.5428,-6.9418 -7.774,-8.633 -18.2646,-9.5604 -35.9892,-20.2454 -58.2234,-18.783 -9.517,0.6262 -14.7274,4.8898 -17.7868,12.288 -13.0708,31.6072 -21.4266,64.8566 -27.4278,98.2112 -4.8136,26.75464 -3.3156,54.63784 -4.7228,82.01484 -0.9012,17.5338 2.1062,34.081 12.0608,48.8734 2.9428,4.3732 6.6692,8.051 0.447,13.0972 -1.0954,0.8882 1.1,8.7958 2.1316,8.8758 8.0858,0.6274 16.3278,0.7576 24.39,-0.14 16.2232,-1.8064 28.6458,-11.8262 41.0582,-21.1118 20.7532,-15.5252 19.9844,-21.445 -3.2246,-34.9484 -1.1116,-0.6468 -1.9034,-1.8436 -4.8438,-4.784 m -292,-224.00024 c 1.3332,6.0834 1.0504,13.4088 4.4844,17.8782 3.0332,3.9476 0.118,12.431 9.1998,12.2432 19.2356,-0.398 38.4864,-0.02 57.7256,-0.318 1.5524,-0.024 3.0612,-2.8346 4.5902,-4.3504 -1.2302,-1.151 -2.2734,-2.6956 -3.7232,-3.3844 -6.091,-2.8936 -13.2026,-4.4034 -18.3048,-8.4714 -16.2214,-12.9334 -35.9468,-21.9536 -46.357,-41.6408 -2.8084,-5.3104 -22.0244,-8.0368 -22.277,-4.7712 -0.4432,5.7292 1.088,12.2032 3.7092,17.398 2.2712,4.5018 7.1992,7.663 10.9528,15.4168 m 64,-148 c 12.086,12.3436 25.557,23.5102 32.4114,40.1768 1.1618,2.8242 4.3864,4.899 6.9144,7.014 1.0324,0.8638 2.7458,0.9136 4.1496,1.3338 0.174,-1.251 0.788,-2.633 0.459,-3.7336 -5.2778,-17.6556 -10.0772,-35.49 -16.2898,-52.8158 -3.282,-9.152 -8.7878,-17.5766 -13.863,-25.9834 -2.2422,-3.7142 -4.825,-6.38388 -6.0576,1.515 -1.5078,9.6642 -5.0572,19.0098 -7.724,32.4932 m 34,718.00005 c -2,3.7846 -4.9678,7.374 -5.779,11.3984 -1.3018,6.4554 -1.1624,13.993 6.571,16.0138 2.1008,0.549 7.084,-5.5704 8.9956,-9.4836 5.607,-11.4768 10.6572,-23.261 15.1802,-35.2072 1.1374,-3.0052 -0.5192,-7.0686 -0.8918,-10.6452 -2.7204,1.3364 -6.3946,1.9724 -7.9856,4.1384 -5.1108,6.9578 -9.4522,14.4806 -16.0904,23.7854 m 208,-416.00001 c -1.79,0.4566 -4.9552,0.5768 -5.1618,1.4208 -2.7624,11.2912 0.084,21.1584 8.1472,29.628 4.396,4.6178 9.1612,8.1944 14.8736,2.8914 5.9574,-5.531 5.475,-14.818 -0.106,-20.219 -4.6528,-4.5026 -9.1732,-9.1422 -17.752,-13.7212 m -202,362.00001 c 0.9338,0.3994 2.6042,1.275 2.6976,1.1308 9.4158,-14.565 18.7302,-29.1958 27.9552,-43.8826 0.399,-0.6354 0.2018,-2.4378 -0.226,-2.6444 -1.0798,-0.5218 -3.113,-1.0436 -3.5988,-0.5084 -3.765,4.149 -7.822,8.2026 -10.7076,12.9438 -5.7394,9.431 -10.7868,19.2828 -16.1204,32.9608 m 250,-406.00005 c 5.9198,-10.313 0.136,-17.2484 -7.3652,-22.976 -2.0112,-1.5356 -6.0798,-0.3768 -9.204,-0.4548 0.4464,2.7336 0.146,5.9264 1.487,8.11 3.291,5.3548 7.339,10.2442 15.0822,15.3208 m -176,280.00004 c -4.8056,4.508 -10.2708,9.67741 -3.3642,15.61541 2.28,1.9604 8.4268,-0.5762 12.8054,-1.0564 -1.1154,-5.114 5.7438,-13.20841 -9.4412,-14.55901 m -185.9998,110.00001 c 1.3334,4.0706 2.328,8.2996 4.129,12.1516 1.0564,2.2596 3.3972,3.919 5.1604,5.8484 2.2368,-2.8972 6.9744,-6.9878 6.263,-8.478 -2.606,-5.4608 -3.6898,-14.1854 -15.5524,-9.522 m -14.0002,46 c -4.63,3.8362 -8.166,8.138 -5.2644,14.5888 0.3552,0.7898 2.7762,1.6292 3.093,1.3094 4.1774,-4.2146 8.1484,-8.6334 12.1714,-13.001 -2,-0.9658 -4,-1.9314 -10,-2.8972 m 168,-52 c -1.2102,5.3334 -2.4204,10.6666 -3.6306,16.0002 4.051,-4.1742 8.151,-8.3032 12.1116,-12.5612 0.7812,-0.8398 1.5896,-2.269 1.4272,-3.271 -1.009,-6.229 -4.2998,-4.95 -9.9082,-0.168 m -212,40 c 2.6846,1.3156 5.369,2.631 8.0538,3.9466 -0.054,-2.6846 0.7378,-5.8076 -0.3718,-7.944 -1.4256,-2.7448 -4.1158,-5.1428 -6.8236,-6.7312 -0.8584,-0.5036 -4.3262,1.6922 -5.083,3.3466 -0.5502,1.203 1.3934,3.5468 4.2246,7.382 m 380,-316.00001 c 3.3332,-0.879 6.6668,-1.758 10,-2.637 -1.1506,-1.7876 -2.1308,-4.9374 -3.484,-5.1068 -4.0142,-0.5026 -9.646,-1.9254 -6.516,7.7438 m -282,378.00001 c 1.5304,2 3.0608,4 4.5912,6 2.1374,-2.332 4.2748,-4.6642 6.4126,-6.9962 -3.0014,-0.3346 -6.0026,-0.6692 -11.0038,0.9962 m 28.0002,-12 c -0.362,-1.6952 -0.7238,-3.3906 -1.0858,-5.0856 -2,2 -4,4 -6,5.9998 1.6952,0.362 3.3904,0.724 7.0858,-0.9142 z"
     id="path5"
     style="stroke-width:2" /><path
     class="selected"
     fill="#000000"
     opacity="1"
     stroke="none"
     d="m 1657.3481,660.08855 c 1.9404,1.9406 2.712,3.3248 3.846,3.7566 27.0422,10.2922 52.0324,24.3616 73.698,43.4292 17.8552,15.7144 34.7556,32.6092 51.024,49.96984 4.6884,5.0034 7.2106,13.291 7.8742,20.3414 0.3984,4.2328 -5.721,13.148 -7.1862,12.7952 -7.0076,-1.6872 -18.9588,-5.4908 -19.1784,-9.1416 -1.7682,-29.4148 -26.7724,-41.20124 -43.8684,-57.50504 -13.9974,-13.3494 -31.2094,-24.5242 -49.7426,-33.0362 -21.0316,-9.6594 -41.5914,-18.6804 -65.3714,-15.5958 -12.146,1.5756 -21.1442,-4.0422 -28.5408,-12.7486 -1.118,-1.3162 -0.6894,-6.2112 -0.054,-6.4034 6.5448,-1.9806 14.1608,-6.1276 19.801,-4.3496 18.628,5.872 38.123,2.911 57.6982,8.488 z"
     id="path12"
     style="stroke-width:2" /><path
     class="selected"
     fill="#000000"
     opacity="1.000000"
     stroke="none"
     d=" M2550.000006 2387.718010 C2551.333258 2386.718010 2552.666754 2386.718010 2554.000006 2386.718010 C2553.804693 2388.246574 2553.609381 2389.775139 2553.414068 2391.303703 C2552.276129 2390.441887 2551.138190 2389.579826 2550.000006 2387.718010 z"
     id="path47" /></svg>
